<?xml version="1.0" encoding="utf-8"?>
<svg xmlns="http://www.w3.org/2000/svg" xmlns:xlink="http://www.w3.org/1999/xlink" style="margin: auto; background: rgb(1, 44, 50); display: block; z-index: 1; position: relative; shape-rendering: crispedges;" preserveAspectRatio="xMidYMid" viewBox="0 0 1440 857">
<g transform="translate(720,428.5) scale(1,1) translate(-720,-428.5)"><path d="M-100 507.7C-71.85 513.16 -72.98 517.63 -47.1 517.63S-18.7 503.32 5.81 503.32S33.97 500.2 58.71 500.2S85.27 510.13 111.61 510.13S139.06 517.66 164.52 517.66S192.99 508.38 217.42 508.38S245.57 506.62 270.32 506.62S298.65 500.23 323.23 500.23S349.69 504.37 376.13 504.37S403.96 498.74 429.03 498.74S456.21 497.84 481.94 497.84S508.65 509.38 534.84 509.38S562.93 510.03 587.74 510.03S614.36 517.56 640.65 517.56S667.89 516.26 693.55 516.26S720.07 511.32 746.45 511.32S774.54 515.61 799.35 515.61S825.95 510 852.26 510S880.5 515.77 905.16 515.77S931.75 514.58 958.06 514.58S986.01 518.21 1010.97 518.21S1039.12 517.55 1063.87 517.55S1090.61 505.03 1116.77 505.03S1144.94 502.32 1169.68 502.32S1196.83 502.98 1222.58 502.98S1250.46 513.76 1275.48 513.76S1303.77 497.24 1328.39 497.24S1355.07 504.64 1381.29 504.64S1407.91 512.79 1434.19 512.79S1461.5 510.48 1487.1 510.48S1514 499.37 1540 499.37S1567.57 509.71 1592.9 509.71L1540 857 L-100 857 Z" fill="#0f3135" stroke-width="0">
  <animate attributeName="d" dur="25s" repeatCount="indefinite" values="M-100 507.7C-71.85 513.16 -72.98 517.63 -47.1 517.63S-18.7 503.32 5.81 503.32S33.97 500.2 58.71 500.2S85.27 510.13 111.61 510.13S139.06 517.66 164.52 517.66S192.99 508.38 217.42 508.38S245.57 506.62 270.32 506.62S298.65 500.23 323.23 500.23S349.69 504.37 376.13 504.37S403.96 498.74 429.03 498.74S456.21 497.84 481.94 497.84S508.65 509.38 534.84 509.38S562.93 510.03 587.74 510.03S614.36 517.56 640.65 517.56S667.89 516.26 693.55 516.26S720.07 511.32 746.45 511.32S774.54 515.61 799.35 515.61S825.95 510 852.26 510S880.5 515.77 905.16 515.77S931.75 514.58 958.06 514.58S986.01 518.21 1010.97 518.21S1039.12 517.55 1063.87 517.55S1090.61 505.03 1116.77 505.03S1144.94 502.32 1169.68 502.32S1196.83 502.98 1222.58 502.98S1250.46 513.76 1275.48 513.76S1303.77 497.24 1328.39 497.24S1355.07 504.64 1381.29 504.64S1407.91 512.79 1434.19 512.79S1461.5 510.48 1487.1 510.48S1514 499.37 1540 499.37S1567.57 509.71 1592.9 509.71L1540 857 L-100 857 Z;M-100 505.24C-73.55 517.29 -71.71 502.2 -47.1 502.2S-19.85 517.88 5.81 517.88S33.66 509.15 58.71 509.15S86.96 498.05 111.61 498.05S138.19 513.71 164.52 513.71S191.88 517.83 217.42 517.83S245.12 510.06 270.32 510.06S297.41 501.71 323.23 501.71S350.09 508.66 376.13 508.66S404.57 503.11 429.03 503.11S455.83 510.11 481.94 510.11S508.78 503.61 534.84 503.61S562.95 513.12 587.74 513.12S615.1 507.71 640.65 507.71S667.65 500.84 693.55 500.84S720.84 511.42 746.45 511.42S773.63 506.88 799.35 506.88S826.93 510.25 852.26 510.25S880.7 498 905.16 498S933.47 498.47 958.06 498.47S986.29 511.36 1010.97 511.36S1037.69 509.37 1063.87 509.37S1091.6 505.64 1116.77 505.64S1144.93 517.82 1169.68 517.82S1196.5 518.39 1222.58 518.39S1251.06 505.78 1275.48 505.78S1304.07 499.57 1328.39 499.57S1356.15 498.84 1381.29 498.84S1408.19 498.29 1434.19 498.29S1461.13 504.6 1487.1 504.6S1514.66 515.73 1540 515.73S1568.06 499.36 1592.9 499.36L1540 857 L-100 857 Z;M-100 507.7C-71.85 513.16 -72.98 517.63 -47.1 517.63S-18.7 503.32 5.81 503.32S33.97 500.2 58.71 500.2S85.27 510.13 111.61 510.13S139.06 517.66 164.52 517.66S192.99 508.38 217.42 508.38S245.57 506.62 270.32 506.62S298.65 500.23 323.23 500.23S349.69 504.37 376.13 504.37S403.96 498.74 429.03 498.74S456.21 497.84 481.94 497.84S508.65 509.38 534.84 509.38S562.93 510.03 587.74 510.03S614.36 517.56 640.65 517.56S667.89 516.26 693.55 516.26S720.07 511.32 746.45 511.32S774.54 515.61 799.35 515.61S825.95 510 852.26 510S880.5 515.77 905.16 515.77S931.75 514.58 958.06 514.58S986.01 518.21 1010.97 518.21S1039.12 517.55 1063.87 517.55S1090.61 505.03 1116.77 505.03S1144.94 502.32 1169.68 502.32S1196.83 502.98 1222.58 502.98S1250.46 513.76 1275.48 513.76S1303.77 497.24 1328.39 497.24S1355.07 504.64 1381.29 504.64S1407.91 512.79 1434.19 512.79S1461.5 510.48 1487.1 510.48S1514 499.37 1540 499.37S1567.57 509.71 1592.9 509.71L1540 857 L-100 857 Z"></animate>
  <animateTransform attributeName="transform" type="translate" dur="25s" begin="0s" repeatCount="indefinite" values="0;10;0" calcMode="spline" keySplines="0.3 0 0.7 1;0.3 0 0.7 1"></animateTransform>
</path><path d="M-100 535.27C-71.18 518.94 -70.86 527.46 -45.7 527.46S-17.65 536.24 8.61 536.24S36.83 540.94 62.91 540.94S90.87 542.77 117.22 542.77S145.74 533.96 171.52 533.96S200.73 518.54 225.83 518.54S254.5 525.45 280.13 525.45S307.7 523.62 334.44 523.62S361.83 529.62 388.74 529.62S417.25 520.1 443.05 520.1S471.39 532.92 497.35 532.92S526.25 525.61 551.66 525.61S579.02 543.04 605.96 543.04S634.45 523.44 660.26 523.44S688.64 542.15 714.57 542.15S743.48 530.19 768.87 530.19S797.99 529.44 823.18 529.44S851.2 533.31 877.48 533.31S906.44 539.45 931.79 539.45S960.59 526.2 986.09 526.2S1014.71 521.2 1040.4 521.2S1068.55 533.32 1094.7 533.32S1123.93 543.12 1149.01 543.12S1177.9 537.9 1203.31 537.9S1231.14 542.56 1257.62 542.56S1285.49 532.65 1311.92 532.65S1340.6 525.09 1366.23 525.09S1395.09 531.54 1420.53 531.54S1448.54 533.4 1474.83 533.4S1503.34 526.95 1529.14 526.95S1558.35 527.79 1583.44 527.79L1540 857 L-100 857 Z" fill="#254346" stroke-width="0">
  <animate attributeName="d" dur="22.5s" repeatCount="indefinite" values="M-100 535.27C-71.18 518.94 -70.86 527.46 -45.7 527.46S-17.65 536.24 8.61 536.24S36.83 540.94 62.91 540.94S90.87 542.77 117.22 542.77S145.74 533.96 171.52 533.96S200.73 518.54 225.83 518.54S254.5 525.45 280.13 525.45S307.7 523.62 334.44 523.62S361.83 529.62 388.74 529.62S417.25 520.1 443.05 520.1S471.39 532.92 497.35 532.92S526.25 525.61 551.66 525.61S579.02 543.04 605.96 543.04S634.45 523.44 660.26 523.44S688.64 542.15 714.57 542.15S743.48 530.19 768.87 530.19S797.99 529.44 823.18 529.44S851.2 533.31 877.48 533.31S906.44 539.45 931.79 539.45S960.59 526.2 986.09 526.2S1014.71 521.2 1040.4 521.2S1068.55 533.32 1094.7 533.32S1123.93 543.12 1149.01 543.12S1177.9 537.9 1203.31 537.9S1231.14 542.56 1257.62 542.56S1285.49 532.65 1311.92 532.65S1340.6 525.09 1366.23 525.09S1395.09 531.54 1420.53 531.54S1448.54 533.4 1474.83 533.4S1503.34 526.95 1529.14 526.95S1558.35 527.79 1583.44 527.79L1540 857 L-100 857 Z;M-100 518.64C-70.85 526.6 -71.83 529.14 -45.7 529.14S-17.49 538.82 8.61 538.82S37.77 529.49 62.91 529.49S90.88 536.47 117.22 536.47S144.57 537.7 171.52 537.7S200.16 532.99 225.83 532.99S254.71 524.09 280.13 524.09S307.67 531.6 334.44 531.6S361.79 537.98 388.74 537.98S415.97 529.19 443.05 529.19S472.07 533.5 497.35 533.5S525.1 531.59 551.66 531.59S580.85 534.17 605.96 534.17S634.87 519.48 660.26 519.48S689.51 541.95 714.57 541.95S742.51 530.36 768.87 530.36S797.29 540.03 823.18 540.03S850.61 524 877.48 524S905.28 533.72 931.79 533.72S960.61 527.81 986.09 527.81S1013.55 542.66 1040.4 542.66S1067.61 535.61 1094.7 535.61S1123.79 529.79 1149.01 529.79S1178.16 539.33 1203.31 539.33S1232.17 541.03 1257.62 541.03S1286.76 531.85 1311.92 531.85S1340.1 526.86 1366.23 526.86S1395.24 531.71 1420.53 531.71S1448.76 527.34 1474.83 527.34S1502.94 525.9 1529.14 525.9S1557.12 524.68 1583.44 524.68L1540 857 L-100 857 Z;M-100 535.27C-71.18 518.94 -70.86 527.46 -45.7 527.46S-17.65 536.24 8.61 536.24S36.83 540.94 62.91 540.94S90.87 542.77 117.22 542.77S145.74 533.96 171.52 533.96S200.73 518.54 225.83 518.54S254.5 525.45 280.13 525.45S307.7 523.62 334.44 523.62S361.83 529.62 388.74 529.62S417.25 520.1 443.05 520.1S471.39 532.92 497.35 532.92S526.25 525.61 551.66 525.61S579.02 543.04 605.96 543.04S634.45 523.44 660.26 523.44S688.64 542.15 714.57 542.15S743.48 530.19 768.87 530.19S797.99 529.44 823.18 529.44S851.2 533.31 877.48 533.31S906.44 539.45 931.79 539.45S960.59 526.2 986.09 526.2S1014.71 521.2 1040.4 521.2S1068.55 533.32 1094.7 533.32S1123.93 543.12 1149.01 543.12S1177.9 537.9 1203.31 537.9S1231.14 542.56 1257.62 542.56S1285.49 532.65 1311.92 532.65S1340.6 525.09 1366.23 525.09S1395.09 531.54 1420.53 531.54S1448.54 533.4 1474.83 533.4S1503.34 526.95 1529.14 526.95S1558.35 527.79 1583.44 527.79L1540 857 L-100 857 Z"></animate>
  <animateTransform attributeName="transform" type="translate" dur="22.5s" begin="-2.25s" repeatCount="indefinite" values="0;10;0" calcMode="spline" keySplines="0.3 0 0.7 1;0.3 0 0.7 1"></animateTransform>
</path><path d="M-100 547.48C-70.24 543.12 -70.27 567.86 -44.22 567.86S-14.6 550.37 11.56 550.37S41.21 550.2 67.35 550.2S96 542.75 123.13 542.75S152.53 554.8 178.91 554.8S207.56 557.85 234.69 557.85S264.27 565.44 290.48 565.44S319.11 545.59 346.26 545.59S375.83 567.26 402.04 567.26S431.78 560.05 457.82 560.05S485.74 548.4 513.61 548.4S541.57 558.08 569.39 558.08S598.95 566.93 625.17 566.93S653.12 540.47 680.95 540.47S710.72 561.7 736.73 561.7S765.29 554.62 792.52 554.62S821.13 549.67 848.3 549.67S877.79 557.05 904.08 557.05S933.6 548.51 959.86 548.51S989.51 542.61 1015.65 542.61S1043.99 558.92 1071.43 558.92S1100.86 541.43 1127.21 541.43S1155.59 551.68 1182.99 551.68S1211.82 556.44 1238.78 556.44S1267.3 554.3 1294.56 554.3S1322.7 549.46 1350.34 549.46S1379.76 550.48 1406.12 550.48S1435.82 545.41 1461.9 545.41S1489.93 549.24 1517.69 549.24S1546.42 545.24 1573.47 545.24L1540 857 L-100 857 Z" fill="#3b5658" stroke-width="0">
  <animate attributeName="d" dur="20s" repeatCount="indefinite" values="M-100 547.48C-70.24 543.12 -70.27 567.86 -44.22 567.86S-14.6 550.37 11.56 550.37S41.21 550.2 67.35 550.2S96 542.75 123.13 542.75S152.53 554.8 178.91 554.8S207.56 557.85 234.69 557.85S264.27 565.44 290.48 565.44S319.11 545.59 346.26 545.59S375.83 567.26 402.04 567.26S431.78 560.05 457.82 560.05S485.74 548.4 513.61 548.4S541.57 558.08 569.39 558.08S598.95 566.93 625.17 566.93S653.12 540.47 680.95 540.47S710.72 561.7 736.73 561.7S765.29 554.62 792.52 554.62S821.13 549.67 848.3 549.67S877.79 557.05 904.08 557.05S933.6 548.51 959.86 548.51S989.51 542.61 1015.65 542.61S1043.99 558.92 1071.43 558.92S1100.86 541.43 1127.21 541.43S1155.59 551.68 1182.99 551.68S1211.82 556.44 1238.78 556.44S1267.3 554.3 1294.56 554.3S1322.7 549.46 1350.34 549.46S1379.76 550.48 1406.12 550.48S1435.82 545.41 1461.9 545.41S1489.93 549.24 1517.69 549.24S1546.42 545.24 1573.47 545.24L1540 857 L-100 857 Z;M-100 556.36C-72.03 559.67 -71.18 566.69 -44.22 566.69S-14.47 542.87 11.56 542.87S40.72 567.02 67.35 567.02S97.33 544.32 123.13 544.32S152.46 560.8 178.91 560.8S208.68 543.76 234.69 543.76S263.41 559.28 290.48 559.28S319.78 548.79 346.26 548.79S376.2 553.39 402.04 553.39S430.76 548.62 457.82 548.62S487.45 567.44 513.61 567.44S542.46 552.51 569.39 552.51S599.21 560.67 625.17 560.67S654.66 542.89 680.95 542.89S710.7 560.72 736.73 560.72S766.76 554.89 792.52 554.89S821.24 549.17 848.3 549.17S878.13 559.79 904.08 559.79S932.45 546.39 959.86 546.39S988.87 564.3 1015.65 564.3S1043.99 565.6 1071.43 565.6S1099.62 545.19 1127.21 545.19S1155.19 551.7 1182.99 551.7S1211 547.74 1238.78 547.74S1268.77 556.56 1294.56 556.56S1323.77 554.44 1350.34 554.44S1378.23 566.08 1406.12 566.08S1436.11 544.46 1461.9 544.46S1490.24 554.46 1517.69 554.46S1547.7 547.42 1573.47 547.42L1540 857 L-100 857 Z;M-100 547.48C-70.24 543.12 -70.27 567.86 -44.22 567.86S-14.6 550.37 11.56 550.37S41.21 550.2 67.35 550.2S96 542.75 123.13 542.75S152.53 554.8 178.91 554.8S207.56 557.85 234.69 557.85S264.27 565.44 290.48 565.44S319.11 545.59 346.26 545.59S375.83 567.26 402.04 567.26S431.78 560.05 457.82 560.05S485.74 548.4 513.61 548.4S541.57 558.08 569.39 558.08S598.95 566.93 625.17 566.93S653.12 540.47 680.95 540.47S710.72 561.7 736.73 561.7S765.29 554.62 792.52 554.62S821.13 549.67 848.3 549.67S877.79 557.05 904.08 557.05S933.6 548.51 959.86 548.51S989.51 542.61 1015.65 542.61S1043.99 558.92 1071.43 558.92S1100.86 541.43 1127.21 541.43S1155.59 551.68 1182.99 551.68S1211.82 556.44 1238.78 556.44S1267.3 554.3 1294.56 554.3S1322.7 549.46 1350.34 549.46S1379.76 550.48 1406.12 550.48S1435.82 545.41 1461.9 545.41S1489.93 549.24 1517.69 549.24S1546.42 545.24 1573.47 545.24L1540 857 L-100 857 Z"></animate>
  <animateTransform attributeName="transform" type="translate" dur="20s" begin="-4s" repeatCount="indefinite" values="0;10;0" calcMode="spline" keySplines="0.3 0 0.7 1;0.3 0 0.7 1"></animateTransform>
</path><path d="M-100 569.95C-69.34 566.43 -69.89 575.95 -42.66 575.95S-12.55 572.27 14.69 572.27S43.72 591.04 72.03 591.04S101.34 564.45 129.37 564.45S158.2 589.18 186.71 589.18S215.96 562.35 244.06 562.35S273.09 578.76 301.4 578.76S332.18 573.35 358.74 573.35S388.06 586.22 416.08 586.22S446.19 572.08 473.43 572.08S504.02 594.16 530.77 594.16S560.98 568.48 588.11 568.48S618.59 583.59 645.45 583.59S675.84 568.54 702.8 568.54S731.92 594.58 760.14 594.58S790.47 578.81 817.48 578.81S846.6 584.6 874.83 584.6S905.05 575.4 932.17 575.4S961.71 592.8 989.51 592.8S1018.86 577.95 1046.85 577.95S1075.7 582 1104.2 582S1133.74 573.67 1161.54 573.67S1192.32 595.5 1218.88 595.5S1248.07 570.85 1276.22 570.85S1304.99 578.17 1333.57 578.17S1364.16 562.86 1390.91 562.86S1421.39 593.93 1448.25 593.93S1478.63 570.46 1505.59 570.46S1534.32 563.06 1562.94 563.06L1540 857 L-100 857 Z" fill="#51696b" stroke-width="0">
  <animate attributeName="d" dur="17.5s" repeatCount="indefinite" values="M-100 569.95C-69.34 566.43 -69.89 575.95 -42.66 575.95S-12.55 572.27 14.69 572.27S43.72 591.04 72.03 591.04S101.34 564.45 129.37 564.45S158.2 589.18 186.71 589.18S215.96 562.35 244.06 562.35S273.09 578.76 301.4 578.76S332.18 573.35 358.74 573.35S388.06 586.22 416.08 586.22S446.19 572.08 473.43 572.08S504.02 594.16 530.77 594.16S560.98 568.48 588.11 568.48S618.59 583.59 645.45 583.59S675.84 568.54 702.8 568.54S731.92 594.58 760.14 594.58S790.47 578.81 817.48 578.81S846.6 584.6 874.83 584.6S905.05 575.4 932.17 575.4S961.71 592.8 989.51 592.8S1018.86 577.95 1046.85 577.95S1075.7 582 1104.2 582S1133.74 573.67 1161.54 573.67S1192.32 595.5 1218.88 595.5S1248.07 570.85 1276.22 570.85S1304.99 578.17 1333.57 578.17S1364.16 562.86 1390.91 562.86S1421.39 593.93 1448.25 593.93S1478.63 570.46 1505.59 570.46S1534.32 563.06 1562.94 563.06L1540 857 L-100 857 Z;M-100 570.46C-70.67 574.08 -71.09 589.61 -42.66 589.61S-12.52 583.78 14.69 583.78S43.38 585.03 72.03 585.03S101.58 577.27 129.37 577.27S159.47 591.11 186.71 591.11S216.28 567.08 244.06 567.08S273.5 586.18 301.4 586.18S330.92 570.06 358.74 570.06S388.09 581.29 416.08 581.29S445.95 564.32 473.43 564.32S503.35 587.72 530.77 587.72S560.21 570.78 588.11 570.78S617.65 586.92 645.45 586.92S674.82 565.87 702.8 565.87S732.31 575.01 760.14 575.01S788.87 588.09 817.48 588.09S847.11 583 874.83 583S905.58 568.61 932.17 568.61S962.46 593.8 989.51 593.8S1020.12 567.55 1046.85 567.55S1077.08 590.06 1104.2 590.06S1134.9 583.93 1161.54 583.93S1191.8 583.53 1218.88 583.53S1247.74 575.15 1276.22 575.15S1305.11 583.51 1333.57 583.51S1364.06 581.43 1390.91 581.43S1420.01 588.79 1448.25 588.79S1478.2 567.89 1505.59 567.89S1535.02 569.6 1562.94 569.6L1540 857 L-100 857 Z;M-100 569.95C-69.34 566.43 -69.89 575.95 -42.66 575.95S-12.55 572.27 14.69 572.27S43.72 591.04 72.03 591.04S101.34 564.45 129.37 564.45S158.2 589.18 186.71 589.18S215.96 562.35 244.06 562.35S273.09 578.76 301.4 578.76S332.18 573.35 358.74 573.35S388.06 586.22 416.08 586.22S446.19 572.08 473.43 572.08S504.02 594.16 530.77 594.16S560.98 568.48 588.11 568.48S618.59 583.59 645.45 583.59S675.84 568.54 702.8 568.54S731.92 594.58 760.14 594.58S790.47 578.81 817.48 578.81S846.6 584.6 874.83 584.6S905.05 575.4 932.17 575.4S961.71 592.8 989.51 592.8S1018.86 577.95 1046.85 577.95S1075.7 582 1104.2 582S1133.74 573.67 1161.54 573.67S1192.32 595.5 1218.88 595.5S1248.07 570.85 1276.22 570.85S1304.99 578.17 1333.57 578.17S1364.16 562.86 1390.91 562.86S1421.39 593.93 1448.25 593.93S1478.63 570.46 1505.59 570.46S1534.32 563.06 1562.94 563.06L1540 857 L-100 857 Z"></animate>
  <animateTransform attributeName="transform" type="translate" dur="17.5s" begin="-5.25s" repeatCount="indefinite" values="0;10;0" calcMode="spline" keySplines="0.3 0 0.7 1;0.3 0 0.7 1"></animateTransform>
</path><path d="M-100 621.23C-69.17 607.77 -69.21 606.92 -41.01 606.92S-11.11 594.56 17.99 594.56S49.3 620.89 76.98 620.89S106.69 587.89 135.97 587.89S167.47 611.34 194.96 611.34S224.79 589.77 253.96 589.77S284.21 616.32 312.95 616.32S344.1 601.85 371.94 601.85S401.87 618.33 430.94 618.33S460.66 595.96 489.93 595.96S519.63 608.56 548.92 608.56S580.38 598.5 607.91 598.5S638.66 613.56 666.91 613.56S697 591.43 725.9 591.43S756.96 613.62 784.89 613.62S815.72 586.09 843.88 586.09S875.29 610.43 902.88 610.43S932.8 603.9 961.87 603.9S991.93 586.3 1020.86 586.3S1050.95 586.58 1079.86 586.58S1110.91 618.46 1138.85 618.46S1168.87 596.48 1197.84 596.48S1227.6 613.69 1256.83 613.69S1286.47 599.73 1315.83 599.73S1347.22 602.63 1374.82 602.63S1405.38 597.98 1433.81 597.98S1464.96 613.18 1492.81 613.18S1523.01 609.95 1551.8 609.95L1540 857 L-100 857 Z" fill="#677d7f" stroke-width="0">
  <animate attributeName="d" dur="15s" repeatCount="indefinite" values="M-100 621.23C-69.17 607.77 -69.21 606.92 -41.01 606.92S-11.11 594.56 17.99 594.56S49.3 620.89 76.98 620.89S106.69 587.89 135.97 587.89S167.47 611.34 194.96 611.34S224.79 589.77 253.96 589.77S284.21 616.32 312.95 616.32S344.1 601.85 371.94 601.85S401.87 618.33 430.94 618.33S460.66 595.96 489.93 595.96S519.63 608.56 548.92 608.56S580.38 598.5 607.91 598.5S638.66 613.56 666.91 613.56S697 591.43 725.9 591.43S756.96 613.62 784.89 613.62S815.72 586.09 843.88 586.09S875.29 610.43 902.88 610.43S932.8 603.9 961.87 603.9S991.93 586.3 1020.86 586.3S1050.95 586.58 1079.86 586.58S1110.91 618.46 1138.85 618.46S1168.87 596.48 1197.84 596.48S1227.6 613.69 1256.83 613.69S1286.47 599.73 1315.83 599.73S1347.22 602.63 1374.82 602.63S1405.38 597.98 1433.81 597.98S1464.96 613.18 1492.81 613.18S1523.01 609.95 1551.8 609.95L1540 857 L-100 857 Z;M-100 591.01C-70.17 593.1 -69.52 591.72 -41.01 591.72S-10.01 583.4 17.99 583.4S49.44 609.73 76.98 609.73S107.3 587.52 135.97 587.52S165.53 617.44 194.96 617.44S225.56 619.98 253.96 619.98S284.55 609.06 312.95 609.06S343.23 603.12 371.94 603.12S403.43 609.88 430.94 609.88S460.68 593.01 489.93 593.01S520.54 585.51 548.92 585.51S578.44 592.2 607.91 592.2S638.5 600.65 666.91 600.65S696.83 591.36 725.9 591.36S756.83 601.92 784.89 601.92S816.14 612.19 843.88 612.19S875.27 607.95 902.88 607.95S932.8 587.11 961.87 587.11S991.38 610.27 1020.86 610.27S1050.48 598.81 1079.86 598.81S1110.28 618.02 1138.85 618.02S1168.88 594.3 1197.84 594.3S1228.97 615.62 1256.83 615.62S1286.84 593.7 1315.83 593.7S1345.74 601.08 1374.82 601.08S1404.59 585.98 1433.81 585.98S1465.15 595.26 1492.81 595.26S1523.32 595.7 1551.8 595.7L1540 857 L-100 857 Z;M-100 621.23C-69.17 607.77 -69.21 606.92 -41.01 606.92S-11.11 594.56 17.99 594.56S49.3 620.89 76.98 620.89S106.69 587.89 135.97 587.89S167.47 611.34 194.96 611.34S224.79 589.77 253.96 589.77S284.21 616.32 312.95 616.32S344.1 601.85 371.94 601.85S401.87 618.33 430.94 618.33S460.66 595.96 489.93 595.96S519.63 608.56 548.92 608.56S580.38 598.5 607.91 598.5S638.66 613.56 666.91 613.56S697 591.43 725.9 591.43S756.96 613.62 784.89 613.62S815.72 586.09 843.88 586.09S875.29 610.43 902.88 610.43S932.8 603.9 961.87 603.9S991.93 586.3 1020.86 586.3S1050.95 586.58 1079.86 586.58S1110.91 618.46 1138.85 618.46S1168.87 596.48 1197.84 596.48S1227.6 613.69 1256.83 613.69S1286.47 599.73 1315.83 599.73S1347.22 602.63 1374.82 602.63S1405.38 597.98 1433.81 597.98S1464.96 613.18 1492.81 613.18S1523.01 609.95 1551.8 609.95L1540 857 L-100 857 Z"></animate>
  <animateTransform attributeName="transform" type="translate" dur="15s" begin="-6s" repeatCount="indefinite" values="0;10;0" calcMode="spline" keySplines="0.3 0 0.7 1;0.3 0 0.7 1"></animateTransform>
</path><path d="M-100 617.24C-68.08 612.46 -68.07 635.77 -39.26 635.77S-6.92 617.15 21.48 617.15S53.25 616.75 82.22 616.75S113.38 611.53 142.96 611.53S173.55 609.13 203.7 609.13S235.58 613.27 264.44 613.27S296.88 646.23 325.19 646.23S356.41 612.24 385.93 612.24S418.42 627.92 446.67 627.92S478.99 611.61 507.41 611.61S538.83 641.01 568.15 641.01S600.12 613.26 628.89 613.26S660.71 628.3 689.63 628.3S720.16 605.38 750.37 605.38S782.02 641.91 811.11 641.91S841.64 605.36 871.85 605.36S903.92 643.43 932.59 643.43S965.07 613.37 993.33 613.37S1025.75 645 1054.07 645S1085.58 612.09 1114.81 612.09S1145.28 636.21 1175.56 636.21S1206.46 608.64 1236.3 608.64S1267.83 636.91 1297.04 636.91S1329.36 604.37 1357.78 604.37S1389.99 626 1418.52 626S1449.66 619.81 1479.26 619.81S1509.81 646.98 1540 646.98S1571.9 609.97 1600.74 609.97L1540 857 L-100 857 Z" fill="#7e9193" stroke-width="0">
  <animate attributeName="d" dur="12.5s" repeatCount="indefinite" values="M-100 617.24C-68.08 612.46 -68.07 635.77 -39.26 635.77S-6.92 617.15 21.48 617.15S53.25 616.75 82.22 616.75S113.38 611.53 142.96 611.53S173.55 609.13 203.7 609.13S235.58 613.27 264.44 613.27S296.88 646.23 325.19 646.23S356.41 612.24 385.93 612.24S418.42 627.92 446.67 627.92S478.99 611.61 507.41 611.61S538.83 641.01 568.15 641.01S600.12 613.26 628.89 613.26S660.71 628.3 689.63 628.3S720.16 605.38 750.37 605.38S782.02 641.91 811.11 641.91S841.64 605.36 871.85 605.36S903.92 643.43 932.59 643.43S965.07 613.37 993.33 613.37S1025.75 645 1054.07 645S1085.58 612.09 1114.81 612.09S1145.28 636.21 1175.56 636.21S1206.46 608.64 1236.3 608.64S1267.83 636.91 1297.04 636.91S1329.36 604.37 1357.78 604.37S1389.99 626 1418.52 626S1449.66 619.81 1479.26 619.81S1509.81 646.98 1540 646.98S1571.9 609.97 1600.74 609.97L1540 857 L-100 857 Z;M-100 610.47C-67.73 612.28 -67.91 632.43 -39.26 632.43S-8.47 615.74 21.48 615.74S52.52 635.88 82.22 635.88S112.93 623.84 142.96 623.84S175.48 640.9 203.7 640.9S235 643.34 264.44 643.34S295.65 626.03 325.19 626.03S356.41 621.57 385.93 621.57S417.64 629.67 446.67 629.67S477.59 606.73 507.41 606.73S538.67 644.83 568.15 644.83S599.19 611.37 628.89 611.37S660.59 629.76 689.63 629.76S721.58 617.86 750.37 617.86S781.57 638.82 811.11 638.82S842.92 604.74 871.85 604.74S902.71 645.51 932.59 645.51S964.58 614.95 993.33 614.95S1025.6 645.83 1054.07 645.83S1086.22 609.47 1114.81 609.47S1147.13 643.37 1175.56 643.37S1206.61 630.94 1236.3 630.94S1267.21 633.7 1297.04 633.7S1327.54 610.02 1357.78 610.02S1388.62 608.19 1418.52 608.19S1450.19 619.65 1479.26 619.65S1511.45 641.16 1540 641.16S1570.39 624.01 1600.74 624.01L1540 857 L-100 857 Z;M-100 617.24C-68.08 612.46 -68.07 635.77 -39.26 635.77S-6.92 617.15 21.48 617.15S53.25 616.75 82.22 616.75S113.38 611.53 142.96 611.53S173.55 609.13 203.7 609.13S235.58 613.27 264.44 613.27S296.88 646.23 325.19 646.23S356.41 612.24 385.93 612.24S418.42 627.92 446.67 627.92S478.99 611.61 507.41 611.61S538.83 641.01 568.15 641.01S600.12 613.26 628.89 613.26S660.71 628.3 689.63 628.3S720.16 605.38 750.37 605.38S782.02 641.91 811.11 641.91S841.64 605.36 871.85 605.36S903.92 643.43 932.59 643.43S965.07 613.37 993.33 613.37S1025.75 645 1054.07 645S1085.58 612.09 1114.81 612.09S1145.28 636.21 1175.56 636.21S1206.46 608.64 1236.3 608.64S1267.83 636.91 1297.04 636.91S1329.36 604.37 1357.78 604.37S1389.99 626 1418.52 626S1449.66 619.81 1479.26 619.81S1509.81 646.98 1540 646.98S1571.9 609.97 1600.74 609.97L1540 857 L-100 857 Z"></animate>
  <animateTransform attributeName="transform" type="translate" dur="12.5s" begin="-6.25s" repeatCount="indefinite" values="0;10;0" calcMode="spline" keySplines="0.3 0 0.7 1;0.3 0 0.7 1"></animateTransform>
</path><path d="M-100 629.03C-67.98 634.47 -66.57 628.46 -37.4 628.46S-4.93 626.99 25.19 626.99S56.71 661.72 87.79 661.72S120.69 639.22 150.38 639.22S182.89 667.13 212.98 667.13S246 626.75 275.57 626.75S307.17 659.39 338.17 659.39S371.51 645.46 400.76 645.46S432.98 635.34 463.36 635.34S496.65 643.37 525.95 643.37S557.84 653.7 588.55 653.7S620.49 645.17 651.15 645.17S683.55 626.79 713.74 626.79S747.09 632.98 776.34 632.98S808.79 659.28 838.93 659.28S870.39 641.4 901.53 641.4S933.97 655.5 964.12 655.5S996.41 645.16 1026.72 645.16S1059.1 658.92 1089.31 658.92S1122.34 640.79 1151.91 640.79S1185.17 627.51 1214.5 627.51S1247.59 663.76 1277.1 663.76S1309.18 667.48 1339.69 667.48S1372.18 640.67 1402.29 640.67S1434.17 657.25 1464.89 657.25S1496.25 630.87 1527.48 630.87S1559.41 661.4 1590.08 661.4L1540 857 L-100 857 Z" fill="#95a6a7" stroke-width="0">
  <animate attributeName="d" dur="10s" repeatCount="indefinite" values="M-100 629.03C-67.98 634.47 -66.57 628.46 -37.4 628.46S-4.93 626.99 25.19 626.99S56.71 661.72 87.79 661.72S120.69 639.22 150.38 639.22S182.89 667.13 212.98 667.13S246 626.75 275.57 626.75S307.17 659.39 338.17 659.39S371.51 645.46 400.76 645.46S432.98 635.34 463.36 635.34S496.65 643.37 525.95 643.37S557.84 653.7 588.55 653.7S620.49 645.17 651.15 645.17S683.55 626.79 713.74 626.79S747.09 632.98 776.34 632.98S808.79 659.28 838.93 659.28S870.39 641.4 901.53 641.4S933.97 655.5 964.12 655.5S996.41 645.16 1026.72 645.16S1059.1 658.92 1089.31 658.92S1122.34 640.79 1151.91 640.79S1185.17 627.51 1214.5 627.51S1247.59 663.76 1277.1 663.76S1309.18 667.48 1339.69 667.48S1372.18 640.67 1402.29 640.67S1434.17 657.25 1464.89 657.25S1496.25 630.87 1527.48 630.87S1559.41 661.4 1590.08 661.4L1540 857 L-100 857 Z;M-100 633.91C-67.1 645.86 -66.86 666.77 -37.4 666.77S-5.85 638.52 25.19 638.52S57.12 661.02 87.79 661.02S119.86 626.23 150.38 626.23S182.19 666.82 212.98 666.82S245.54 665.62 275.57 665.62S308.08 627.09 338.17 627.09S371.23 651.53 400.76 651.53S434.11 665.1 463.36 665.1S494.94 666.78 525.95 666.78S557.83 670.65 588.55 670.65S621.12 632.6 651.15 632.6S683.29 665.38 713.74 665.38S745.78 632.64 776.34 632.64S808.47 665.6 838.93 665.6S871.82 629.48 901.53 629.48S932.97 661.54 964.12 661.54S997.04 639.2 1026.72 639.2S1058.79 657.6 1089.31 657.6S1120.64 640.58 1151.91 640.58S1183.58 654.02 1214.5 654.02S1246.84 630.13 1277.1 630.13S1308.72 658.62 1339.69 658.62S1372.46 637.22 1402.29 637.22S1434.7 626.58 1464.89 626.58S1497.24 635.64 1527.48 635.64S1559.06 661.26 1590.08 661.26L1540 857 L-100 857 Z;M-100 629.03C-67.98 634.47 -66.57 628.46 -37.4 628.46S-4.93 626.99 25.19 626.99S56.71 661.72 87.79 661.72S120.69 639.22 150.38 639.22S182.89 667.13 212.98 667.13S246 626.75 275.57 626.75S307.17 659.39 338.17 659.39S371.51 645.46 400.76 645.46S432.98 635.34 463.36 635.34S496.65 643.37 525.95 643.37S557.84 653.7 588.55 653.7S620.49 645.17 651.15 645.17S683.55 626.79 713.74 626.79S747.09 632.98 776.34 632.98S808.79 659.28 838.93 659.28S870.39 641.4 901.53 641.4S933.97 655.5 964.12 655.5S996.41 645.16 1026.72 645.16S1059.1 658.92 1089.31 658.92S1122.34 640.79 1151.91 640.79S1185.17 627.51 1214.5 627.51S1247.59 663.76 1277.1 663.76S1309.18 667.48 1339.69 667.48S1372.18 640.67 1402.29 640.67S1434.17 657.25 1464.89 657.25S1496.25 630.87 1527.48 630.87S1559.41 661.4 1590.08 661.4L1540 857 L-100 857 Z"></animate>
  <animateTransform attributeName="transform" type="translate" dur="10s" begin="-6s" repeatCount="indefinite" values="0;10;0" calcMode="spline" keySplines="0.3 0 0.7 1;0.3 0 0.7 1"></animateTransform>
</path><path d="M-100 683.4C-66.48 697.2 -67.05 683.18 -35.43 683.18S-2.88 664.26 29.13 664.26S62.7 682.25 93.7 682.25S127.44 665.13 158.27 665.13S192.63 697.12 222.83 697.12S256.73 693.49 287.4 693.49S320.45 656.44 351.97 656.44S385.42 661.33 416.54 661.33S449.33 689.5 481.1 689.5S513.5 661.95 545.67 661.95S578.46 652.43 610.24 652.43S643.22 665.6 674.8 665.6S708.45 678.63 739.37 678.63S772.98 665.77 803.94 665.77S837.13 681.39 868.5 681.39S901.09 650.08 933.07 650.08S966.79 668.32 997.64 668.32S1031.79 647.37 1062.2 647.37S1096 679.29 1126.77 679.29S1160.68 659.64 1191.34 659.64S1224.94 661.94 1255.91 661.94S1289.96 647.8 1320.47 647.8S1354.28 691.79 1385.04 691.79S1417.54 653.86 1449.61 653.86S1483.61 680.1 1514.17 680.1S1547.41 685.8 1578.74 685.8L1540 857 L-100 857 Z" fill="#adbcbc" stroke-width="0">
  <animate attributeName="d" dur="7.5s" repeatCount="indefinite" values="M-100 683.4C-66.48 697.2 -67.05 683.18 -35.43 683.18S-2.88 664.26 29.13 664.26S62.7 682.25 93.7 682.25S127.44 665.13 158.27 665.13S192.63 697.12 222.83 697.12S256.73 693.49 287.4 693.49S320.45 656.44 351.97 656.44S385.42 661.33 416.54 661.33S449.33 689.5 481.1 689.5S513.5 661.95 545.67 661.95S578.46 652.43 610.24 652.43S643.22 665.6 674.8 665.6S708.45 678.63 739.37 678.63S772.98 665.77 803.94 665.77S837.13 681.39 868.5 681.39S901.09 650.08 933.07 650.08S966.79 668.32 997.64 668.32S1031.79 647.37 1062.2 647.37S1096 679.29 1126.77 679.29S1160.68 659.64 1191.34 659.64S1224.94 661.94 1255.91 661.94S1289.96 647.8 1320.47 647.8S1354.28 691.79 1385.04 691.79S1417.54 653.86 1449.61 653.86S1483.61 680.1 1514.17 680.1S1547.41 685.8 1578.74 685.8L1540 857 L-100 857 Z;M-100 660.94C-66.45 664.35 -66.66 696.28 -35.43 696.28S-1.46 653.16 29.13 653.16S63.43 682.03 93.7 682.03S128.03 649.06 158.27 649.06S190.92 665.36 222.83 665.36S255.6 665.99 287.4 665.99S319.73 694.18 351.97 694.18S384.36 664.96 416.54 664.96S449.57 688.06 481.1 688.06S513.49 651.29 545.67 651.29S578.16 683.63 610.24 683.63S643.09 666.61 674.8 666.61S707.86 696.68 739.37 696.68S773.62 647.13 803.94 647.13S836.78 664.82 868.5 664.82S902.68 648.39 933.07 648.39S966.71 677.59 997.64 677.59S1029.96 653.11 1062.2 653.11S1094.64 691.35 1126.77 691.35S1160.95 658.78 1191.34 658.78S1224.64 696.17 1255.91 696.17S1289.88 662.98 1320.47 662.98S1352.77 654.01 1385.04 654.01S1417.47 649.57 1449.61 649.57S1482.62 688.58 1514.17 688.58S1548.36 660.39 1578.74 660.39L1540 857 L-100 857 Z;M-100 683.4C-66.48 697.2 -67.05 683.18 -35.43 683.18S-2.88 664.26 29.13 664.26S62.7 682.25 93.7 682.25S127.44 665.13 158.27 665.13S192.63 697.12 222.83 697.12S256.73 693.49 287.4 693.49S320.45 656.44 351.97 656.44S385.42 661.33 416.54 661.33S449.33 689.5 481.1 689.5S513.5 661.95 545.67 661.95S578.46 652.43 610.24 652.43S643.22 665.6 674.8 665.6S708.45 678.63 739.37 678.63S772.98 665.77 803.94 665.77S837.13 681.39 868.5 681.39S901.09 650.08 933.07 650.08S966.79 668.32 997.64 668.32S1031.79 647.37 1062.2 647.37S1096 679.29 1126.77 679.29S1160.68 659.64 1191.34 659.64S1224.94 661.94 1255.91 661.94S1289.96 647.8 1320.47 647.8S1354.28 691.79 1385.04 691.79S1417.54 653.86 1449.61 653.86S1483.61 680.1 1514.17 680.1S1547.41 685.8 1578.74 685.8L1540 857 L-100 857 Z"></animate>
  <animateTransform attributeName="transform" type="translate" dur="7.5s" begin="-5.25s" repeatCount="indefinite" values="0;10;0" calcMode="spline" keySplines="0.3 0 0.7 1;0.3 0 0.7 1"></animateTransform>
</path><path d="M-100 683.3C-65.6 688.28 -64.74 683.77 -33.33 683.77S2.06 675.35 33.33 675.35S68.76 707.34 100 707.34S134.85 687.95 166.67 687.95S201.48 673.67 233.33 673.67S268.67 721.98 300 721.98S333.54 688.21 366.67 688.21S401.55 679.27 433.33 679.27S468.29 703.35 500 703.35S533.65 721.17 566.67 721.17S601.66 709.67 633.33 709.67S668.2 681.62 700 681.62S734.29 722.58 766.67 722.58S800.02 686.26 833.33 686.26S868.6 715.56 900 715.56S935.02 688.97 966.67 688.97S1001.7 711.4 1033.33 711.4S1067.12 689.54 1100 689.54S1133.75 712.11 1166.67 712.11S1200.65 671.18 1233.33 671.18S1268 715.3 1300 715.3S1334.67 683.32 1366.67 683.32S1400.18 670.48 1433.33 670.48S1467.64 674.96 1500 674.96S1533.54 718.26 1566.67 718.26L1540 857 L-100 857 Z" fill="#c6d2d2" stroke-width="0">
  <animate attributeName="d" dur="5s" repeatCount="indefinite" values="M-100 683.3C-65.6 688.28 -64.74 683.77 -33.33 683.77S2.06 675.35 33.33 675.35S68.76 707.34 100 707.34S134.85 687.95 166.67 687.95S201.48 673.67 233.33 673.67S268.67 721.98 300 721.98S333.54 688.21 366.67 688.21S401.55 679.27 433.33 679.27S468.29 703.35 500 703.35S533.65 721.17 566.67 721.17S601.66 709.67 633.33 709.67S668.2 681.62 700 681.62S734.29 722.58 766.67 722.58S800.02 686.26 833.33 686.26S868.6 715.56 900 715.56S935.02 688.97 966.67 688.97S1001.7 711.4 1033.33 711.4S1067.12 689.54 1100 689.54S1133.75 712.11 1166.67 712.11S1200.65 671.18 1233.33 671.18S1268 715.3 1300 715.3S1334.67 683.32 1366.67 683.32S1400.18 670.48 1433.33 670.48S1467.64 674.96 1500 674.96S1533.54 718.26 1566.67 718.26L1540 857 L-100 857 Z;M-100 678.24C-66.12 682.69 -66.31 708.14 -33.33 708.14S0.12 680.62 33.33 680.62S67.38 703.38 100 703.38S133.41 703.71 166.67 703.71S200.32 719.57 233.33 719.57S268.65 686.07 300 686.07S335.2 708.46 366.67 708.46S401.41 676.12 433.33 676.12S468.42 707.91 500 707.91S535.02 676.1 566.67 676.1S602.12 718.79 633.33 718.79S667.76 723.2 700 723.2S734.22 708.39 766.67 708.39S800.43 678.13 833.33 678.13S867.34 677.65 900 677.65S933.37 676.11 966.67 676.11S1000.95 719.17 1033.33 719.17S1068.23 669.56 1100 669.56S1133.75 675.87 1166.67 675.87S1201.85 669.87 1233.33 669.87S1268.81 713.25 1300 713.25S1334.15 679.48 1366.67 679.48S1401.24 724 1433.33 724S1467.44 689.03 1500 689.03S1534.67 704.11 1566.67 704.11L1540 857 L-100 857 Z;M-100 683.3C-65.6 688.28 -64.74 683.77 -33.33 683.77S2.06 675.35 33.33 675.35S68.76 707.34 100 707.34S134.85 687.95 166.67 687.95S201.48 673.67 233.33 673.67S268.67 721.98 300 721.98S333.54 688.21 366.67 688.21S401.55 679.27 433.33 679.27S468.29 703.35 500 703.35S533.65 721.17 566.67 721.17S601.66 709.67 633.33 709.67S668.2 681.62 700 681.62S734.29 722.58 766.67 722.58S800.02 686.26 833.33 686.26S868.6 715.56 900 715.56S935.02 688.97 966.67 688.97S1001.7 711.4 1033.33 711.4S1067.12 689.54 1100 689.54S1133.75 712.11 1166.67 712.11S1200.65 671.18 1233.33 671.18S1268 715.3 1300 715.3S1334.67 683.32 1366.67 683.32S1400.18 670.48 1433.33 670.48S1467.64 674.96 1500 674.96S1533.54 718.26 1566.67 718.26L1540 857 L-100 857 Z"></animate>
  <animateTransform attributeName="transform" type="translate" dur="5s" begin="-4s" repeatCount="indefinite" values="0;10;0" calcMode="spline" keySplines="0.3 0 0.7 1;0.3 0 0.7 1"></animateTransform>
</path><path d="M-100 692.98C-64.5 704.48 -64.96 730.02 -31.09 730.02S4.44 749.2 37.82 749.2S72.34 691.92 106.72 691.92S141.84 702.84 175.63 702.84S210.18 744.05 244.54 744.05S279.05 700.65 313.45 700.65S348.86 729.03 382.35 729.03S417.69 734.96 451.26 734.96S486.04 748 520.17 748S555.9 691.32 589.08 691.32S623.72 748.38 657.98 748.38S694.51 692.53 726.89 692.53S762.51 738.69 795.8 738.69S831.07 697.81 864.71 697.81S899.18 742.97 933.61 742.97S969.72 733.18 1002.52 733.18S1037.98 748.82 1071.43 748.82S1106.17 702.71 1140.34 702.71S1176.41 743.98 1209.24 743.98S1244.29 699.87 1278.15 699.87S1314.43 693.65 1347.06 693.65S1381.74 696.46 1415.97 696.46S1452.51 748.52 1484.87 748.52S1521.02 695.66 1553.78 695.66L1540 857 L-100 857 Z" fill="#dfe8e8" stroke-width="0">
  <animate attributeName="d" dur="2.5s" repeatCount="indefinite" values="M-100 692.98C-64.5 704.48 -64.96 730.02 -31.09 730.02S4.44 749.2 37.82 749.2S72.34 691.92 106.72 691.92S141.84 702.84 175.63 702.84S210.18 744.05 244.54 744.05S279.05 700.65 313.45 700.65S348.86 729.03 382.35 729.03S417.69 734.96 451.26 734.96S486.04 748 520.17 748S555.9 691.32 589.08 691.32S623.72 748.38 657.98 748.38S694.51 692.53 726.89 692.53S762.51 738.69 795.8 738.69S831.07 697.81 864.71 697.81S899.18 742.97 933.61 742.97S969.72 733.18 1002.52 733.18S1037.98 748.82 1071.43 748.82S1106.17 702.71 1140.34 702.71S1176.41 743.98 1209.24 743.98S1244.29 699.87 1278.15 699.87S1314.43 693.65 1347.06 693.65S1381.74 696.46 1415.97 696.46S1452.51 748.52 1484.87 748.52S1521.02 695.66 1553.78 695.66L1540 857 L-100 857 Z;M-100 711.03C-63.84 694.8 -63.73 731.12 -31.09 731.12S3.85 698.3 37.82 698.3S73.62 731.1 106.72 731.1S141.43 691.55 175.63 691.55S210.27 737.86 244.54 737.86S279.23 698.88 313.45 698.88S348.97 743.7 382.35 743.7S416.94 692.19 451.26 692.19S486.89 735.48 520.17 735.48S555.42 701.59 589.08 701.59S624.5 744.74 657.98 744.74S693.32 710.41 726.89 710.41S763.45 739.63 795.8 739.63S831.78 706.85 864.71 706.85S899.74 729.95 933.61 729.95S969.78 697.88 1002.52 697.88S1038.12 743.76 1071.43 743.76S1106.74 694.32 1140.34 694.32S1175.55 735.82 1209.24 735.82S1245.6 746.48 1278.15 746.48S1314.63 741.79 1347.06 741.79S1382.67 705.27 1415.97 705.27S1452.17 736.92 1484.87 736.92S1520.75 697.86 1553.78 697.86L1540 857 L-100 857 Z;M-100 692.98C-64.5 704.48 -64.96 730.02 -31.09 730.02S4.44 749.2 37.82 749.2S72.34 691.92 106.72 691.92S141.84 702.84 175.63 702.84S210.18 744.05 244.54 744.05S279.05 700.65 313.45 700.65S348.86 729.03 382.35 729.03S417.69 734.96 451.26 734.96S486.04 748 520.17 748S555.9 691.32 589.08 691.32S623.72 748.38 657.98 748.38S694.51 692.53 726.89 692.53S762.51 738.69 795.8 738.69S831.07 697.81 864.71 697.81S899.18 742.97 933.61 742.97S969.72 733.18 1002.52 733.18S1037.98 748.82 1071.43 748.82S1106.17 702.71 1140.34 702.71S1176.41 743.98 1209.24 743.98S1244.29 699.87 1278.15 699.87S1314.43 693.65 1347.06 693.65S1381.74 696.46 1415.97 696.46S1452.51 748.52 1484.87 748.52S1521.02 695.66 1553.78 695.66L1540 857 L-100 857 Z"></animate>
  <animateTransform attributeName="transform" type="translate" dur="2.5s" begin="-2.25s" repeatCount="indefinite" values="0;10;0" calcMode="spline" keySplines="0.3 0 0.7 1;0.3 0 0.7 1"></animateTransform>
</path></g>
</svg>