<?xml version="1.0" encoding="utf-8"?>
<svg xmlns="http://www.w3.org/2000/svg" xmlns:xlink="http://www.w3.org/1999/xlink" style="margin: auto; background: rgb(47, 62, 70); display: block; z-index: 1; position: relative; shape-rendering: auto;" preserveAspectRatio="xMidYMid" viewBox="0 0 1440 1099">
<g transform="translate(720,549.5) scale(1,1) translate(-720,-549.5)"><path d="M-100 650.21C-71.95 637.44 -73.27 653.07 -47.1 653.07S-19.9 643.16 5.81 643.16S33.76 647.97 58.71 647.97S87.09 660.6 111.61 660.6S139.95 646.28 164.52 646.28S192.86 640.56 217.42 640.56S244.94 654.62 270.32 654.62S297.19 638.27 323.23 638.27S351.27 643.08 376.13 643.08S403.19 646.53 429.03 646.53S455.98 650.93 481.94 650.93S509.18 657.52 534.84 657.52S563.99 647.28 587.74 647.28S614.47 654.2 640.65 654.2S668.53 658.12 693.55 658.12S721.38 647.31 746.45 647.31S775.04 650.14 799.35 650.14S826.01 663.17 852.26 663.17S881.2 661.57 905.16 661.57S932.95 642.68 958.06 642.68S986.84 645.42 1010.97 645.42S1037.58 640.43 1063.87 640.43S1090.99 645.89 1116.77 645.89S1144.27 660.06 1169.68 660.06S1197.68 658.92 1222.58 658.92S1251.27 649.92 1275.48 649.92S1304.59 639.96 1328.39 639.96S1355.96 658.11 1381.29 658.11S1408.26 642.8 1434.19 642.8S1462.82 650.89 1487.1 650.89S1513.93 658.92 1540 658.92S1567.12 655.96 1592.9 655.96L1540 1099 L-100 1099 Z" fill="#354f52" stroke-width="0">
  <animate attributeName="d" dur="25s" repeatCount="indefinite" values="M-100 650.21C-71.95 637.44 -73.27 653.07 -47.1 653.07S-19.9 643.16 5.81 643.16S33.76 647.97 58.71 647.97S87.09 660.6 111.61 660.6S139.95 646.28 164.52 646.28S192.86 640.56 217.42 640.56S244.94 654.62 270.32 654.62S297.19 638.27 323.23 638.27S351.27 643.08 376.13 643.08S403.19 646.53 429.03 646.53S455.98 650.93 481.94 650.93S509.18 657.52 534.84 657.52S563.99 647.28 587.74 647.28S614.47 654.2 640.65 654.2S668.53 658.12 693.55 658.12S721.38 647.31 746.45 647.31S775.04 650.14 799.35 650.14S826.01 663.17 852.26 663.17S881.2 661.57 905.16 661.57S932.95 642.68 958.06 642.68S986.84 645.42 1010.97 645.42S1037.58 640.43 1063.87 640.43S1090.99 645.89 1116.77 645.89S1144.27 660.06 1169.68 660.06S1197.68 658.92 1222.58 658.92S1251.27 649.92 1275.48 649.92S1304.59 639.96 1328.39 639.96S1355.96 658.11 1381.29 658.11S1408.26 642.8 1434.19 642.8S1462.82 650.89 1487.1 650.89S1513.93 658.92 1540 658.92S1567.12 655.96 1592.9 655.96L1540 1099 L-100 1099 Z;M-100 652.53C-72.3 638.14 -71.75 663.51 -47.1 663.51S-18.15 653.49 5.81 653.49S34.16 640.07 58.71 640.07S87.58 662.15 111.61 662.15S140.61 643.82 164.52 643.82S193.12 651.43 217.42 651.43S246.51 656.22 270.32 656.22S299.21 664.74 323.23 664.74S349.89 646.56 376.13 646.56S404.27 652.73 429.03 652.73S457.31 650.05 481.94 650.05S509.77 659.8 534.84 659.8S561.88 646.24 587.74 646.24S615.47 647.92 640.65 647.92S668.93 653.5 693.55 653.5S722.21 638.36 746.45 638.36S774.77 656.76 799.35 656.76S827.01 656.75 852.26 656.75S880.43 656.7 905.16 656.7S934.36 652.37 958.06 652.37S985.24 649.21 1010.97 649.21S1037.54 655.96 1063.87 655.96S1091.73 639.27 1116.77 639.27S1143.56 654.25 1169.68 654.25S1196.71 651.67 1222.58 651.67S1250.88 641.29 1275.48 641.29S1303.03 656.88 1328.39 656.88S1354.91 656.93 1381.29 656.93S1409.01 655.2 1434.19 655.2S1462.85 642.64 1487.1 642.64S1515.69 658.92 1540 658.92S1567.28 646.27 1592.9 646.27L1540 1099 L-100 1099 Z;M-100 650.21C-71.95 637.44 -73.27 653.07 -47.1 653.07S-19.9 643.16 5.81 643.16S33.76 647.97 58.71 647.97S87.09 660.6 111.61 660.6S139.95 646.28 164.52 646.28S192.86 640.56 217.42 640.56S244.94 654.62 270.32 654.62S297.19 638.27 323.23 638.27S351.27 643.08 376.13 643.08S403.19 646.53 429.03 646.53S455.98 650.93 481.94 650.93S509.18 657.52 534.84 657.52S563.99 647.28 587.74 647.28S614.47 654.2 640.65 654.2S668.53 658.12 693.55 658.12S721.38 647.31 746.45 647.31S775.04 650.14 799.35 650.14S826.01 663.17 852.26 663.17S881.2 661.57 905.16 661.57S932.95 642.68 958.06 642.68S986.84 645.42 1010.97 645.42S1037.58 640.43 1063.87 640.43S1090.99 645.89 1116.77 645.89S1144.27 660.06 1169.68 660.06S1197.68 658.92 1222.58 658.92S1251.27 649.92 1275.48 649.92S1304.59 639.96 1328.39 639.96S1355.96 658.11 1381.29 658.11S1408.26 642.8 1434.19 642.8S1462.82 650.89 1487.1 650.89S1513.93 658.92 1540 658.92S1567.12 655.96 1592.9 655.96L1540 1099 L-100 1099 Z"></animate>
  <animateTransform attributeName="transform" type="translate" dur="25s" begin="0s" repeatCount="indefinite" values="0;10;0" calcMode="spline" keySplines="0.3 0 0.7 1;0.3 0 0.7 1"></animateTransform>
</path><path d="M-100 689.07C-72.63 674.98 -70.57 688.47 -45.7 688.47S-18.17 671.85 8.61 671.85S38.33 689.64 62.91 689.64S90.76 683.02 117.22 683.02S145.93 678.46 171.52 678.46S200.07 679.67 225.83 679.67S253.96 680.95 280.13 680.95S309.34 668.44 334.44 668.44S363.04 684.16 388.74 684.16S417.92 664.94 443.05 664.94S471.53 683.44 497.35 683.44S525.83 668.07 551.66 668.07S579.63 678.31 605.96 678.31S635.1 670.53 660.26 670.53S689.93 677.78 714.57 677.78S743.32 680.11 768.87 680.11S796.1 670.41 823.18 670.41S850.59 688.67 877.48 688.67S906.89 690.3 931.79 690.3S958.98 691.16 986.09 691.16S1014.46 679.04 1040.4 679.04S1068.04 691.91 1094.7 691.91S1124.38 689.56 1149.01 689.56S1178.69 691.8 1203.31 691.8S1231.99 678.98 1257.62 678.98S1285.68 678.04 1311.92 678.04S1340.58 695.69 1366.23 695.69S1394.92 668.42 1420.53 668.42S1448.06 691.28 1474.83 691.28S1502.34 676.79 1529.14 676.79S1558.45 695.72 1583.44 695.72L1540 1099 L-100 1099 Z" fill="#475f61" stroke-width="0">
  <animate attributeName="d" dur="22.5s" repeatCount="indefinite" values="M-100 689.07C-72.63 674.98 -70.57 688.47 -45.7 688.47S-18.17 671.85 8.61 671.85S38.33 689.64 62.91 689.64S90.76 683.02 117.22 683.02S145.93 678.46 171.52 678.46S200.07 679.67 225.83 679.67S253.96 680.95 280.13 680.95S309.34 668.44 334.44 668.44S363.04 684.16 388.74 684.16S417.92 664.94 443.05 664.94S471.53 683.44 497.35 683.44S525.83 668.07 551.66 668.07S579.63 678.31 605.96 678.31S635.1 670.53 660.26 670.53S689.93 677.78 714.57 677.78S743.32 680.11 768.87 680.11S796.1 670.41 823.18 670.41S850.59 688.67 877.48 688.67S906.89 690.3 931.79 690.3S958.98 691.16 986.09 691.16S1014.46 679.04 1040.4 679.04S1068.04 691.91 1094.7 691.91S1124.38 689.56 1149.01 689.56S1178.69 691.8 1203.31 691.8S1231.99 678.98 1257.62 678.98S1285.68 678.04 1311.92 678.04S1340.58 695.69 1366.23 695.69S1394.92 668.42 1420.53 668.42S1448.06 691.28 1474.83 691.28S1502.34 676.79 1529.14 676.79S1558.45 695.72 1583.44 695.72L1540 1099 L-100 1099 Z;M-100 673.58C-72.08 685.66 -71.75 679.04 -45.7 679.04S-17.22 688.69 8.61 688.69S35.82 685.09 62.91 685.09S91.76 684.09 117.22 684.09S146.27 696.96 171.52 696.96S199.74 681.47 225.83 681.47S254.52 691.36 280.13 691.36S308.9 679.3 334.44 679.3S363.96 688.8 388.74 688.8S417.41 665.56 443.05 665.56S470.43 685.05 497.35 685.05S525.85 675.13 551.66 675.13S581.02 689.77 605.96 689.77S633.68 665.13 660.26 665.13S687.87 694.98 714.57 694.98S743.47 680.94 768.87 680.94S796.71 696.35 823.18 696.35S852.88 691.76 877.48 691.76S907.32 697.66 931.79 697.66S960.33 674.64 986.09 674.64S1014.84 676.66 1040.4 676.66S1070.2 666.99 1094.7 666.99S1122.18 673.39 1149.01 673.39S1178.43 675.8 1203.31 675.8S1233.19 685.13 1257.62 685.13S1286.84 671.86 1311.92 671.86S1341.29 681.13 1366.23 681.13S1393.73 691.26 1420.53 691.26S1447.88 671.75 1474.83 671.75S1503.62 680.85 1529.14 680.85S1557.77 676.23 1583.44 676.23L1540 1099 L-100 1099 Z;M-100 689.07C-72.63 674.98 -70.57 688.47 -45.7 688.47S-18.17 671.85 8.61 671.85S38.33 689.64 62.91 689.64S90.76 683.02 117.22 683.02S145.93 678.46 171.52 678.46S200.07 679.67 225.83 679.67S253.96 680.95 280.13 680.95S309.34 668.44 334.44 668.44S363.04 684.16 388.74 684.16S417.92 664.94 443.05 664.94S471.53 683.44 497.35 683.44S525.83 668.07 551.66 668.07S579.63 678.31 605.96 678.31S635.1 670.53 660.26 670.53S689.93 677.78 714.57 677.78S743.32 680.11 768.87 680.11S796.1 670.41 823.18 670.41S850.59 688.67 877.48 688.67S906.89 690.3 931.79 690.3S958.98 691.16 986.09 691.16S1014.46 679.04 1040.4 679.04S1068.04 691.91 1094.7 691.91S1124.38 689.56 1149.01 689.56S1178.69 691.8 1203.31 691.8S1231.99 678.98 1257.62 678.98S1285.68 678.04 1311.92 678.04S1340.58 695.69 1366.23 695.69S1394.92 668.42 1420.53 668.42S1448.06 691.28 1474.83 691.28S1502.34 676.79 1529.14 676.79S1558.45 695.72 1583.44 695.72L1540 1099 L-100 1099 Z"></animate>
  <animateTransform attributeName="transform" type="translate" dur="22.5s" begin="-2.25s" repeatCount="indefinite" values="0;10;0" calcMode="spline" keySplines="0.3 0 0.7 1;0.3 0 0.7 1"></animateTransform>
</path><path d="M-100 727.26C-69.81 708.89 -71.48 721.72 -44.22 721.72S-16.1 704.49 11.56 704.49S39.9 730 67.35 730S96.26 726.25 123.13 726.25S152.83 703.04 178.91 703.04S207.57 722.99 234.69 722.99S263.03 727.95 290.48 727.95S320.85 708.56 346.26 708.56S375.83 724.28 402.04 724.28S430.44 702.6 457.82 702.6S488.26 715.36 513.61 715.36S544.23 716.89 569.39 716.89S599.64 709.51 625.17 709.51S653.25 694.81 680.95 694.81S709.55 723.28 736.73 723.28S766.7 694.39 792.52 694.39S822.85 708.54 848.3 708.54S877.63 718.01 904.08 718.01S934.48 716.41 959.86 716.41S990.07 701.71 1015.65 701.71S1044.1 704.31 1071.43 704.31S1100.43 693.33 1127.21 693.33S1155.11 722.07 1182.99 722.07S1213.5 703.7 1238.78 703.7S1268.75 712.98 1294.56 712.98S1323.49 702.04 1350.34 702.04S1380.65 720.49 1406.12 720.49S1436.62 719.19 1461.9 719.19S1489.97 712.76 1517.69 712.76S1546.28 706.99 1573.47 706.99L1540 1099 L-100 1099 Z" fill="#596f71" stroke-width="0">
  <animate attributeName="d" dur="20s" repeatCount="indefinite" values="M-100 727.26C-69.81 708.89 -71.48 721.72 -44.22 721.72S-16.1 704.49 11.56 704.49S39.9 730 67.35 730S96.26 726.25 123.13 726.25S152.83 703.04 178.91 703.04S207.57 722.99 234.69 722.99S263.03 727.95 290.48 727.95S320.85 708.56 346.26 708.56S375.83 724.28 402.04 724.28S430.44 702.6 457.82 702.6S488.26 715.36 513.61 715.36S544.23 716.89 569.39 716.89S599.64 709.51 625.17 709.51S653.25 694.81 680.95 694.81S709.55 723.28 736.73 723.28S766.7 694.39 792.52 694.39S822.85 708.54 848.3 708.54S877.63 718.01 904.08 718.01S934.48 716.41 959.86 716.41S990.07 701.71 1015.65 701.71S1044.1 704.31 1071.43 704.31S1100.43 693.33 1127.21 693.33S1155.11 722.07 1182.99 722.07S1213.5 703.7 1238.78 703.7S1268.75 712.98 1294.56 712.98S1323.49 702.04 1350.34 702.04S1380.65 720.49 1406.12 720.49S1436.62 719.19 1461.9 719.19S1489.97 712.76 1517.69 712.76S1546.28 706.99 1573.47 706.99L1540 1099 L-100 1099 Z;M-100 709.33C-71.56 715.14 -69.48 699.07 -44.22 699.07S-14.93 693.5 11.56 693.5S40.53 707.96 67.35 707.96S95.84 692.93 123.13 692.93S152.73 695.98 178.91 695.98S209.46 699.4 234.69 699.4S262.71 713.81 290.48 713.81S319.38 693.69 346.26 693.69S374.22 714.34 402.04 714.34S429.98 713.76 457.82 713.76S486.42 693.53 513.61 693.53S541.66 694.62 569.39 694.62S597.98 716.5 625.17 716.5S654.36 712.18 680.95 712.18S710.12 721.82 736.73 721.82S765.08 709.23 792.52 709.23S820.91 724.96 848.3 724.96S877.91 695.15 904.08 695.15S933.02 712.69 959.86 712.69S988.45 698.23 1015.65 698.23S1044.82 714.42 1071.43 714.42S1100.94 724.87 1127.21 724.87S1156.92 708.13 1182.99 708.13S1211.68 695.88 1238.78 695.88S1266.68 723.37 1294.56 723.37S1324.54 713.11 1350.34 713.11S1379.51 727.68 1406.12 727.68S1436.15 704.73 1461.9 704.73S1489.85 727.29 1517.69 727.29S1546.61 695.76 1573.47 695.76L1540 1099 L-100 1099 Z;M-100 727.26C-69.81 708.89 -71.48 721.72 -44.22 721.72S-16.1 704.49 11.56 704.49S39.9 730 67.35 730S96.26 726.25 123.13 726.25S152.83 703.04 178.91 703.04S207.57 722.99 234.69 722.99S263.03 727.95 290.48 727.95S320.85 708.56 346.26 708.56S375.83 724.28 402.04 724.28S430.44 702.6 457.82 702.6S488.26 715.36 513.61 715.36S544.23 716.89 569.39 716.89S599.64 709.51 625.17 709.51S653.25 694.81 680.95 694.81S709.55 723.28 736.73 723.28S766.7 694.39 792.52 694.39S822.85 708.54 848.3 708.54S877.63 718.01 904.08 718.01S934.48 716.41 959.86 716.41S990.07 701.71 1015.65 701.71S1044.1 704.31 1071.43 704.31S1100.43 693.33 1127.21 693.33S1155.11 722.07 1182.99 722.07S1213.5 703.7 1238.78 703.7S1268.75 712.98 1294.56 712.98S1323.49 702.04 1350.34 702.04S1380.65 720.49 1406.12 720.49S1436.62 719.19 1461.9 719.19S1489.97 712.76 1517.69 712.76S1546.28 706.99 1573.47 706.99L1540 1099 L-100 1099 Z"></animate>
  <animateTransform attributeName="transform" type="translate" dur="20s" begin="-4s" repeatCount="indefinite" values="0;10;0" calcMode="spline" keySplines="0.3 0 0.7 1;0.3 0 0.7 1"></animateTransform>
</path><path d="M-100 734.17C-68.63 730.89 -70.41 741.32 -42.66 741.32S-13.26 755.51 14.69 755.51S45.24 754.32 72.03 754.32S103.17 759.49 129.37 759.49S158.13 741.61 186.71 741.61S216.37 736.62 244.06 736.62S275.08 739.28 301.4 739.28S331.45 741.61 358.74 741.61S388.1 739.42 416.08 739.42S447.07 747.03 473.43 747.03S503.16 745.4 530.77 745.4S561.49 739.54 588.11 739.54S618.89 749.71 645.45 749.71S676.25 756.61 702.8 756.61S731.79 730.93 760.14 730.93S791.14 734.67 817.48 734.67S846.43 731.9 874.83 731.9S903.8 720.6 932.17 720.6S963.05 754.32 989.51 754.32S1019.96 739.84 1046.85 739.84S1076.24 755.46 1104.2 755.46S1134.16 738.67 1161.54 738.67S1190.4 748.44 1218.88 748.44S1248.59 736.67 1276.22 736.67S1306.64 738.67 1333.57 738.67S1364.06 737.46 1390.91 737.46S1421.75 739.69 1448.25 739.69S1478.64 731.49 1505.59 731.49S1536.23 742.66 1562.94 742.66L1540 1099 L-100 1099 Z" fill="#6b8082" stroke-width="0">
  <animate attributeName="d" dur="17.5s" repeatCount="indefinite" values="M-100 734.17C-68.63 730.89 -70.41 741.32 -42.66 741.32S-13.26 755.51 14.69 755.51S45.24 754.32 72.03 754.32S103.17 759.49 129.37 759.49S158.13 741.61 186.71 741.61S216.37 736.62 244.06 736.62S275.08 739.28 301.4 739.28S331.45 741.61 358.74 741.61S388.1 739.42 416.08 739.42S447.07 747.03 473.43 747.03S503.16 745.4 530.77 745.4S561.49 739.54 588.11 739.54S618.89 749.71 645.45 749.71S676.25 756.61 702.8 756.61S731.79 730.93 760.14 730.93S791.14 734.67 817.48 734.67S846.43 731.9 874.83 731.9S903.8 720.6 932.17 720.6S963.05 754.32 989.51 754.32S1019.96 739.84 1046.85 739.84S1076.24 755.46 1104.2 755.46S1134.16 738.67 1161.54 738.67S1190.4 748.44 1218.88 748.44S1248.59 736.67 1276.22 736.67S1306.64 738.67 1333.57 738.67S1364.06 737.46 1390.91 737.46S1421.75 739.69 1448.25 739.69S1478.64 731.49 1505.59 731.49S1536.23 742.66 1562.94 742.66L1540 1099 L-100 1099 Z;M-100 729.73C-70.76 745.3 -68.95 751.82 -42.66 751.82S-12.9 742.99 14.69 742.99S43.95 740.39 72.03 740.39S103.21 728 129.37 728S159.33 744.22 186.71 744.22S217.18 736.57 244.06 736.57S274.36 747.18 301.4 747.18S330.74 742.16 358.74 742.16S388.29 741.41 416.08 741.41S445.47 725.71 473.43 725.71S503.01 755.78 530.77 755.78S560.75 722.77 588.11 722.77S617.53 739.56 645.45 739.56S675.97 746.82 702.8 746.82S732.61 742.63 760.14 742.63S789.37 745.05 817.48 745.05S848.8 743.35 874.83 743.35S905.45 743.35 932.17 743.35S962.49 758.99 989.51 758.99S1019.21 728.6 1046.85 728.6S1077.95 760.68 1104.2 760.68S1134.32 730.69 1161.54 730.69S1190.85 741.95 1218.88 741.95S1248.85 747.08 1276.22 747.08S1307.59 763.37 1333.57 763.37S1364.24 724.64 1390.91 724.64S1420.95 759.27 1448.25 759.27S1477.12 760.79 1505.59 760.79S1535.63 751.02 1562.94 751.02L1540 1099 L-100 1099 Z;M-100 734.17C-68.63 730.89 -70.41 741.32 -42.66 741.32S-13.26 755.51 14.69 755.51S45.24 754.32 72.03 754.32S103.17 759.49 129.37 759.49S158.13 741.61 186.71 741.61S216.37 736.62 244.06 736.62S275.08 739.28 301.4 739.28S331.45 741.61 358.74 741.61S388.1 739.42 416.08 739.42S447.07 747.03 473.43 747.03S503.16 745.4 530.77 745.4S561.49 739.54 588.11 739.54S618.89 749.71 645.45 749.71S676.25 756.61 702.8 756.61S731.79 730.93 760.14 730.93S791.14 734.67 817.48 734.67S846.43 731.9 874.83 731.9S903.8 720.6 932.17 720.6S963.05 754.32 989.51 754.32S1019.96 739.84 1046.85 739.84S1076.24 755.46 1104.2 755.46S1134.16 738.67 1161.54 738.67S1190.4 748.44 1218.88 748.44S1248.59 736.67 1276.22 736.67S1306.64 738.67 1333.57 738.67S1364.06 737.46 1390.91 737.46S1421.75 739.69 1448.25 739.69S1478.64 731.49 1505.59 731.49S1536.23 742.66 1562.94 742.66L1540 1099 L-100 1099 Z"></animate>
  <animateTransform attributeName="transform" type="translate" dur="17.5s" begin="-5.25s" repeatCount="indefinite" values="0;10;0" calcMode="spline" keySplines="0.3 0 0.7 1;0.3 0 0.7 1"></animateTransform>
</path><path d="M-100 767.73C-68.49 759.32 -69.21 787.08 -41.01 787.08S-10.15 760 17.99 760S48.44 782.63 76.98 782.63S107.69 768.03 135.97 768.03S166.95 770.67 194.96 770.67S225.02 755.73 253.96 755.73S284.63 770.86 312.95 770.86S342.95 748.18 371.94 748.18S402.95 765.83 430.94 765.83S461.29 771.23 489.93 771.23S521.62 794.88 548.92 794.88S579.45 763.02 607.91 763.02S639.98 788.11 666.91 788.11S697.06 753.7 725.9 753.7S756.6 773.77 784.89 773.77S816.18 759.87 843.88 759.87S875.8 792.05 902.88 792.05S934.85 769.55 961.87 769.55S992.79 795.94 1020.86 795.94S1052.35 768.3 1079.86 768.3S1109.89 792.05 1138.85 792.05S1169.29 765.96 1197.84 765.96S1229.14 780.29 1256.83 780.29S1288.18 759.28 1315.83 759.28S1347.7 778.69 1374.82 778.69S1404.4 768.52 1433.81 768.52S1465.33 793.63 1492.81 793.63S1524.45 778.34 1551.8 778.34L1540 1099 L-100 1099 Z" fill="#7e9192" stroke-width="0">
  <animate attributeName="d" dur="15s" repeatCount="indefinite" values="M-100 767.73C-68.49 759.32 -69.21 787.08 -41.01 787.08S-10.15 760 17.99 760S48.44 782.63 76.98 782.63S107.69 768.03 135.97 768.03S166.95 770.67 194.96 770.67S225.02 755.73 253.96 755.73S284.63 770.86 312.95 770.86S342.95 748.18 371.94 748.18S402.95 765.83 430.94 765.83S461.29 771.23 489.93 771.23S521.62 794.88 548.92 794.88S579.45 763.02 607.91 763.02S639.98 788.11 666.91 788.11S697.06 753.7 725.9 753.7S756.6 773.77 784.89 773.77S816.18 759.87 843.88 759.87S875.8 792.05 902.88 792.05S934.85 769.55 961.87 769.55S992.79 795.94 1020.86 795.94S1052.35 768.3 1079.86 768.3S1109.89 792.05 1138.85 792.05S1169.29 765.96 1197.84 765.96S1229.14 780.29 1256.83 780.29S1288.18 759.28 1315.83 759.28S1347.7 778.69 1374.82 778.69S1404.4 768.52 1433.81 768.52S1465.33 793.63 1492.81 793.63S1524.45 778.34 1551.8 778.34L1540 1099 L-100 1099 Z;M-100 763.61C-68.73 765.04 -68.03 775.78 -41.01 775.78S-10.47 754.71 17.99 754.71S49.15 783.06 76.98 783.06S109.09 766.77 135.97 766.77S167.88 772.26 194.96 772.26S226.7 760.24 253.96 760.24S284.91 793.44 312.95 793.44S343.09 763.2 371.94 763.2S403.19 774.13 430.94 774.13S460.99 760.37 489.93 760.37S522.08 795.21 548.92 795.21S580.05 749.45 607.91 749.45S638.95 783.37 666.91 783.37S698.1 780.47 725.9 780.47S757.73 759.68 784.89 759.68S816.08 770.32 843.88 770.32S875.64 778.69 902.88 778.69S933.15 783.73 961.87 783.73S993.11 796.2 1020.86 796.2S1051 765.84 1079.86 765.84S1111.2 776.54 1138.85 776.54S1168.49 766.73 1197.84 766.73S1230.01 772.02 1256.83 772.02S1286.58 773.69 1315.83 773.69S1345.54 787.14 1374.82 787.14S1406.44 747.44 1433.81 747.44S1463.52 773.41 1492.81 773.41S1523.02 762.49 1551.8 762.49L1540 1099 L-100 1099 Z;M-100 767.73C-68.49 759.32 -69.21 787.08 -41.01 787.08S-10.15 760 17.99 760S48.44 782.63 76.98 782.63S107.69 768.03 135.97 768.03S166.95 770.67 194.96 770.67S225.02 755.73 253.96 755.73S284.63 770.86 312.95 770.86S342.95 748.18 371.94 748.18S402.95 765.83 430.94 765.83S461.29 771.23 489.93 771.23S521.62 794.88 548.92 794.88S579.45 763.02 607.91 763.02S639.98 788.11 666.91 788.11S697.06 753.7 725.9 753.7S756.6 773.77 784.89 773.77S816.18 759.87 843.88 759.87S875.8 792.05 902.88 792.05S934.85 769.55 961.87 769.55S992.79 795.94 1020.86 795.94S1052.35 768.3 1079.86 768.3S1109.89 792.05 1138.85 792.05S1169.29 765.96 1197.84 765.96S1229.14 780.29 1256.83 780.29S1288.18 759.28 1315.83 759.28S1347.7 778.69 1374.82 778.69S1404.4 768.52 1433.81 768.52S1465.33 793.63 1492.81 793.63S1524.45 778.34 1551.8 778.34L1540 1099 L-100 1099 Z"></animate>
  <animateTransform attributeName="transform" type="translate" dur="15s" begin="-6s" repeatCount="indefinite" values="0;10;0" calcMode="spline" keySplines="0.3 0 0.7 1;0.3 0 0.7 1"></animateTransform>
</path><path d="M-100 798.7C-67.38 778.26 -69.22 818.43 -39.26 818.43S-6.7 781.4 21.48 781.4S53.88 820.2 82.22 820.2S112.88 791.3 142.96 791.3S174.86 824.05 203.7 824.05S235.93 797.11 264.44 797.11S296.41 784.84 325.19 784.84S357.49 791.3 385.93 791.3S418.78 813.67 446.67 813.67S478.99 799.43 507.41 799.43S538.51 822.19 568.15 822.19S600.61 779.33 628.89 779.33S661.97 819.78 689.63 819.78S721.63 801.38 750.37 801.38S780.98 793.65 811.11 793.65S842.98 777.57 871.85 777.57S902.65 827.58 932.59 827.58S965.17 821.18 993.33 821.18S1024.89 821.75 1054.07 821.75S1085.8 786.4 1114.81 786.4S1147.78 809.89 1175.56 809.89S1206.92 777.7 1236.3 777.7S1266.97 815.38 1297.04 815.38S1329.01 793.26 1357.78 793.26S1388.39 814.06 1418.52 814.06S1451.59 777.45 1479.26 777.45S1510.4 804.82 1540 804.82S1572.64 776.56 1600.74 776.56L1540 1099 L-100 1099 Z" fill="#92a3a4" stroke-width="0">
  <animate attributeName="d" dur="12.5s" repeatCount="indefinite" values="M-100 798.7C-67.38 778.26 -69.22 818.43 -39.26 818.43S-6.7 781.4 21.48 781.4S53.88 820.2 82.22 820.2S112.88 791.3 142.96 791.3S174.86 824.05 203.7 824.05S235.93 797.11 264.44 797.11S296.41 784.84 325.19 784.84S357.49 791.3 385.93 791.3S418.78 813.67 446.67 813.67S478.99 799.43 507.41 799.43S538.51 822.19 568.15 822.19S600.61 779.33 628.89 779.33S661.97 819.78 689.63 819.78S721.63 801.38 750.37 801.38S780.98 793.65 811.11 793.65S842.98 777.57 871.85 777.57S902.65 827.58 932.59 827.58S965.17 821.18 993.33 821.18S1024.89 821.75 1054.07 821.75S1085.8 786.4 1114.81 786.4S1147.78 809.89 1175.56 809.89S1206.92 777.7 1236.3 777.7S1266.97 815.38 1297.04 815.38S1329.01 793.26 1357.78 793.26S1388.39 814.06 1418.52 814.06S1451.59 777.45 1479.26 777.45S1510.4 804.82 1540 804.82S1572.64 776.56 1600.74 776.56L1540 1099 L-100 1099 Z;M-100 806.09C-68.19 809.76 -69.58 816.12 -39.26 816.12S-6.98 785.07 21.48 785.07S52.39 815.02 82.22 815.02S114.13 798.22 142.96 798.22S175.96 821.13 203.7 821.13S234.58 782.83 264.44 782.83S296.69 816.77 325.19 816.77S356.35 784.35 385.93 784.35S417.9 807.85 446.67 807.85S477.98 798.53 507.41 798.53S538.63 812.16 568.15 812.16S600.41 797.07 628.89 797.07S659.84 821.67 689.63 821.67S721.17 786.57 750.37 786.57S781.26 816.78 811.11 816.78S843.11 797.67 871.85 797.67S903.19 805.04 932.59 805.04S965.24 796.09 993.33 796.09S1024.8 821.09 1054.07 821.09S1085.63 788.9 1114.81 788.9S1147.51 791.76 1175.56 791.76S1207.37 775.88 1236.3 775.88S1269.37 810 1297.04 810S1328.42 804.13 1357.78 804.13S1390.45 806.7 1418.52 806.7S1449.12 797.65 1479.26 797.65S1509.92 787.05 1540 787.05S1571.47 810.06 1600.74 810.06L1540 1099 L-100 1099 Z;M-100 798.7C-67.38 778.26 -69.22 818.43 -39.26 818.43S-6.7 781.4 21.48 781.4S53.88 820.2 82.22 820.2S112.88 791.3 142.96 791.3S174.86 824.05 203.7 824.05S235.93 797.11 264.44 797.11S296.41 784.84 325.19 784.84S357.49 791.3 385.93 791.3S418.78 813.67 446.67 813.67S478.99 799.43 507.41 799.43S538.51 822.19 568.15 822.19S600.61 779.33 628.89 779.33S661.97 819.78 689.63 819.78S721.63 801.38 750.37 801.38S780.98 793.65 811.11 793.65S842.98 777.57 871.85 777.57S902.65 827.58 932.59 827.58S965.17 821.18 993.33 821.18S1024.89 821.75 1054.07 821.75S1085.8 786.4 1114.81 786.4S1147.78 809.89 1175.56 809.89S1206.92 777.7 1236.3 777.7S1266.97 815.38 1297.04 815.38S1329.01 793.26 1357.78 793.26S1388.39 814.06 1418.52 814.06S1451.59 777.45 1479.26 777.45S1510.4 804.82 1540 804.82S1572.64 776.56 1600.74 776.56L1540 1099 L-100 1099 Z"></animate>
  <animateTransform attributeName="transform" type="translate" dur="12.5s" begin="-6.25s" repeatCount="indefinite" values="0;10;0" calcMode="spline" keySplines="0.3 0 0.7 1;0.3 0 0.7 1"></animateTransform>
</path><path d="M-100 816.45C-67.52 807.52 -67.9 849.49 -37.4 849.49S-6 817.54 25.19 817.54S58.75 810.83 87.79 810.83S120.05 802.33 150.38 802.33S182.24 842.03 212.98 842.03S246.93 839.6 275.57 839.6S309.25 856.96 338.17 856.96S369.91 811.05 400.76 811.05S434.36 802.38 463.36 802.38S495.59 820.68 525.95 820.68S559.13 854.58 588.55 854.58S621.69 819.59 651.15 819.59S683.34 848.36 713.74 848.36S745.39 811.68 776.34 811.68S809.79 836.95 838.93 836.95S870.88 811.92 901.53 811.92S934.55 840.13 964.12 840.13S996.89 821.68 1026.72 821.68S1060.1 840.82 1089.31 840.82S1121.91 818.02 1151.91 818.02S1185.45 854.79 1214.5 854.79S1246.72 845.81 1277.1 845.81S1310.4 850.18 1339.69 850.18S1372.86 836.57 1402.29 836.57S1434.66 837.31 1464.89 837.31S1496.32 807.28 1527.48 807.28S1561.29 841.7 1590.08 841.7L1540 1099 L-100 1099 Z" fill="#a6b5b5" stroke-width="0">
  <animate attributeName="d" dur="10s" repeatCount="indefinite" values="M-100 816.45C-67.52 807.52 -67.9 849.49 -37.4 849.49S-6 817.54 25.19 817.54S58.75 810.83 87.79 810.83S120.05 802.33 150.38 802.33S182.24 842.03 212.98 842.03S246.93 839.6 275.57 839.6S309.25 856.96 338.17 856.96S369.91 811.05 400.76 811.05S434.36 802.38 463.36 802.38S495.59 820.68 525.95 820.68S559.13 854.58 588.55 854.58S621.69 819.59 651.15 819.59S683.34 848.36 713.74 848.36S745.39 811.68 776.34 811.68S809.79 836.95 838.93 836.95S870.88 811.92 901.53 811.92S934.55 840.13 964.12 840.13S996.89 821.68 1026.72 821.68S1060.1 840.82 1089.31 840.82S1121.91 818.02 1151.91 818.02S1185.45 854.79 1214.5 854.79S1246.72 845.81 1277.1 845.81S1310.4 850.18 1339.69 850.18S1372.86 836.57 1402.29 836.57S1434.66 837.31 1464.89 837.31S1496.32 807.28 1527.48 807.28S1561.29 841.7 1590.08 841.7L1540 1099 L-100 1099 Z;M-100 839.21C-67.63 858.1 -66.6 850.33 -37.4 850.33S-4.87 847.35 25.19 847.35S58.09 840.43 87.79 840.43S119.27 822.28 150.38 822.28S182.15 859.91 212.98 859.91S244.65 811.03 275.57 811.03S308.52 855.05 338.17 855.05S371.44 819.46 400.76 819.46S432.73 820.14 463.36 820.14S495.84 826.38 525.95 826.38S557.31 852.79 588.55 852.79S622.19 828.26 651.15 828.26S682.46 840.34 713.74 840.34S745.43 810.5 776.34 810.5S808.75 838.18 838.93 838.18S872.59 814.74 901.53 814.74S934.84 848.12 964.12 848.12S997.49 817.55 1026.72 817.55S1059.44 844.07 1089.31 844.07S1122.09 814.71 1151.91 814.71S1183.41 860.99 1214.5 860.99S1246.72 829.33 1277.1 829.33S1309.16 856.39 1339.69 856.39S1372.11 825.31 1402.29 825.31S1436.21 837.26 1464.89 837.26S1497.61 817.16 1527.48 817.16S1559.94 847.94 1590.08 847.94L1540 1099 L-100 1099 Z;M-100 816.45C-67.52 807.52 -67.9 849.49 -37.4 849.49S-6 817.54 25.19 817.54S58.75 810.83 87.79 810.83S120.05 802.33 150.38 802.33S182.24 842.03 212.98 842.03S246.93 839.6 275.57 839.6S309.25 856.96 338.17 856.96S369.91 811.05 400.76 811.05S434.36 802.38 463.36 802.38S495.59 820.68 525.95 820.68S559.13 854.58 588.55 854.58S621.69 819.59 651.15 819.59S683.34 848.36 713.74 848.36S745.39 811.68 776.34 811.68S809.79 836.95 838.93 836.95S870.88 811.92 901.53 811.92S934.55 840.13 964.12 840.13S996.89 821.68 1026.72 821.68S1060.1 840.82 1089.31 840.82S1121.91 818.02 1151.91 818.02S1185.45 854.79 1214.5 854.79S1246.72 845.81 1277.1 845.81S1310.4 850.18 1339.69 850.18S1372.86 836.57 1402.29 836.57S1434.66 837.31 1464.89 837.31S1496.32 807.28 1527.48 807.28S1561.29 841.7 1590.08 841.7L1540 1099 L-100 1099 Z"></animate>
  <animateTransform attributeName="transform" type="translate" dur="10s" begin="-6s" repeatCount="indefinite" values="0;10;0" calcMode="spline" keySplines="0.3 0 0.7 1;0.3 0 0.7 1"></animateTransform>
</path><path d="M-100 833.91C-67.37 843.19 -65.95 883.7 -35.43 883.7S-2.24 837.04 29.13 837.04S61.57 868.85 93.7 868.85S128.4 850.72 158.27 850.72S191.54 884.36 222.83 884.36S256.13 885.83 287.4 885.83S321.74 891.7 351.97 891.7S384.76 845.9 416.54 845.9S449.64 872.44 481.1 872.44S514.52 847.45 545.67 847.45S578.67 888.24 610.24 888.24S643.41 868.48 674.8 868.48S707.19 829.8 739.37 829.8S774.3 838.05 803.94 838.05S836.41 870.77 868.5 870.77S901.59 846.62 933.07 846.62S965.89 875.01 997.64 875.01S1030.24 856.29 1062.2 856.29S1096.07 881.27 1126.77 881.27S1161 833.53 1191.34 833.53S1225.54 872.06 1255.91 872.06S1289 836.67 1320.47 836.67S1353.64 891.42 1385.04 891.42S1417.65 887.39 1449.61 887.39S1484.19 883.99 1514.17 883.99S1547.86 838.72 1578.74 838.72L1540 1099 L-100 1099 Z" fill="#bac7c7" stroke-width="0">
  <animate attributeName="d" dur="7.5s" repeatCount="indefinite" values="M-100 833.91C-67.37 843.19 -65.95 883.7 -35.43 883.7S-2.24 837.04 29.13 837.04S61.57 868.85 93.7 868.85S128.4 850.72 158.27 850.72S191.54 884.36 222.83 884.36S256.13 885.83 287.4 885.83S321.74 891.7 351.97 891.7S384.76 845.9 416.54 845.9S449.64 872.44 481.1 872.44S514.52 847.45 545.67 847.45S578.67 888.24 610.24 888.24S643.41 868.48 674.8 868.48S707.19 829.8 739.37 829.8S774.3 838.05 803.94 838.05S836.41 870.77 868.5 870.77S901.59 846.62 933.07 846.62S965.89 875.01 997.64 875.01S1030.24 856.29 1062.2 856.29S1096.07 881.27 1126.77 881.27S1161 833.53 1191.34 833.53S1225.54 872.06 1255.91 872.06S1289 836.67 1320.47 836.67S1353.64 891.42 1385.04 891.42S1417.65 887.39 1449.61 887.39S1484.19 883.99 1514.17 883.99S1547.86 838.72 1578.74 838.72L1540 1099 L-100 1099 Z;M-100 868.39C-66.23 878.33 -65.09 885.02 -35.43 885.02S-3.1 856.75 29.13 856.75S63.92 872.38 93.7 872.38S128.02 891.59 158.27 891.59S192.87 886.61 222.83 886.61S256.07 849 287.4 849S321.74 847.19 351.97 847.19S384.99 847.88 416.54 847.88S449.6 854.58 481.1 854.58S514.04 880.61 545.67 880.61S579.54 880.11 610.24 880.11S644.19 855.3 674.8 855.3S708.17 875.95 739.37 875.95S772.04 841.24 803.94 841.24S838.12 872.5 868.5 872.5S902.05 844.16 933.07 844.16S967.06 870.2 997.64 870.2S1031.37 835.17 1062.2 835.17S1096.97 876.38 1126.77 876.38S1161.08 850.36 1191.34 850.36S1225.86 878.66 1255.91 878.66S1288.5 835.69 1320.47 835.69S1354.39 889.17 1385.04 889.17S1419.3 891.76 1449.61 891.76S1483.26 880.34 1514.17 880.34S1547.23 833.61 1578.74 833.61L1540 1099 L-100 1099 Z;M-100 833.91C-67.37 843.19 -65.95 883.7 -35.43 883.7S-2.24 837.04 29.13 837.04S61.57 868.85 93.7 868.85S128.4 850.72 158.27 850.72S191.54 884.36 222.83 884.36S256.13 885.83 287.4 885.83S321.74 891.7 351.97 891.7S384.76 845.9 416.54 845.9S449.64 872.44 481.1 872.44S514.52 847.45 545.67 847.45S578.67 888.24 610.24 888.24S643.41 868.48 674.8 868.48S707.19 829.8 739.37 829.8S774.3 838.05 803.94 838.05S836.41 870.77 868.5 870.77S901.59 846.62 933.07 846.62S965.89 875.01 997.64 875.01S1030.24 856.29 1062.2 856.29S1096.07 881.27 1126.77 881.27S1161 833.53 1191.34 833.53S1225.54 872.06 1255.91 872.06S1289 836.67 1320.47 836.67S1353.64 891.42 1385.04 891.42S1417.65 887.39 1449.61 887.39S1484.19 883.99 1514.17 883.99S1547.86 838.72 1578.74 838.72L1540 1099 L-100 1099 Z"></animate>
  <animateTransform attributeName="transform" type="translate" dur="7.5s" begin="-5.25s" repeatCount="indefinite" values="0;10;0" calcMode="spline" keySplines="0.3 0 0.7 1;0.3 0 0.7 1"></animateTransform>
</path><path d="M-100 909.07C-64.73 928.59 -65.1 926.77 -33.33 926.77S0.76 877.22 33.33 877.22S67.35 921.09 100 921.09S135.71 863.3 166.67 863.3S201.66 916.6 233.33 916.6S266.8 869.93 300 869.93S334.05 923.92 366.67 923.92S400.5 868.2 433.33 868.2S467.24 916.45 500 916.45S534.34 861.06 566.67 861.06S602.09 926.89 633.33 926.89S668.79 865.19 700 865.19S734.51 918.79 766.67 918.79S802.61 867.89 833.33 867.89S866.87 918.11 900 918.11S934.43 907.13 966.67 907.13S1001.09 901.42 1033.33 901.42S1068.43 878.01 1100 878.01S1134.91 905.04 1166.67 905.04S1200.68 859.3 1233.33 859.3S1266.74 907.01 1300 907.01S1334.39 923.25 1366.67 923.25S1402.49 908.77 1433.33 908.77S1467.17 873.05 1500 873.05S1533.69 904.94 1566.67 904.94L1540 1099 L-100 1099 Z" fill="#cfd9d9" stroke-width="0">
  <animate attributeName="d" dur="5s" repeatCount="indefinite" values="M-100 909.07C-64.73 928.59 -65.1 926.77 -33.33 926.77S0.76 877.22 33.33 877.22S67.35 921.09 100 921.09S135.71 863.3 166.67 863.3S201.66 916.6 233.33 916.6S266.8 869.93 300 869.93S334.05 923.92 366.67 923.92S400.5 868.2 433.33 868.2S467.24 916.45 500 916.45S534.34 861.06 566.67 861.06S602.09 926.89 633.33 926.89S668.79 865.19 700 865.19S734.51 918.79 766.67 918.79S802.61 867.89 833.33 867.89S866.87 918.11 900 918.11S934.43 907.13 966.67 907.13S1001.09 901.42 1033.33 901.42S1068.43 878.01 1100 878.01S1134.91 905.04 1166.67 905.04S1200.68 859.3 1233.33 859.3S1266.74 907.01 1300 907.01S1334.39 923.25 1366.67 923.25S1402.49 908.77 1433.33 908.77S1467.17 873.05 1500 873.05S1533.69 904.94 1566.67 904.94L1540 1099 L-100 1099 Z;M-100 865.05C-64.6 864.56 -64.5 917.08 -33.33 917.08S2.41 863.58 33.33 863.58S67.95 916.37 100 916.37S135.24 868.47 166.67 868.47S201.47 924.5 233.33 924.5S267.22 862.13 300 862.13S335.17 912 366.67 912S402.03 924.08 433.33 924.08S467.35 921.43 500 921.43S535.48 870.11 566.67 870.11S600.64 901.73 633.33 901.73S667.45 926.74 700 926.74S734.38 866.26 766.67 866.26S802.49 869.31 833.33 869.31S868.1 920.61 900 920.61S933.54 874.11 966.67 874.11S1002.14 903.4 1033.33 903.4S1067.99 858.28 1100 858.28S1134.81 920.76 1166.67 920.76S1201.3 881.91 1233.33 881.91S1268.7 862.15 1300 862.15S1335.35 869.01 1366.67 869.01S1401.14 922.17 1433.33 922.17S1468.26 858.68 1500 858.68S1533.67 913.51 1566.67 913.51L1540 1099 L-100 1099 Z;M-100 909.07C-64.73 928.59 -65.1 926.77 -33.33 926.77S0.76 877.22 33.33 877.22S67.35 921.09 100 921.09S135.71 863.3 166.67 863.3S201.66 916.6 233.33 916.6S266.8 869.93 300 869.93S334.05 923.92 366.67 923.92S400.5 868.2 433.33 868.2S467.24 916.45 500 916.45S534.34 861.06 566.67 861.06S602.09 926.89 633.33 926.89S668.79 865.19 700 865.19S734.51 918.79 766.67 918.79S802.61 867.89 833.33 867.89S866.87 918.11 900 918.11S934.43 907.13 966.67 907.13S1001.09 901.42 1033.33 901.42S1068.43 878.01 1100 878.01S1134.91 905.04 1166.67 905.04S1200.68 859.3 1233.33 859.3S1266.74 907.01 1300 907.01S1334.39 923.25 1366.67 923.25S1402.49 908.77 1433.33 908.77S1467.17 873.05 1500 873.05S1533.69 904.94 1566.67 904.94L1540 1099 L-100 1099 Z"></animate>
  <animateTransform attributeName="transform" type="translate" dur="5s" begin="-4s" repeatCount="indefinite" values="0;10;0" calcMode="spline" keySplines="0.3 0 0.7 1;0.3 0 0.7 1"></animateTransform>
</path><path d="M-100 936.4C-63.89 941.22 -65.35 937.35 -31.09 937.35S4.35 888.89 37.82 888.89S73.45 949.5 106.72 949.5S143 907.43 175.63 907.43S211.81 935.23 244.54 935.23S279.53 899.2 313.45 899.2S350.32 935.29 382.35 935.29S418.28 889.66 451.26 889.66S487.59 949.25 520.17 949.25S556.59 911.81 589.08 911.81S625.75 909.57 657.98 909.57S692.88 901.8 726.89 901.8S762.36 894.32 795.8 894.32S830.95 897.67 864.71 897.67S899.29 948.63 933.61 948.63S968.79 903.56 1002.52 903.56S1037.92 952.62 1071.43 952.62S1106.76 898.95 1140.34 898.95S1175.1 896.06 1209.24 896.06S1244.24 947.69 1278.15 947.69S1314.66 946.15 1347.06 946.15S1384.26 900.01 1415.97 900.01S1452.96 942.27 1484.87 942.27S1520.12 891.39 1553.78 891.39L1540 1099 L-100 1099 Z" fill="#e4ecec" stroke-width="0">
  <animate attributeName="d" dur="2.5s" repeatCount="indefinite" values="M-100 936.4C-63.89 941.22 -65.35 937.35 -31.09 937.35S4.35 888.89 37.82 888.89S73.45 949.5 106.72 949.5S143 907.43 175.63 907.43S211.81 935.23 244.54 935.23S279.53 899.2 313.45 899.2S350.32 935.29 382.35 935.29S418.28 889.66 451.26 889.66S487.59 949.25 520.17 949.25S556.59 911.81 589.08 911.81S625.75 909.57 657.98 909.57S692.88 901.8 726.89 901.8S762.36 894.32 795.8 894.32S830.95 897.67 864.71 897.67S899.29 948.63 933.61 948.63S968.79 903.56 1002.52 903.56S1037.92 952.62 1071.43 952.62S1106.76 898.95 1140.34 898.95S1175.1 896.06 1209.24 896.06S1244.24 947.69 1278.15 947.69S1314.66 946.15 1347.06 946.15S1384.26 900.01 1415.97 900.01S1452.96 942.27 1484.87 942.27S1520.12 891.39 1553.78 891.39L1540 1099 L-100 1099 Z;M-100 891.25C-65.22 907.16 -63.37 941.97 -31.09 941.97S3.47 908.64 37.82 908.64S74.26 955.76 106.72 955.76S143.64 890.33 175.63 890.33S210.3 889.26 244.54 889.26S279.22 898.15 313.45 898.15S348.75 935.68 382.35 935.68S418.08 901.9 451.26 901.9S488.12 950.46 520.17 950.46S555.08 903.82 589.08 903.82S624.52 895.4 657.98 895.4S694.99 953.31 726.89 953.31S762.74 948.98 795.8 948.98S832.32 908.04 864.71 908.04S901.08 934.84 933.61 934.84S970.3 894.19 1002.52 894.19S1038.37 959.08 1071.43 959.08S1107.19 906.99 1140.34 906.99S1176.07 946.29 1209.24 946.29S1245.83 900.7 1278.15 900.7S1312.75 940.67 1347.06 940.67S1382.56 894.99 1415.97 894.99S1452.34 953.68 1484.87 953.68S1521.2 891.78 1553.78 891.78L1540 1099 L-100 1099 Z;M-100 936.4C-63.89 941.22 -65.35 937.35 -31.09 937.35S4.35 888.89 37.82 888.89S73.45 949.5 106.72 949.5S143 907.43 175.63 907.43S211.81 935.23 244.54 935.23S279.53 899.2 313.45 899.2S350.32 935.29 382.35 935.29S418.28 889.66 451.26 889.66S487.59 949.25 520.17 949.25S556.59 911.81 589.08 911.81S625.75 909.57 657.98 909.57S692.88 901.8 726.89 901.8S762.36 894.32 795.8 894.32S830.95 897.67 864.71 897.67S899.29 948.63 933.61 948.63S968.79 903.56 1002.52 903.56S1037.92 952.62 1071.43 952.62S1106.76 898.95 1140.34 898.95S1175.1 896.06 1209.24 896.06S1244.24 947.69 1278.15 947.69S1314.66 946.15 1347.06 946.15S1384.26 900.01 1415.97 900.01S1452.96 942.27 1484.87 942.27S1520.12 891.39 1553.78 891.39L1540 1099 L-100 1099 Z"></animate>
  <animateTransform attributeName="transform" type="translate" dur="2.5s" begin="-2.25s" repeatCount="indefinite" values="0;10;0" calcMode="spline" keySplines="0.3 0 0.7 1;0.3 0 0.7 1"></animateTransform>
</path></g>
</svg>