<svg xmlns="http://www.w3.org/2000/svg" viewBox="0 0 2500 2500" width="2500" height="2500"><g transform="translate(2431.0 1485.0) rotate(0.0 -333.5 279.0) scale(-1.0181154332256706 1.0181831452370744)"><svg width="655.132" height="548.035" viewBox="0 0 655.132 548.035"><linearGradient id="a" gradientUnits="userSpaceOnUse" x1="87.934" x2="545.065" y1="108.689" y2="408.905"><stop offset=".097" stop-color="#52796F"/><stop offset="1" stop-color="#111"/></linearGradient><path d="M166.722 22.555 338.563 1l-53.677 68.353c-9.167 11.672-27.376 13.956-40.618 5.095z" fill="#CAD2C5"/><path d="M262.12 80.838a33.126 33.126 0 0 1-18.408-5.559l-77.546-51.893a1 1 0 0 1 .432-1.823L338.439.008a1 1 0 0 1 .911 1.61L285.672 69.97c-5.59 7.119-14.435 10.868-23.552 10.868zm-92.615-57.624 75.319 50.4c12.811 8.575 30.429 6.386 39.276-4.879L336.274 2.3z" fill="#111"/><path d="m166.722 22.555 77.546 51.893c13.242 8.861 31.451 6.577 40.618-5.095L338.563 1l295.789 197.939c20.843 13.947 26.044 40.151 11.616 58.522l-196.757 250.55c-14.428 18.372-43.023 21.959-63.865 8.011L25.749 275.384C4.907 261.437-.295 235.233 14.133 216.862z" fill="#52796F"/><path d="M413.419 525.5a51.533 51.533 0 0 1-28.629-8.647L25.192 276.215c-10.667-7.138-17.857-17.984-19.729-29.757a38.619 38.619 0 0 1 7.883-30.214l152.59-194.307a1 1 0 0 1 1.342-.213l77.546 51.893c12.811 8.572 30.43 6.383 39.275-4.882L337.776.382a1 1 0 0 1 1.343-.213l295.789 197.939c10.668 7.138 17.859 17.984 19.731 29.757a38.616 38.616 0 0 1-7.884 30.214L450 508.629c-8.683 11.053-22.418 16.871-36.581 16.871zM166.936 23.9 14.919 217.479a36.638 36.638 0 0 0-7.481 28.666c1.785 11.224 8.661 21.579 18.867 28.408L385.9 515.191c20.384 13.642 48.433 10.144 62.522-7.8l196.76-250.547a36.642 36.642 0 0 0 7.482-28.666C650.879 216.954 644 206.6 633.8 199.77L338.777 2.346l-53.1 67.624c-9.478 12.068-28.3 14.45-41.96 5.309z" fill="#111"/><path d="m645.968 257.461-196.757 250.55c-14.427 18.372-43.023 21.959-63.865 8.011L25.749 275.384C10.236 265 3.388 247.832 6.849 232.154l-4.97 22.511c-3.461 15.678 3.388 32.849 18.9 43.23l359.6 240.638c20.843 13.947 49.438 10.36 63.865-8.012L641 279.972a37.917 37.917 0 0 0 7.283-15.294l4.97-22.51a37.923 37.923 0 0 1-7.285 15.293z" fill="url(#a)"/><path d="M408.45 548.011a51.517 51.517 0 0 1-28.63-8.647L20.223 298.726C4.824 288.421-2.76 271.041.9 254.449l4.97-22.511a1 1 0 1 1 1.953.432c-3.485 15.781 3.769 32.339 18.479 42.183L385.9 515.191c20.385 13.642 48.432 10.145 62.522-7.8l196.758-250.55a36.8 36.8 0 0 0 7.093-14.891 1 1 0 0 1 1.954.431l-4.97 22.51a38.793 38.793 0 0 1-7.474 15.695L445.028 531.139c-8.681 11.053-22.416 16.872-36.578 16.872zM5.176 244.37l-2.32 10.51c-3.484 15.782 3.77 32.34 18.479 42.184L380.932 537.7c20.385 13.641 48.433 10.143 62.523-7.8l196.757-250.546a36.8 36.8 0 0 0 7.094-14.892l2.332-10.564a40.615 40.615 0 0 1-2.883 4.181l-.787-.618.787.618L450 508.629c-14.722 18.746-43.974 22.435-65.208 8.224l-359.6-240.638c-11.562-7.737-18.717-19.46-20.016-31.845z" fill="#111"/><path d="m166.581 222.427 97.448-124.09" fill="#fff"/><path d="M166.58 223.427a1 1 0 0 1-.786-1.618l97.448-124.09a1 1 0 1 1 1.573 1.235l-97.448 124.09a1 1 0 0 1-.787.383z" fill="#111"/><path d="m201.019 309.321 163.184-207.797" fill="#fff"/><path d="M201.019 310.321a1 1 0 0 1-.786-1.618l163.184-207.8a1 1 0 1 1 1.573 1.235l-163.184 207.8a1 1 0 0 1-.787.383z" fill="#111"/><path d="M282.116 363.59 445.3 155.793" fill="#fff"/><path d="M282.116 364.59a.987.987 0 0 1-.617-.214 1 1 0 0 1-.169-1.4l163.183-207.8a1 1 0 1 1 1.573 1.235L282.9 364.208a1 1 0 0 1-.784.382z" fill="#111"/><path d="m363.187 417.842 112.815-143.657" fill="#fff"/><path d="M363.187 418.842a1 1 0 0 1-.786-1.618l112.814-143.657a1 1 0 0 1 1.574 1.235L363.974 418.46a1 1 0 0 1-.787.382z" fill="#111"/></svg></g><g transform="translate(2170.0 678.0) rotate(0.0 -926.5 668.0) scale(-1.0145858348924446 1.0149654220425268)"><svg width="1826.361" height="1316.301" viewBox="0 0 1826.361 1316.301"><linearGradient id="b" gradientUnits="userSpaceOnUse" x1="465.103" x2="776.156" y1="206.807" y2="921.447"><stop offset="0" stop-color="#84A98C"/><stop offset=".449" stop-color="#354F52"/><stop offset="1" stop-color="#111"/></linearGradient><linearGradient id="c" gradientUnits="userSpaceOnUse" x1="415.876" x2="1832.664" y1="1277.469" y2="998.728"><stop offset="0" stop-color="#111"/><stop offset=".353" stop-color="#354F52"/><stop offset=".585" stop-color="#84A98C"/><stop offset=".863" stop-color="#354F52"/><stop offset="1" stop-color="#111"/></linearGradient><path d="M900.962 5.251c31.5-13.367 71.54 5.837 89.454 42.907l302.21 625.378c17.9 37.049 6.9 77.931-24.6 91.3l-854.256 362.45c-31.486 13.36-71.55-5.857-89.454-42.906L22.106 459c-17.914-37.07-6.886-77.939 24.6-91.3z" fill="#84A98C"/><path d="M392.583 1132.516c-26.865 0-54.966-18.313-69.167-47.7L21.206 459.437c-9.787-20.253-11.387-42.542-4.388-61.153 5.478-14.567 15.954-25.755 29.5-31.5L900.571 4.331l.391.92-.391-.92c31.929-13.547 72.636 5.918 90.745 43.392l302.21 625.377c9.787 20.253 11.386 42.543 4.387 61.155-5.477 14.566-15.952 25.752-29.5 31.5l-854.252 362.451a54.994 54.994 0 0 1-21.578 4.31zm529.6-1130.5a53.078 53.078 0 0 0-20.83 4.158L47.1 368.624c-13.035 5.53-23.124 16.314-28.407 30.364-6.807 18.1-5.234 39.816 4.316 59.579l302.211 625.378c17.651 36.528 57.2 55.557 88.162 42.421l854.256-362.452c13.036-5.531 23.124-16.314 28.406-30.362 6.808-18.1 5.235-39.818-4.315-59.581L989.516 48.593c-13.862-28.685-41.229-46.579-67.334-46.579z" fill="#111"/><path d="M906.924 33.074 65.08 390.26c-22.02 9.343-29.74 37.934-17.208 63.867l297.358 615.337c12.522 25.912 40.545 39.337 62.565 29.994l841.845-357.187c22.038-9.35 29.741-37.933 17.219-63.845L969.5 63.089c-12.532-25.933-40.538-39.366-62.577-30.015" fill="#fff"/><g fill="#111"><path d="M392.974 1103.416c-18.9 0-38.664-12.864-48.644-33.517L46.972 454.562c-6.882-14.241-8-29.919-3.079-43.016a38.293 38.293 0 0 1 20.8-22.206L906.534 32.153c22.48-9.537 51.131 4.145 63.867 30.5l297.358 615.337c6.878 14.233 8 29.9 3.078 42.99a38.306 38.306 0 0 1-20.806 22.211l-841.845 357.187a38.77 38.77 0 0 1-15.212 3.038zM906.924 33.074l.391.92L65.47 391.181a36.313 36.313 0 0 0-19.7 21.069c-4.733 12.587-3.637 27.692 3.007 41.442l297.359 615.337c12.273 25.4 39.76 38.634 61.274 29.508l841.844-357.186a36.324 36.324 0 0 0 19.716-21.074c4.73-12.578 3.634-27.674-3.006-41.416L968.6 63.524c-12.279-25.411-39.772-38.658-61.285-29.53z"/><path d="M494.98 230.245c-5.317 2.256-7.176 9.157-4.143 15.434 3.024 6.256 9.785 9.5 15.1 7.244s7.194-9.165 4.17-15.421c-3.033-6.277-9.813-9.513-15.129-7.257"/><path d="M502.376 254.633c-4.851 0-9.9-3.265-12.439-8.519a14.1 14.1 0 0 1-.777-11 9.986 9.986 0 0 1 5.429-5.786c5.8-2.462 13.168 1.012 16.421 7.743a14.059 14.059 0 0 1 .764 10.971 9.878 9.878 0 0 1-9.4 6.595zm-3.793-24.108a8.2 8.2 0 0 0-3.213.64 7.9 7.9 0 0 0-4.338 4.649 12.1 12.1 0 0 0 .706 9.43c2.79 5.774 8.985 8.806 13.81 6.758a8.037 8.037 0 0 0 4.354-4.668 12.054 12.054 0 0 0-.693-9.4c-2.203-4.557-6.526-7.409-10.626-7.409z"/></g><path d="M1268.026 764.834 413.77 1127.286c-31.486 13.36-71.55-5.857-89.454-42.906L22.106 459c-16.491-34.124-8.455-71.47 17.494-87.609l-12.519 7.788C1.131 395.317-6.9 432.664 9.586 466.79L311.8 1092.168c17.9 37.049 57.968 56.265 89.454 42.906l854.256-362.452a51.748 51.748 0 0 0 7.112-3.688l12.52-7.788a51.7 51.7 0 0 1-7.116 3.688z" fill="url(#b)"/><path d="M380.064 1140.3c-26.867 0-54.965-18.311-69.168-47.7L8.686 467.225c-16.476-34.1-8.8-72.312 17.862-88.9l12.52-7.787a1 1 0 1 1 1.057 1.7c-25.79 16.042-33.149 53.154-17.119 86.327l302.211 625.378c17.651 36.528 57.2 55.557 88.163 42.42l854.255-362.451.242.57-.242-.57a51.14 51.14 0 0 0 6.975-3.617 1 1 0 0 1 1.056 1.7l-.055.034-12.465 7.754a53 53 0 0 1-7.249 3.759l-854.256 362.453a55.024 55.024 0 0 1-21.577 4.305zM28 379.783l-.393.245c-25.791 16.041-33.151 53.154-17.12 86.327L312.7 1091.733c17.652 36.527 57.2 55.555 88.163 42.421L1255.116 771.7a51.392 51.392 0 0 0 4.8-2.34l-845.755 358.846c-31.927 13.548-72.636-5.917-90.745-43.391L21.206 459.437C7.3 430.661 10.6 398.947 28 379.783z" fill="#111"/><path d="M1262.454 766.161c31.486-13.359 78.082-18.343 104.038-11.127l438.139 121.8c25.955 7.215 21.47 23.9-10.016 37.265l-854.256 362.453c-31.486 13.359-78.083 18.342-104.038 11.127l-438.139-121.8c-25.956-7.216-21.47-23.906 10.017-37.265z" fill="#84A98C"/><path d="M865.376 1291.97c-11.067 0-21.2-1.07-29.323-3.327l-438.138-121.8c-14.028-3.9-17.307-9.849-17.587-14.155-.537-8.246 9.479-17.355 27.48-24.993l854.256-362.452.39.92-.39-.92c31.621-13.417 78.587-18.429 104.7-11.171l438.139 121.8c14.027 3.9 17.306 9.849 17.586 14.154.537 8.246-9.479 17.356-27.48 24.994l-854.26 362.452c-21.786 9.244-50.859 14.498-75.373 14.498zm472.009-539.244c-24.214 0-52.972 5.2-74.54 14.355l-854.256 362.453c-16.918 7.178-26.737 15.785-26.266 23.023.338 5.171 6.065 9.56 16.127 12.358l438.139 121.8c25.736 7.154 72.112 2.181 103.379-11.085l854.256-362.452c16.918-7.178 26.737-15.785 26.265-23.023-.337-5.172-6.064-9.56-16.126-12.358L1366.224 756c-7.982-2.222-17.952-3.274-28.839-3.274z" fill="#111"/><path d="M1244.523 804.552 513.8 1114.588c-9.7 4.115-11.081 9.256-3.085 11.479L740.709 1190c8 2.222 22.333.683 32.032-3.432l730.718-310.036c9.7-4.115 11.077-9.244 3.082-11.467l-229.989-63.936c-8-2.223-22.33-.695-32.029 3.42" fill="#fff"/><path d="M749.625 1192.009a35.3 35.3 0 0 1-9.184-1.043l-229.989-63.936c-4.712-1.31-5.822-3.432-5.923-4.982-.188-2.893 2.967-5.869 8.885-8.38l730.718-310.037c9.854-4.18 24.517-5.734 32.688-3.463l229.989 63.932c4.713 1.311 5.823 3.431 5.924 4.979.188 2.889-2.967 5.862-8.884 8.373l-730.718 310.04a64.383 64.383 0 0 1-23.506 4.517zm517.935-390.9a62.057 62.057 0 0 0-22.647 4.366L514.2 1115.509c-5.8 2.462-7.767 4.925-7.67 6.409.082 1.259 1.709 2.419 4.463 3.185l229.989 63.937c7.791 2.166 21.865.645 31.373-3.389l730.718-310.036c5.8-2.462 7.765-4.921 7.669-6.4-.082-1.256-1.709-2.416-4.464-3.182L1276.284 802.1a33.535 33.535 0 0 0-8.724-.994z" fill="#111"/><path d="m1287.21 981.649-260.187 110.4c-11.207 4.755-12.8 10.694-3.549 13.267l133.051 36.987c9.238 2.569 25.82.8 37.027-3.96l260.187-110.395c11.208-4.755 12.805-10.694 3.566-13.263l-133.051-36.987c-9.254-2.573-25.836-.8-37.044 3.956" fill="#fff"/><path d="M1166.848 1144.464a40.687 40.687 0 0 1-10.591-1.2l-133.051-36.988c-5.368-1.492-6.63-3.881-6.743-5.624-.213-3.271 3.4-6.654 10.169-9.527l260.187-110.4c11.369-4.823 28.282-6.618 37.7-4l133.052 36.988c5.357 1.489 6.616 3.876 6.73 5.616.213 3.272-3.4 6.657-10.173 9.531l-260.187 110.394a74.222 74.222 0 0 1-27.093 5.21zm120.362-162.815.391.92-260.187 110.395c-6.778 2.876-9.07 5.789-8.955 7.556.1 1.549 1.977 2.908 5.282 3.827l133.051 36.988c9.04 2.512 25.355.755 36.369-3.918l260.187-110.394c6.781-2.877 9.074-5.792 8.959-7.56-.1-1.546-1.972-2.9-5.27-3.819l-133.051-36.988c-9.05-2.516-25.371-.76-36.385 3.913z" fill="#111"/><path d="m1825.255 913.621-3.855-24.315c1.21 7.631-7.964 16.807-26.785 24.794l-854.256 362.451c-31.486 13.36-78.083 18.344-104.038 11.128l-438.138-121.8c-10.441-2.9-15.956-7.337-16.77-12.472l3.855 24.314c.815 5.135 6.33 9.57 16.77 12.472l438.138 121.8c25.956 7.216 72.552 2.232 104.038-11.127l854.256-362.452c18.822-7.986 27.995-17.163 26.785-24.793z" fill="url(#c)"/><path d="M869.232 1316.285c-11.067 0-21.2-1.071-29.323-3.329l-438.139-121.8c-10.528-2.928-16.576-7.519-17.489-13.279l-3.847-24.258-.009-.056a1 1 0 1 1 1.976-.314c.77 4.859 6.47 9 16.05 11.666l438.137 121.8c25.736 7.155 72.111 2.183 103.38-11.084l854.256-362.452c17.571-7.455 27.361-16.322 26.188-23.716a1 1 0 0 1 1.976-.314l3.855 24.315c1.345 8.487-8.635 17.916-27.383 25.87l-854.255 362.452c-21.787 9.244-50.86 14.498-75.373 14.499zm-485.874-157 2.9 18.279c.77 4.859 6.47 9 16.05 11.665l438.138 121.8c25.736 7.155 72.112 2.181 103.38-11.085l854.255-362.451c17.571-7.456 27.361-16.322 26.188-23.716l-2.894-18.254c-3.059 6.646-12.216 13.491-26.368 19.5L940.75 1277.472c-31.624 13.418-78.591 18.428-104.7 11.17l-438.138-121.8c-6.75-1.878-11.66-4.442-14.554-7.557z" fill="#111"/></svg></g><g transform="translate(2313.0 848.0) rotate(0.0 -203.0 113.0) scale(-1.0146905193915856 1.0164521323006899)"><svg width="400.122" height="222.342" viewBox="0 0 400.122 222.342"><path d="m335.97 66-15.862 33.197-68.729-12.607 15.861-33.197z" fill="#52796F"/><path d="M320.109 100.197c-.06 0-.12-.005-.181-.016l-68.73-12.607a1 1 0 0 1-.722-1.415l15.861-33.197a1 1 0 0 1 1.083-.552l68.73 12.607a1 1 0 0 1 .722 1.415L321.01 99.629a.999.999 0 0 1-.901.568zm-67.265-14.355 66.692 12.233 14.968-31.328-66.692-12.233z" fill="#111"/><path d="m255.74 45.702-8.46-14.534c-1.592-2.736-1.83-5.519-.749-7.781L230.67 56.584c-1.081 2.263-.843 5.046.749 7.781l8.459 14.534c2.213 3.802 6.718 6.822 11.5 7.691l15.861-33.198c-4.781-.868-9.286-3.888-11.499-7.69z" fill="#52796F"/><path d="M251.379 87.59a.993.993 0 0 1-.179-.016c-5.047-.917-9.83-4.125-12.186-8.172l-8.459-14.534c-1.754-3.012-2.033-6.108-.787-8.716l15.858-33.189a1 1 0 1 1 1.808.854l-.003.006c-.948 1.991-.695 4.42.714 6.841l8.46 14.534c2.073 3.563 6.318 6.393 10.814 7.21a1 1 0 0 1 .724 1.415l-15.861 33.198a1.002 1.002 0 0 1-.903.569zm-6.234-58.982-13.573 28.407c-.952 1.992-.699 4.424.711 6.847l8.459 14.534c1.959 3.366 5.856 6.078 10.071 7.056l14.98-31.355c-4.568-1.184-8.761-4.186-10.918-7.893l-8.46-14.534a11.823 11.823 0 0 1-1.27-3.062z" fill="#111"/><path d="m396.619 69.558-73.856 61.031-15.861 33.198 73.856-61.031a6.778 6.778 0 0 0 1.839-2.324l15.861-33.198a6.769 6.769 0 0 1-1.839 2.324z" fill="#52796F"/><path d="M306.901 164.786a1 1 0 0 1-.902-1.431l15.861-33.198a1.01 1.01 0 0 1 .265-.34l73.856-61.031.003-.003a5.757 5.757 0 0 0 1.567-1.975l.003-.007a1 1 0 0 1 1.804.862l-.002.004-15.859 33.193a7.765 7.765 0 0 1-2.107 2.666l-73.854 61.028a.97.97 0 0 1-.635.232zm16.669-33.567-13.813 28.91 70.364-58.145a5.766 5.766 0 0 0 1.573-1.985l13.273-27.78z" fill="#111"/><path d="M252.576 19.142c1.624-.316 3.442-.312 5.343.043l122.629 22.762c4.772.89 9.277 3.91 11.469 7.677l5.708 9.807c2.203 3.785 1.773 7.766-1.107 10.126l-73.856 61.031c-1.12.93-2.575 1.589-4.207 1.907-2.089.407-4.429.269-6.78-.381-4.279-1.184-8.029-3.936-10.015-7.347l-8.46-14.534c-2.213-3.802-1.773-7.765 1.116-10.148L335.97 66l-68.73-12.607c-4.782-.869-9.287-3.889-11.5-7.691l-8.46-14.534c-1.986-3.411-1.865-6.897.293-9.355 1.211-1.361 2.953-2.272 5.003-2.671z" fill="#CAD2C5"/><path d="M316.095 133.725c-1.483 0-3.033-.216-4.586-.646-4.529-1.254-8.496-4.172-10.612-7.808l-8.46-14.534c-2.464-4.233-1.936-8.717 1.344-11.423l39.886-32.72-66.607-12.217c-5.045-.917-9.828-4.125-12.184-8.172l-8.46-14.534c-2.204-3.786-2.052-7.718.406-10.517 1.344-1.512 3.267-2.546 5.563-2.993 1.785-.348 3.709-.334 5.718.042l122.628 22.762c5.045.941 9.814 4.143 12.151 8.157l5.708 9.808c2.467 4.238 1.942 8.714-1.337 11.403L323.4 131.36c-1.246 1.035-2.856 1.768-4.653 2.118-.849.165-1.738.247-2.652.247zM252.768 20.123c-1.862.363-3.399 1.177-4.446 2.354-1.859 2.117-1.927 5.18-.177 8.187l8.46 14.534c2.074 3.563 6.319 6.393 10.814 7.21l68.732 12.607a1 1 0 0 1 .454 1.757l-41.552 34.086c-2.521 2.079-2.861 5.479-.886 8.872l8.46 14.534c1.86 3.195 5.38 5.769 9.417 6.886 2.213.612 4.399.738 6.322.363 1.469-.286 2.769-.872 3.759-1.695l73.858-61.032c2.482-2.035 2.826-5.509.879-8.852l-5.708-9.808c-2.057-3.533-6.291-6.358-10.789-7.197L257.737 20.168c-1.737-.325-3.454-.34-4.969-.045zm-.192-.981h.01z" fill="#111"/><path d="M318.556 132.496c-2.089.407-4.429.269-6.779-.381-4.279-1.184-8.029-3.935-10.015-7.347l-8.46-14.534c-1.591-2.734-1.811-5.551-.734-7.804l-15.862 33.198c-1.076 2.253-.857 5.07.734 7.804l8.46 14.534c1.986 3.411 5.736 6.163 10.015 7.347 2.35.65 4.69.787 6.779.381 1.632-.318 3.087-.977 4.207-1.907l15.861-33.198c-1.12.93-2.575 1.589-4.206 1.907z" fill="#52796F"/><path d="M300.234 166.922a17.25 17.25 0 0 1-4.586-.646c-4.529-1.254-8.496-4.172-10.612-7.808l-8.46-14.534c-1.727-2.967-2.008-6.152-.772-8.739l15.862-33.198a1 1 0 0 1 1.804.862l-.001.002c-.945 1.98-.691 4.483.697 6.867l8.46 14.534c1.859 3.194 5.379 5.769 9.417 6.886 2.213.612 4.399.738 6.322.363 1.469-.287 2.77-.873 3.76-1.695a1 1 0 0 1 1.541 1.2l-15.862 33.198a.998.998 0 0 1-.263.338c-1.247 1.036-2.857 1.769-4.655 2.12-.849.168-1.738.25-2.652.25zm-9.056-59.264-13.57 28.4c-.946 1.98-.692 4.484.696 6.87l8.46 14.534c1.86 3.194 5.38 5.769 9.417 6.886 2.212.612 4.397.737 6.322.363 1.389-.271 2.626-.81 3.594-1.562l14.41-30.159c-.56.204-1.149.367-1.76.487-2.225.434-4.727.296-7.237-.398-4.53-1.254-8.497-4.173-10.612-7.808l-8.46-14.534a11.548 11.548 0 0 1-1.26-3.079zm27.378 24.838h.01z" fill="#111"/><path d="M167.809 13.313c-.394-1.771-.216-3.414.451-4.809l-15.861 33.198c-.667 1.396-.845 3.038-.451 4.809l36.303 163.885 15.861-33.197z" fill="#52796F"/><path d="M188.251 211.396a1.001 1.001 0 0 1-.977-.783L150.971 46.727c-.433-1.945-.251-3.832.525-5.457l15.862-33.198a1 1 0 0 1 1.804.862c-.582 1.217-.712 2.656-.377 4.161v.001l36.303 163.886c.048.218.022.446-.074.647l-15.862 33.197a.999.999 0 0 1-.901.57zM166.875 13.721 153.3 42.133c-.581 1.217-.712 2.656-.377 4.161l35.676 161.053 14.462-30.267z" fill="#111"/><path d="M190.042 1.229c3.502-.682 7.704.181 11.232 2.283 3.558 2.116 6.078 5.265 6.78 8.452l36.044 163.935c.968 4.441-1.647 8.056-6.523 9.005l-15.462 3.011c-3.482.678-7.674-.167-11.222-2.265-3.538-2.12-6.058-5.269-6.78-8.452L167.809 13.314c-.987-4.437 1.617-8.069 6.493-9.019z" fill="#CAD2C5"/><path d="M219.657 189.144c-3.069 0-6.382-.922-9.274-2.633-3.758-2.252-6.465-5.649-7.247-9.091L166.832 13.53c-.519-2.333-.165-4.526 1.023-6.341 1.286-1.964 3.508-3.34 6.255-3.875L189.85.248c3.727-.727 8.189.173 11.935 2.405 3.776 2.246 6.484 5.646 7.245 9.096l36.044 163.936c.509 2.334.148 4.522-1.042 6.33-1.29 1.961-3.515 3.335-6.267 3.871l-15.462 3.011c-.847.166-1.736.247-2.646.247zM192.516 1.998c-.786 0-1.552.07-2.283.212l-15.74 3.066c-2.245.438-3.962 1.478-4.964 3.008-.886 1.353-1.143 3.017-.744 4.812l36.303 163.886c.662 2.915 3.024 5.836 6.318 7.81 3.335 1.973 7.267 2.774 10.517 2.142l15.462-3.011c2.251-.438 3.972-1.478 4.978-3.007.887-1.349 1.15-3.01.759-4.803L207.078 12.179c-.644-2.92-3.005-5.838-6.315-7.807-2.587-1.542-5.535-2.374-8.247-2.374zm-2.474-.769h.01z" fill="#111"/><path d="m237.575 184.904-15.462 3.012c-3.482.678-7.674-.167-11.221-2.265-3.538-2.12-6.058-5.269-6.781-8.451l-15.861 33.197c.722 3.182 3.243 6.332 6.781 8.451 3.548 2.099 7.739 2.944 11.221 2.265l15.462-3.011c2.939-.572 5.057-2.113 6.063-4.22l15.861-33.197c-1.006 2.106-3.123 3.647-6.063 4.219z" fill="#52796F"/><path d="M203.794 222.341c-3.069 0-6.381-.922-9.273-2.633-3.758-2.251-6.465-5.648-7.247-9.091a1.002 1.002 0 0 1 .073-.653l15.861-33.197a1.001 1.001 0 0 1 1.877.209c.663 2.92 3.026 5.842 6.32 7.815 3.335 1.972 7.267 2.773 10.516 2.141l15.462-3.012c2.557-.498 4.457-1.799 5.35-3.665l.002-.005a1 1 0 0 1 1.804.862l-.004.01-15.857 33.188c-1.172 2.454-3.578 4.148-6.774 4.771l-15.462 3.011c-.849.168-1.737.249-2.648.249zm-14.487-11.838c.76 2.81 3.067 5.587 6.238 7.486 3.334 1.973 7.266 2.774 10.516 2.142l15.462-3.011c2.559-.499 4.46-1.802 5.352-3.67l13.58-28.423c-.814.38-1.715.669-2.689.858l-15.462 3.012c-3.715.724-8.172-.168-11.922-2.386-2.886-1.729-5.153-4.135-6.403-6.717z" fill="#111"/><path d="m121.538 81.771-41.532 34.082-15.862 33.197 41.532-34.082a6.828 6.828 0 0 0 1.866-2.351l15.862-33.198a6.834 6.834 0 0 1-1.866 2.352z" fill="#52796F"/><path d="M64.144 150.05a1 1 0 0 1-.903-1.431l15.862-33.198c.063-.132.155-.249.268-.342l41.532-34.082.002-.002a5.803 5.803 0 0 0 1.595-2.007 1 1 0 0 1 1.804.862l-.005.011-15.856 33.186a7.815 7.815 0 0 1-2.136 2.695l-41.53 34.081a.993.993 0 0 1-.633.227zm16.668-33.565-13.828 28.942 38.058-31.231a5.838 5.838 0 0 0 1.598-2.01l13.28-27.793z" fill="#111"/><path d="m169.453 158.445-15.861 33.197a6.74 6.74 0 0 1-1.071 1.599c-1.172 1.336-2.911 2.268-5.001 2.675-1.632.318-3.48.302-5.325-.051l15.861-33.197c1.845.353 3.693.368 5.325.051 2.089-.407 3.829-1.339 5.001-2.675a6.74 6.74 0 0 0 1.071-1.599" fill="#52796F"/><path d="M145.07 197.143c-1.002 0-2.033-.099-3.063-.296a1 1 0 0 1-.715-1.413l15.861-33.197c.196-.41.645-.636 1.09-.551 1.72.329 3.43.347 4.946.052 1.875-.365 3.41-1.179 4.44-2.353a5.79 5.79 0 0 0 .92-1.371 1 1 0 0 1 1.804.862l-.004.008-15.858 33.189a7.754 7.754 0 0 1-1.228 1.834c-1.318 1.503-3.241 2.539-5.555 2.99-.838.164-1.726.246-2.638.246zm-1.388-2.07c1.273.129 2.514.083 3.646-.138 1.875-.365 3.41-1.179 4.44-2.353.38-.424.687-.883.92-1.37l13.555-28.37c-.812.382-1.708.671-2.671.859-1.535.299-3.228.324-4.938.078z" fill="#111"/><path d="m158.057 162.668-15.862 33.197-122.629-22.762 15.862-33.197z" fill="#52796F"/><path d="M142.196 196.865a.945.945 0 0 1-.183-.017L19.384 174.086a1.001 1.001 0 0 1-.719-1.415l15.862-33.197c.195-.408.64-.634 1.085-.552l122.629 22.762a1.001 1.001 0 0 1 .719 1.415l-15.861 33.197c-.17.352-.524.569-.903.569zM21.031 172.358l120.593 22.384 14.969-31.329-120.594-22.384z" fill="#111"/><path d="m23.958 132.229-5.708-9.807c-1.582-2.717-1.799-5.546-.72-7.804L1.669 147.815c-1.079 2.258-.862 5.086.72 7.804l5.708 9.807c2.203 3.785 6.708 6.805 11.469 7.678l15.861-33.198c-4.761-.873-9.266-3.893-11.469-7.677z" fill="#52796F"/><path d="M19.567 174.103c-.06 0-.12-.005-.181-.016-5.036-.923-9.806-4.125-12.154-8.158l-5.708-9.806c-1.721-2.958-1.998-6.143-.758-8.739l15.858-33.191.003-.007a1 1 0 0 1 1.804.862c-.951 1.989-.702 4.493.682 6.87l5.708 9.808c2.067 3.55 6.3 6.375 10.785 7.196a1 1 0 0 1 .722 1.415l-15.861 33.198a.996.996 0 0 1-.9.568zm-3.434-54.243L2.571 148.246c-.95 1.989-.702 4.493.682 6.87l5.708 9.806c1.951 3.354 5.836 6.06 10.041 7.042l14.981-31.356c-4.556-1.187-8.739-4.183-10.889-7.877l-5.708-9.808a11.44 11.44 0 0 1-1.253-3.063z" fill="#111"/><path d="M97.414 49.362c2.045-.398 4.378-.281 6.766.38 4.309 1.198 8.049 3.932 10.034 7.343l8.46 14.534c2.213 3.802 1.763 7.787-1.136 10.152l-41.532 34.082 68.71 12.611c4.792.887 9.306 3.885 11.52 7.687l8.46 14.534c1.986 3.411 1.876 6.914-.313 9.358-1.172 1.336-2.911 2.268-5.001 2.675-1.632.318-3.48.302-5.325-.051L35.428 139.906c-4.762-.872-9.267-3.892-11.469-7.677l-5.708-9.807c-2.193-3.767-1.762-7.748 1.107-10.126l73.856-61.031c1.141-.949 2.58-1.588 4.2-1.903z" fill="#CAD2C5"/><path d="M160.932 163.946c-1.002 0-2.033-.099-3.063-.296L35.245 140.889c-5.033-.922-9.804-4.124-12.151-8.157l-5.708-9.808c-2.455-4.218-1.932-8.693 1.333-11.399l73.857-61.032c1.261-1.047 2.825-1.758 4.647-2.113 2.222-.433 4.72-.295 7.223.397 4.55 1.266 8.524 4.183 10.632 7.804l8.46 14.534c2.473 4.248 1.936 8.734-1.368 11.43l-39.863 32.713 66.59 12.222c5.072.939 9.862 4.145 12.203 8.168l8.46 14.534c2.219 3.812 2.057 7.748-.432 10.529-1.318 1.502-3.241 2.539-5.555 2.989-.841.164-1.729.246-2.641.246zM97.605 50.343c-1.489.29-2.752.859-3.754 1.69l-73.858 61.032c-2.471 2.049-2.817 5.524-.88 8.853l5.708 9.807c2.066 3.55 6.3 6.374 10.785 7.196l122.631 22.763c1.725.329 3.435.347 4.951.052 1.875-.365 3.41-1.179 4.44-2.353 1.889-2.11 1.961-5.171.2-8.196l-8.46-14.534c-2.061-3.541-6.315-6.37-10.837-7.207l-68.709-12.611a1 1 0 0 1-.454-1.756L120.9 80.997c2.502-2.041 2.857-5.524.906-8.876l-8.46-14.534c-1.852-3.181-5.38-5.754-9.438-6.883-2.201-.609-4.382-.735-6.303-.361z" fill="#111"/></svg></g><g transform="translate(1415.0 485.0) rotate(0.0 -171.0 171.0) scale(-1.020670060941762 1.01956856151397)"><svg width="335.074" height="335.436" viewBox="0 0 335.074 335.436"><path d="m330.447 171.334-37.403 8.036-16.419 17.921 37.403-8.036c1.047-.173 1.906-.644 2.524-1.319l16.419-17.921c-.619.675-1.477 1.145-2.524 1.319z" fill="#52796F"/><path d="M276.624 198.291a1.002 1.002 0 0 1-.738-1.676l16.419-17.921a.994.994 0 0 1 .527-.302l37.403-8.036.046-.009c.79-.131 1.463-.478 1.947-1.004l.004-.004a1 1 0 0 1 1.475 1.351l-16.419 17.921c-.789.862-1.861 1.425-3.098 1.63l-37.357 8.027a.984.984 0 0 1-.209.023zm16.941-18.011-14.085 15.374 34.338-7.377c.838-.14 1.513-.489 1.997-1.017l13.415-14.642z" fill="#111"/><path d="M106.016 9.123c-.39-1.707.002-3.235.951-4.27l-16.42 17.922c-.948 1.035-1.34 2.562-.951 4.27l7.373 40.408 16.419-17.92z" fill="#52796F"/><path d="M96.97 68.453a1 1 0 0 1-.984-.82l-7.373-40.408c-.441-1.927-.008-3.811 1.197-5.125l16.419-17.921a1 1 0 1 1 1.475 1.351c-.755.823-1.014 2.052-.713 3.371l.009.043 7.373 40.409c.056.308-.035.624-.246.855l-16.419 17.92c-.193.21-.462.325-.738.325zm7.939-59.874L91.285 23.45c-.754.823-1.014 2.052-.713 3.372l7.021 38.471 14.724-16.07-7.28-39.899a6.83 6.83 0 0 1-.128-.745z" fill="#111"/><path d="m243.966 221.253-16.419 17.921c11.982-13.078 17.924-31.745 15.117-53.296-5.882-45.165-47.965-85.894-93.993-90.969-24.065-2.653-44.445 4.965-57.573 19.295l16.419-17.921c13.129-14.33 33.508-21.948 57.573-19.295 46.028 5.075 88.111 45.803 93.993 90.969 2.807 21.551-3.135 40.218-15.117 53.296" fill="#52796F"/><path d="M227.547 240.174a1 1 0 0 1-.737-1.676c12.252-13.373 17.53-32.014 14.863-52.491-5.817-44.664-47.586-85.085-93.111-90.104-22.705-2.503-43.383 4.413-56.726 18.977a1 1 0 0 1-1.475-1.351l16.419-17.921c13.778-15.038 35.07-22.188 58.42-19.613 46.385 5.114 88.946 46.311 94.875 91.834 2.745 21.072-2.714 40.285-15.372 54.101l-16.419 17.921a.998.998 0 0 1-.737.323zM139.513 93.399c3.044 0 6.137.17 9.268.516 46.385 5.114 88.946 46.311 94.875 91.833 1.989 15.273-.332 29.57-6.579 41.543l6.151-6.714.737.676-.737-.676c12.251-13.373 17.53-32.014 14.863-52.491-5.817-44.664-47.586-85.085-93.111-90.104-22.708-2.503-43.384 4.413-56.726 18.977l-6.219 6.788c10.588-6.757 23.505-10.348 37.478-10.348z" fill="#111"/><path d="m309.469 275.485-16.419 17.921c-.967 1.056-2.445 1.52-4.031 1.346-.983-.108-2.007-.462-2.976-1.074l16.419-17.921c.97.611 1.994.965 2.976 1.074 1.587.174 3.064-.29 4.031-1.346" fill="#52796F"/><path d="M289.666 295.787c-.249 0-.5-.014-.755-.042-1.159-.127-2.335-.55-3.4-1.221a1 1 0 0 1-.204-1.521l16.419-17.921a1.001 1.001 0 0 1 1.271-.17c.81.511 1.692.831 2.553.926 1.293.142 2.453-.232 3.182-1.026l.001-.001a1 1 0 0 1 1.475 1.351l-.004.005-16.415 17.916c-1.012 1.102-2.486 1.704-4.123 1.704zm-2-2.4a5.72 5.72 0 0 0 1.463.371c1.294.142 2.455-.231 3.184-1.027l13.62-14.865a6.93 6.93 0 0 1-.604-.04 7.89 7.89 0 0 1-2.666-.807z" fill="#111"/><path d="m302.462 275.757-16.418 17.921-38.899-22.374 16.419-17.921z" fill="#52796F"/><path d="M286.043 294.678a.995.995 0 0 1-.498-.133l-38.898-22.374a1.002 1.002 0 0 1-.239-1.543l16.419-17.921a1 1 0 0 1 1.236-.191l38.898 22.374a1.002 1.002 0 0 1 .239 1.543l-16.419 17.921a1 1 0 0 1-.738.324zm-37.317-23.619 37.122 21.352 15.034-16.41-37.122-21.352z" fill="#111"/><path d="M25.629 59.954a3.987 3.987 0 0 0-.459.608L8.747 87.048l16.419-17.921 16.423-26.486a3.97 3.97 0 0 1 .459-.608z" fill="#52796F"/><path d="M8.747 88.048a1 1 0 0 1-.849-1.527L24.32 60.035c.165-.268.357-.523.571-.756l16.414-17.915.005-.006.001-.001a1 1 0 1 1 1.474 1.352l-.004.005c-.126.138-.24.29-.341.452L26.016 69.654a.965.965 0 0 1-.113.148L9.484 87.724a.998.998 0 0 1-.737.324zm26.567-37.184-8.948 9.766v.001a3.018 3.018 0 0 0-.344.455L15.228 78.494l9.137-9.973zm-9.685 9.09h.01z" fill="#111"/><path d="m263.564 253.383-16.419 17.921c-7.421 6.236-15.996 11.155-25.473 14.6l16.419-17.921c9.477-3.445 18.052-8.364 25.473-14.6" fill="#52796F"/><path d="M221.673 286.904a1 1 0 0 1-.738-1.676l16.418-17.921a1 1 0 0 1 .396-.264c9.36-3.403 17.829-8.257 25.172-14.427a1 1 0 0 1 1.38 1.441l-16.419 17.921a1 1 0 0 1-.094.09c-7.521 6.32-16.193 11.291-25.774 14.774a.946.946 0 0 1-.341.062zm16.99-18.065-13.344 14.565c7.768-3.26 14.861-7.562 21.132-12.824l9.418-10.279c-5.318 3.432-11.075 6.29-17.206 8.538z" fill="#111"/><path d="M61.259 107.186 44.84 125.107 10.844 94.805l16.419-17.921z" fill="#52796F"/><path d="M44.84 126.107a.999.999 0 0 1-.665-.253L10.179 95.551a.997.997 0 0 1-.072-1.422l16.419-17.921a1 1 0 0 1 1.403-.071l33.996 30.302a.997.997 0 0 1 .072 1.422l-16.419 17.921a.997.997 0 0 1-.738.325zM12.266 94.733l32.503 28.972 15.068-16.446-32.503-28.972z" fill="#111"/><path d="M27.263 76.884 10.844 94.805c-2.576-2.13-3.497-5.512-2.097-7.757l16.419-17.921c-1.4 2.245-.479 5.627 2.097 7.757" fill="#52796F"/><path d="M10.844 95.805a.995.995 0 0 1-.637-.229c-2.993-2.474-3.985-6.368-2.308-9.056a.986.986 0 0 1 .111-.146l16.419-17.921a1 1 0 0 1 1.585 1.204c-1.13 1.812-.302 4.648 1.886 6.457a1.003 1.003 0 0 1 .1 1.447L11.581 95.48a.995.995 0 0 1-.737.325zm-1.293-8.154c-.941 1.606-.395 3.972 1.24 5.731l15.063-16.441c-1.298-1.344-2.09-2.976-2.296-4.579z" fill="#111"/><path d="m58.44 138.167-16.419 17.921c-.651-10.776.288-21.212 2.819-30.98l16.419-17.921c-2.531 9.767-3.47 20.204-2.819 30.98" fill="#52796F"/><path d="M42.02 157.087a1 1 0 0 1-.998-.939c-.659-10.92.299-21.448 2.85-31.291a1 1 0 0 1 .231-.425l16.419-17.921a1 1 0 0 1 1.706.926c-2.498 9.64-3.436 19.959-2.789 30.669.016.271-.078.536-.261.736l-16.419 17.921c-.194.21-.463.324-.739.324zm3.726-31.488c-2.268 8.854-3.223 18.277-2.845 28.048l14.516-15.844c-.532-9.392.135-18.491 1.985-27.109z" fill="#111"/><path d="m182.671 271.982-16.419 17.921c-11.162-1.948-22.357-5.438-33.239-10.37l16.419-17.921c10.882 4.932 22.077 8.422 33.239 10.37" fill="#52796F"/><path d="M166.253 290.903a1 1 0 0 1-.172-.015c-11.262-1.966-22.526-5.48-33.48-10.444a.998.998 0 0 1-.325-1.586l16.419-17.921a.999.999 0 0 1 1.15-.235c10.8 4.895 21.902 8.359 32.998 10.296a1.001 1.001 0 0 1 .566 1.661L166.99 290.58c-.191.207-.46.323-.737.323zm-31.566-11.716c10.227 4.52 20.714 7.76 31.199 9.636l14.824-16.181c-10.439-1.974-20.865-5.273-31.03-9.821z" fill="#111"/><path d="m241.563 314.051-34.14 2.449-16.419 17.921 34.14-2.449c1.236-.091 2.256-.591 2.966-1.366l16.419-17.921c-.711.776-1.73 1.275-2.966 1.366z" fill="#52796F"/><path d="M191.004 335.422a1 1 0 0 1-.737-1.676l16.418-17.921a1 1 0 0 1 .666-.322l34.14-2.449c.942-.07 1.736-.429 2.296-1.04l.004-.004a1 1 0 0 1 1.475 1.351l-.004.005-16.415 17.917c-.912.996-2.167 1.579-3.629 1.687l-34.142 2.449a.885.885 0 0 1-.072.003zm16.887-17.953-14.453 15.775 31.633-2.27c.942-.07 1.738-.43 2.3-1.043l13.591-14.835zm33.672-3.418h.01z" fill="#111"/><path d="m200.232 311.668-16.419 17.921-17.56-39.686 16.418-17.921z" fill="#52796F"/><path d="M183.813 330.589a1.001 1.001 0 0 1-.915-.595l-17.561-39.686a1 1 0 0 1 .177-1.08l16.419-17.921a1 1 0 0 1 1.652.271l17.56 39.686a1 1 0 0 1-.177 1.08l-16.418 17.921a.999.999 0 0 1-.737.324zm-16.381-40.493 16.677 37.689 14.943-16.311-16.677-37.689z" fill="#111"/><path d="m207.423 316.501-16.419 17.921a5.662 5.662 0 0 1-1.049-.021c-2.569-.283-5.106-2.225-6.142-4.812l16.419-17.921c1.036 2.587 3.573 4.528 6.142 4.812.35.038.701.046 1.049.021" fill="#52796F"/><path d="M190.599 335.436c-.249 0-.501-.014-.753-.042-2.948-.325-5.81-2.559-6.961-5.434a.998.998 0 0 1 .191-1.047l16.418-17.921a1.002 1.002 0 0 1 1.666.304c.889 2.219 3.078 3.942 5.324 4.19.294.032.584.039.866.018a1 1 0 0 1 .81 1.673l-16.419 17.921c-.172.188-.41.303-.664.322a7.53 7.53 0 0 1-.478.016zm-5.601-5.66c1.008 1.945 3.014 3.404 5.067 3.631.164.018.326.028.486.029l14.777-16.129c-2.123-.523-4.108-1.99-5.326-3.908z" fill="#111"/><path d="m97.716 224.25-16.419 17.921c-8.382-9.003-15.64-18.846-21.571-29.24l16.419-17.921c5.93 10.394 13.189 20.237 21.571 29.24" fill="#52796F"/><path d="M81.297 243.171a.997.997 0 0 1-.732-.319c-8.43-9.054-15.733-18.955-21.707-29.426a1.001 1.001 0 0 1 .131-1.171l16.419-17.921a1.002 1.002 0 0 1 1.606.18c5.897 10.337 13.109 20.112 21.434 29.054a1 1 0 0 1 .005 1.357l-16.419 17.921a.997.997 0 0 1-.733.324l-.004.001zm-20.339-30.103c5.654 9.799 12.489 19.085 20.336 27.627l15.063-16.441c-7.848-8.526-14.703-17.789-20.396-27.562z" fill="#111"/><path d="m76.145 195.01-16.419 17.921-40.665-2.412 16.418-17.921z" fill="#52796F"/><path d="M59.726 213.931c-.02 0-.039 0-.059-.002l-40.666-2.412a1 1 0 0 1-.678-1.674l16.419-17.921a.987.987 0 0 1 .797-.323l40.666 2.412a1 1 0 0 1 .678 1.674l-16.419 17.921a.999.999 0 0 1-.738.325zm-38.509-4.286 38.094 2.26 14.678-16.021-38.093-2.26z" fill="#111"/><path d="M17.689 152.271c-.573-1.873-.208-3.618.842-4.764L2.113 165.428c-1.05 1.147-1.415 2.891-.842 4.764l10.911 34.995 16.419-17.92z" fill="#52796F"/><path d="M12.181 206.187a1.004 1.004 0 0 1-.955-.702L.316 170.49c-.658-2.152-.262-4.295 1.059-5.738l16.419-17.921a1 1 0 1 1 1.475 1.351l-.003.003c-.835.914-1.068 2.33-.622 3.789l10.91 34.994a1 1 0 0 1-.217.973l-16.419 17.92a.995.995 0 0 1-.737.326zm4.279-54.938L2.85 166.104c-.838.915-1.071 2.334-.623 3.796l10.392 33.33 14.856-16.214-10.739-34.447-.001-.005a6.94 6.94 0 0 1-.275-1.315z" fill="#111"/><path d="M35.479 192.598 19.06 210.519c-3.329-.34-6.009-2.549-6.88-5.331l16.42-17.921c.87 2.782 3.551 4.992 6.879 5.331" fill="#52796F"/><path d="M19.06 211.519a1.16 1.16 0 0 1-.102-.005c-3.612-.369-6.719-2.791-7.732-6.028a1 1 0 0 1 .217-.974l16.419-17.921a1.002 1.002 0 0 1 1.692.376c.777 2.484 3.199 4.347 6.027 4.635a1 1 0 0 1 .636 1.67l-16.419 17.921a.996.996 0 0 1-.738.326zm-5.732-6.103c.877 2.079 2.931 3.636 5.348 4.043l14.876-16.237c-2.25-.693-4.156-2.196-5.252-4.147z" fill="#111"/><path d="m125.661 288.753-16.419 17.921c-.972 1.061-2.444 1.513-4.013 1.34-1.138-.125-2.328-.58-3.415-1.368l16.419-17.921c1.087.788 2.277 1.243 3.415 1.368 1.569.173 3.04-.279 4.013-1.34" fill="#52796F"/><path d="M105.872 309.05c-.248 0-.499-.014-.752-.042-1.351-.149-2.697-.686-3.893-1.553a1 1 0 0 1-.15-1.485l16.419-17.921a1 1 0 0 1 1.324-.134c.915.664 1.93 1.073 2.937 1.184 1.284.141 2.437-.229 3.162-1.018l.004-.004a1 1 0 1 1 1.475 1.351c-.373.407 0 0-.001.001l-16.418 17.92c-1.007 1.1-2.476 1.701-4.107 1.701zm-2.501-2.623a5.855 5.855 0 0 0 1.967.594c1.286.142 2.441-.231 3.166-1.022l13.625-14.871a7.01 7.01 0 0 1-.591-.04 7.99 7.99 0 0 1-3.14-1.062z" fill="#111"/><path d="m83.68 257.992-16.419 17.921 14.036-33.742 16.419-17.921z" fill="#52796F"/><path d="M67.26 276.913a1 1 0 0 1-.922-1.384l14.036-33.742c.045-.107.108-.206.186-.292l16.419-17.921a.999.999 0 0 1 1.66 1.06l-14.036 33.742a1.029 1.029 0 0 1-.186.292l-16.419 17.921a.999.999 0 0 1-.738.324zm14.893-34.196-11.781 28.319 12.451-13.59 11.781-28.319zm1.527 15.275h.01z" fill="#111"/><path d="m118.233 288.725-16.419 17.921-31.834-23.01 16.419-17.921z" fill="#52796F"/><path d="M101.814 307.646a.997.997 0 0 1-.585-.189l-31.834-23.01a1 1 0 0 1-.151-1.486l16.419-17.921a1 1 0 0 1 1.323-.135l31.834 23.01a1 1 0 0 1 .151 1.486l-16.419 17.921a1.004 1.004 0 0 1-.738.324zm-30.338-24.163 30.202 21.831 15.059-16.436-30.202-21.831z" fill="#111"/><path d="M86.399 265.715 69.98 283.636c-2.7-1.959-3.889-5.309-2.719-7.723l16.419-17.921c-1.17 2.414.019 5.764 2.719 7.723" fill="#52796F"/><path d="M69.979 284.636a.994.994 0 0 1-.587-.191c-3.112-2.257-4.415-6.113-3.032-8.968a.997.997 0 0 1 .163-.24l16.419-17.921a1 1 0 0 1 1.637 1.111c-.951 1.963.106 4.808 2.406 6.477a1 1 0 0 1 .15 1.485L70.716 284.31a.993.993 0 0 1-.737.326zm-1.875-8.163c-.758 1.747.005 4.134 1.779 5.789l15.067-16.445c-1.47-1.361-2.398-3.106-2.65-4.838z" fill="#111"/><path d="M333.794 165.264c.931 2.973-.524 5.602-3.347 6.069l-37.403 8.036c.672 10.778-.288 21.211-2.798 30.982l33.993 30.281c2.579 2.15 3.476 5.51 2.078 7.775l-16.402 26.489c-.915 1.467-2.622 2.137-4.476 1.933-.983-.108-2.007-.462-2.976-1.074l-38.898-22.374c-7.421 6.236-15.996 11.155-25.473 14.6l7.395 40.41c.681 2.987-1.025 5.444-3.923 5.658l-34.14 2.449a5.662 5.662 0 0 1-1.049-.021c-2.569-.283-5.106-2.225-6.142-4.812l-17.56-39.686c-11.162-1.948-22.357-5.438-33.239-10.37l-23.559 26.889c-.962 1.241-2.537 1.778-4.225 1.592-1.138-.125-2.328-.58-3.415-1.368l-31.834-23.01c-2.7-1.959-3.889-5.309-2.719-7.723l14.036-33.742c-8.382-9.003-15.64-18.846-21.571-29.24l-40.666-2.412c-3.329-.34-6.009-2.549-6.88-5.331L17.69 152.269c-.909-2.971.543-5.62 3.347-6.07l37.403-8.035c-.651-10.776.288-21.212 2.819-30.98l-33.996-30.3c-2.576-2.13-3.497-5.512-2.097-7.757l16.423-26.486c.914-1.482 2.614-2.149 4.47-1.944.981.108 2.006.46 2.98 1.064l38.88 22.393c7.418-6.256 15.993-11.175 25.471-14.621l-7.374-40.409c-.682-2.987 1.028-5.423 3.926-5.637l34.116-2.472a5.751 5.751 0 0 1 1.049.02c2.573.284 5.125 2.23 6.145 4.833l17.558 39.665c11.162 1.948 22.36 5.459 33.239 10.37l23.559-26.889c.958-1.236 2.525-1.767 4.206-1.582 1.145.126 2.343.585 3.437 1.378l31.853 22.991c2.7 1.958 3.891 5.33 2.719 7.723L253.79 93.287c8.358 8.98 15.619 18.844 21.549 29.238l40.663 2.392c3.35.342 6.03 2.551 6.901 5.333zm-147.401 75.284c46.028 5.075 78.573-27.426 72.691-72.591s-47.965-85.894-93.993-90.969S86.518 104.414 92.4 149.58c5.882 45.164 47.965 85.893 93.993 90.968" fill="#CAD2C5"/><path d="M207.019 317.515a6.86 6.86 0 0 1-.754-.042c-2.947-.325-5.81-2.559-6.961-5.434l-17.331-39.165c-10.855-1.941-21.706-5.319-32.276-10.046l-23.071 26.332c-1.114 1.44-2.98 2.159-5.087 1.927-1.351-.149-2.697-.686-3.892-1.553l-31.833-23.009c-3.114-2.259-4.417-6.114-3.033-8.969l13.766-33.097c-8.119-8.79-15.18-18.367-21-28.483l-40.126-2.38c-3.654-.372-6.762-2.795-7.775-6.031l-10.911-34.996c-.556-1.817-.378-3.591.5-5 .791-1.269 2.085-2.105 3.644-2.355l36.515-7.846c-.548-10.395.375-20.427 2.747-29.841L26.598 77.631c-2.965-2.45-3.957-6.344-2.28-9.032L40.74 42.115c1.088-1.764 3.12-2.667 5.429-2.411 1.152.127 2.327.544 3.397 1.208L87.814 62.94c7.17-5.942 15.386-10.666 24.442-14.053l-7.223-39.582c-.397-1.734-.094-3.425.863-4.719.907-1.228 2.318-1.972 3.973-2.094L143.986.02c.403-.03.818-.022 1.231.024 2.97.327 5.835 2.573 6.966 5.462l17.326 39.138c10.786 1.929 21.638 5.308 32.275 10.047l23.073-26.333c1.107-1.432 2.969-2.149 5.067-1.917 1.358.15 2.711.69 3.915 1.563l31.851 22.99c3.125 2.267 4.427 6.124 3.032 8.973L254.96 93.081c8.09 8.762 15.144 18.338 20.978 28.48l40.123 2.36c3.668.373 6.784 2.796 7.797 6.033l10.893 35.015c.562 1.798.396 3.56-.467 4.963-.788 1.28-2.092 2.129-3.672 2.39l-36.519 7.847c.562 10.313-.355 20.345-2.728 29.842l33.54 29.878c2.943 2.453 3.927 6.351 2.265 9.047l-16.403 26.49c-1.097 1.759-3.13 2.655-5.436 2.401-1.16-.128-2.335-.55-3.4-1.222l-38.26-22.006c-7.187 5.935-15.402 10.651-24.443 14.034l7.244 39.583c.398 1.741.092 3.44-.87 4.741-.908 1.229-2.316 1.972-3.964 2.094l-34.142 2.449a7.55 7.55 0 0 1-.477.015zm-57.586-56.903c.139 0 .28.029.413.089 10.8 4.895 21.902 8.359 32.998 10.296a1 1 0 0 1 .743.581l17.56 39.686c.903 2.252 3.092 3.975 5.337 4.222.294.032.584.039.866.018l34.141-2.449c1.056-.078 1.945-.535 2.501-1.287.61-.825.794-1.944.519-3.15l-7.404-40.453c-.087-.48.184-.953.642-1.12 9.36-3.403 17.829-8.257 25.172-14.427a1 1 0 0 1 1.142-.101l38.898 22.374c.845.531 1.727.852 2.587.947 1.521.168 2.84-.381 3.519-1.469l16.4-26.486c1.124-1.822.303-4.669-1.869-6.48L289.58 211.1a1.001 1.001 0 0 1-.304-.995c2.5-9.731 3.431-20.05 2.769-30.671a1 1 0 0 1 .788-1.04l37.403-8.036c1.062-.177 1.855-.684 2.342-1.474.555-.903.648-2.081.261-3.319l-.001-.001-10.892-35.014c-.776-2.482-3.207-4.346-6.047-4.635l-40.62-2.388a.999.999 0 0 1-.81-.503c-5.914-10.365-13.118-20.14-21.413-29.052a.999.999 0 0 1-.191-1.065l14.034-33.763c.983-2.012-.075-4.855-2.383-6.53l-31.851-22.99c-.924-.671-1.947-1.083-2.96-1.195-1.392-.152-2.597.284-3.306 1.2l-23.598 26.935a.999.999 0 0 1-1.164.252c-10.873-4.908-21.975-8.372-32.999-10.296a.998.998 0 0 1-.742-.58L150.337 6.273c-.888-2.265-3.077-3.994-5.34-4.243a4.745 4.745 0 0 0-.866-.017l-34.117 2.472c-1.062.079-1.954.536-2.51 1.288-.605.818-.787 1.929-.513 3.129l7.382 40.451a.999.999 0 0 1-.642 1.119c-9.376 3.409-17.844 8.27-25.167 14.446-.322.271-.78.312-1.144.102L48.54 42.627c-.846-.523-1.733-.842-2.591-.936-1.548-.171-2.825.367-3.509 1.476L26.016 69.655c-1.132 1.814-.303 4.65 1.884 6.459l34.024 30.326a1 1 0 0 1 .303.997c-2.498 9.64-3.436 19.959-2.789 30.669a1 1 0 0 1-.788 1.038l-37.403 8.035c-1.045.169-1.827.666-2.314 1.448-.568.91-.669 2.101-.286 3.352l10.909 34.99c.777 2.483 3.199 4.346 6.027 4.634l40.624 2.409c.337.02.642.209.809.503 5.897 10.337 13.109 20.112 21.434 29.054a.999.999 0 0 1 .191 1.065l-14.036 33.742c-.975 2.015.083 4.86 2.383 6.529l31.833 23.009c.916.665 1.932 1.074 2.939 1.185 1.4.154 2.61-.288 3.325-1.211l23.597-26.936a.995.995 0 0 1 .751-.34zm46.385-18.537a87.11 87.11 0 0 1-9.534-.533c-46.385-5.114-88.947-46.31-94.875-91.833-2.852-21.9 3.09-41.623 16.731-55.535 13.963-14.24 34.227-20.696 57.061-18.179 46.385 5.114 88.946 46.311 94.875 91.834 2.852 21.899-3.09 41.622-16.731 55.535-11.987 12.223-28.616 18.711-47.527 18.711zM155.674 77.462c-18.375 0-34.505 6.279-46.107 18.112-13.202 13.465-18.947 32.599-16.176 53.877 5.817 44.664 47.587 85.084 93.111 90.104 22.214 2.449 41.89-3.799 55.414-17.592 13.203-13.465 18.947-32.599 16.176-53.876-5.817-44.664-47.586-85.085-93.111-90.104a84.71 84.71 0 0 0-9.307-.521z" fill="#111"/></svg></g><g transform="translate(1018.0 693.0) rotate(0.0 -109.0 119.0) scale(-1.0126488198925105 1.00422788377961)"><svg width="215.277" height="236.998" viewBox="0 0 215.277 236.998"><path d="M135.252 17.667c-.16-1.145-.714-2.076-1.517-2.672L115.873 1.728c.803.597 1.357 1.527 1.517 2.673l2.845 21.058 17.862 13.266z" fill="#52796F"/><path d="M138.097 39.725a.998.998 0 0 1-.596-.197l-17.862-13.266a1.002 1.002 0 0 1-.395-.669l-2.845-21.058c-.117-.84-.516-1.554-1.122-2.004a1 1 0 1 1 1.195-1.604l17.859 13.265c1.04.772 1.718 1.957 1.911 3.336l.001.005 2.845 21.058a1 1 0 0 1-.991 1.134zm-16.928-14.817 15.619 11.6-2.527-18.704c-.119-.844-.517-1.556-1.123-2.005L118.466 4.9z" fill="#111"/><path d="m39.468 182.246-19.672 11.547c-.95.549-1.949.776-2.87.702a3.775 3.775 0 0 1-1.967-.723l17.862 13.267c.566.42 1.242.664 1.967.723.922.074 1.921-.153 2.87-.703l19.673-11.547z" fill="#52796F"/><path d="M35.131 208.775c-.142 0-.283-.005-.424-.017a4.808 4.808 0 0 1-2.483-.917l-17.858-13.264-.003-.002a1 1 0 0 1 1.192-1.606c.407.302.909.485 1.45.529.749.06 1.541-.138 2.29-.571l19.666-11.543a.997.997 0 0 1 1.102.06l17.862 13.266a1.001 1.001 0 0 1-.09 1.665l-19.672 11.547c-.972.562-2.011.853-3.032.853zm-16.415-13.458 14.701 10.919c.406.302.908.485 1.452.529.747.056 1.539-.138 2.288-.572l18.364-10.779-16.118-11.971-19.101 11.211a6.48 6.48 0 0 1-1.586.663z" fill="#111"/><path d="m123.737 78.15 17.862 13.267c-4.345-3.227-9.618-5.233-15.457-5.702-4.067-.326-8.411.092-12.904 1.363-17.519 4.964-31.851 22.254-33.81 40.81-1.434 13.471 3.527 24.604 12.102 30.973l-17.862-13.267c-8.576-6.369-13.536-17.502-12.102-30.973 1.959-18.555 16.292-35.845 33.81-40.81 4.493-1.271 8.838-1.69 12.904-1.363 5.839.469 11.112 2.475 15.457 5.702" fill="#52796F"/><path d="M91.529 159.861a.995.995 0 0 1-.595-.197l-.017-.012-17.845-13.254c-9.361-6.953-13.917-18.573-12.5-31.882 2.011-19.042 16.533-36.565 34.532-41.666 4.499-1.273 8.96-1.743 13.257-1.398 5.894.474 11.417 2.512 15.973 5.896l17.849 13.257.013.01a1 1 0 0 1-1.192 1.606l-.006-.004c-4.254-3.157-9.418-5.061-14.935-5.504-4.059-.323-8.283.122-12.552 1.329-17.244 4.886-31.159 21.689-33.088 39.952-1.34 12.587 2.926 23.545 11.704 30.065a1 1 0 0 1-.598 1.802zm14.079-86.519c-3.253 0-6.593.479-9.96 1.432-17.244 4.886-31.159 21.689-33.088 39.952-1.34 12.587 2.926 23.545 11.704 30.065l9.16 6.804c-4.167-6.543-5.952-14.79-4.991-23.813 2.011-19.042 16.534-36.565 34.532-41.666 4.499-1.272 8.957-1.746 13.257-1.398 2.111.169 4.175.54 6.164 1.101l-9.245-6.866c-4.255-3.16-9.421-5.064-14.941-5.508a32.286 32.286 0 0 0-2.592-.103z" fill="#111"/><path d="m77.175 198.271 17.862 13.267c-12.563-1.088-23.916-5.461-33.295-12.427L43.88 185.844c9.379 6.966 20.733 11.339 33.295 12.427" fill="#52796F"/><path d="M95.038 212.537a.844.844 0 0 1-.087-.004c-12.451-1.078-24.14-5.442-33.805-12.62l-17.862-13.267a1 1 0 0 1 1.192-1.606l.02.015c9.363 6.948 20.692 11.173 32.765 12.219.185.016.361.083.51.193l17.862 13.267a1 1 0 0 1-.595 1.803zm-37.859-18.061 5.159 3.832c8.413 6.248 18.414 10.297 29.117 11.815l-14.649-10.881c-6.846-.621-13.459-2.236-19.627-4.766z" fill="#111"/><path d="M201.266 44.276a3.69 3.69 0 0 0-.954-1.052L182.45 29.957c.372.276.695.628.954 1.053l12.411 20.611 17.862 13.267z" fill="#52796F"/><path d="M213.678 65.889a.998.998 0 0 1-.596-.197L195.22 52.425a.99.99 0 0 1-.26-.287l-12.412-20.612a2.696 2.696 0 0 0-.694-.766 1 1 0 0 1 1.193-1.605l17.862 13.267a4.689 4.689 0 0 1 1.213 1.338l12.412 20.612a.998.998 0 0 1-.185 1.256.99.99 0 0 1-.671.261zm-17.107-14.952 13.638 10.129-9.799-16.272a2.704 2.704 0 0 0-.694-.767l-13.218-9.818z" fill="#111"/><path d="m194.592 58.121 17.861 13.267L195.848 88l-17.861-13.266z" fill="#52796F"/><path d="M195.848 89c-.208 0-.417-.065-.596-.197l-17.861-13.267a.998.998 0 0 1-.111-1.509l16.605-16.612a.999.999 0 0 1 1.303-.096l17.862 13.267a.998.998 0 0 1 .111 1.509l-16.605 16.612a1 1 0 0 1-.708.293zm-16.335-14.379 16.239 12.062L210.928 71.5l-16.239-12.062z" fill="#111"/><path d="m195.816 51.622 17.862 13.267c1.131 1.892.624 4.666-1.225 6.499l-17.862-13.267c1.849-1.833 2.357-4.607 1.225-6.499" fill="#52796F"/><path d="M212.453 72.388c-.208 0-.417-.065-.596-.197l-17.862-13.267a1 1 0 0 1-.108-1.512c1.512-1.5 1.972-3.768 1.07-5.276a1 1 0 0 1 1.455-1.316l17.862 13.267a.995.995 0 0 1 .262.29c1.382 2.312.802 5.56-1.379 7.723-.193.19-.448.288-.704.288zm-16.404-14.43 16.255 12.073c1.014-1.394 1.275-3.174.606-4.468l-15.49-11.505c-.032 1.341-.504 2.72-1.371 3.9z" fill="#111"/><path d="M177.987 74.734 195.848 88c1.852 6.927 2.81 14.39 2.702 22.33-.103 7.918-1.244 15.775-3.279 23.403l-17.862-13.267c2.035-7.628 3.177-15.485 3.279-23.403.108-7.94-.85-15.403-2.701-22.329" fill="#52796F"/><path d="M195.27 134.733a.998.998 0 0 1-.596-.197l-17.861-13.267a1 1 0 0 1-.37-1.061c2.054-7.698 3.146-15.49 3.245-23.159.104-7.626-.793-15.047-2.667-22.058a1 1 0 0 1 1.562-1.061l17.861 13.267a.997.997 0 0 1 .37.544c1.921 7.188 2.842 14.792 2.735 22.602-.102 7.833-1.216 15.79-3.313 23.647a1.002 1.002 0 0 1-.966.743zm-16.722-14.666 16.126 11.978c1.815-7.232 2.782-14.534 2.875-21.729.103-7.505-.765-14.811-2.579-21.722l-15.343-11.396c1.46 6.375 2.153 13.048 2.06 19.878-.098 7.615-1.154 15.347-3.139 22.991z" fill="#111"/><path d="m110.043 218.072-25.397 4.579a4.407 4.407 0 0 1-1.175.067 3.72 3.72 0 0 1-1.939-.716l17.862 13.267c.547.407 1.21.657 1.939.716.376.03.77.01 1.175-.068l25.397-4.578z" fill="#52796F"/><path d="M101.668 236.997c-.139 0-.277-.005-.415-.016a4.743 4.743 0 0 1-2.457-.911l-17.861-13.266h-.001a1 1 0 0 1 1.193-1.605l.005.003a2.73 2.73 0 0 0 1.418.518c.292.024.598.006.911-.053l25.405-4.58a.993.993 0 0 1 .773.181l17.861 13.267a1 1 0 0 1-.419 1.787l-25.396 4.578a5.365 5.365 0 0 1-1.017.097zM85.293 223.55l14.696 10.916c.402.299.894.479 1.423.522.296.023.601.006.908-.053l23.133-4.17-15.66-11.632z" fill="#111"/><path d="m118.147 190.868 17.861 13.267-3.395 22.178-17.862-13.267z" fill="#52796F"/><path d="M132.613 227.313a1 1 0 0 1-.596-.197l-17.862-13.267a1 1 0 0 1-.392-.954l3.395-22.178a.998.998 0 0 1 1.585-.651l17.862 13.267a1 1 0 0 1 .392.954l-3.395 22.178a.998.998 0 0 1-.989.848zm-16.782-14.711 16.045 11.917 3.053-19.941-16.045-11.917z" fill="#111"/><path d="m114.751 213.046 17.862 13.267c-.372 2.47-2.376 4.605-4.709 5.026l-17.862-13.267c2.333-.42 4.338-2.556 4.709-5.026" fill="#52796F"/><path d="M127.904 232.338a1 1 0 0 1-.596-.197l-17.862-13.267a1 1 0 0 1 .419-1.787c1.915-.344 3.59-2.146 3.897-4.19a.998.998 0 0 1 1.585-.653l17.862 13.267a1 1 0 0 1 .393.952c-.437 2.898-2.758 5.363-5.521 5.861a1.173 1.173 0 0 1-.177.014zm-15.78-13.966 16.004 11.887c1.566-.455 2.91-1.866 3.373-3.526l-16.176-12.015c-.618 1.554-1.778 2.87-3.201 3.654z" fill="#111"/><path d="m156.442 161.116 17.862 13.267c-10.426 12.762-23.59 23.189-38.295 29.752l-17.862-13.267c14.705-6.564 27.869-16.99 38.295-29.752" fill="#52796F"/><path d="M136.008 205.135a1 1 0 0 1-.596-.197l-17.862-13.267a1 1 0 0 1 .188-1.716c14.263-6.367 27.379-16.558 37.929-29.472a1 1 0 0 1 1.371-.17L174.9 173.58a1.002 1.002 0 0 1 .178 1.436c-10.747 13.155-24.116 23.54-38.662 30.033a1.02 1.02 0 0 1-.408.086zm-15.907-14.061 16.032 11.908c13.758-6.246 26.428-16.051 36.729-28.424l-16.254-12.072c-10.255 12.341-22.831 22.187-36.507 28.588z" fill="#111"/><path d="m193.822 131.232 17.862 13.267c1.679 1.247 2.065 3.742.9 5.984l-17.862-13.267c1.165-2.243.779-4.737-.9-5.984" fill="#52796F"/><path d="M212.584 151.483a1 1 0 0 1-.596-.197l-17.862-13.266a1 1 0 0 1-.292-1.264c.927-1.785.671-3.771-.608-4.721a1 1 0 0 1 1.192-1.606l.004.003 17.857 13.264c2.072 1.539 2.573 4.587 1.192 7.248a1 1 0 0 1-.887.539zM195.96 136.89l16.163 12.004c.35-1.438-.021-2.84-1.035-3.593l-14.705-10.922c.028.82-.11 1.675-.423 2.511z" fill="#111"/><path d="m176.478 165.672 17.861 13.267-20.035-4.557-17.862-13.266z" fill="#52796F"/><path d="M194.34 179.939a.988.988 0 0 1-.222-.025l-20.036-4.557a1.001 1.001 0 0 1-.375-.172l-17.862-13.267a1 1 0 0 1 .818-1.778l20.036 4.557c.136.031.263.089.375.172l17.862 13.267a1 1 0 0 1-.596 1.803zm-19.609-6.485 15.201 3.457L176.05 166.6l-15.201-3.457z" fill="#111"/><path d="m194.722 137.216 17.862 13.267-12.991 25.212-17.861-13.267z" fill="#52796F"/><path d="M199.593 176.695a1 1 0 0 1-.596-.197l-17.861-13.267a1 1 0 0 1-.293-1.261l12.99-25.211a1 1 0 0 1 1.485-.345l17.862 13.266a1 1 0 0 1 .293 1.261l-12.991 25.212a1 1 0 0 1-.889.542zm-16.583-14.563 16.234 12.058 12.062-23.41-16.234-12.057z" fill="#111"/><path d="m181.732 162.428 17.862 13.267c-1.078 2.112-3.247 3.405-5.254 3.244l-17.862-13.267c2.007.161 4.176-1.132 5.254-3.244" fill="#52796F"/><path d="M194.671 179.952c-.138 0-.275-.005-.412-.017a.995.995 0 0 1-.516-.194l-17.862-13.267a1 1 0 0 1 .676-1.799c1.643.125 3.405-.979 4.284-2.702a1 1 0 0 1 1.487-.348l17.861 13.267a.998.998 0 0 1 .294 1.257c-1.166 2.287-3.51 3.803-5.812 3.803zm-15.723-13.69 15.74 11.691c1.322-.001 2.685-.775 3.576-1.999l-16.258-12.076a7.1 7.1 0 0 1-3.058 2.384z" fill="#111"/><path d="M193.661 131.119c1.815 1.204 2.263 3.785 1.062 6.098l-12.99 25.212c-1.078 2.112-3.247 3.405-5.254 3.244l-20.036-4.556c-10.426 12.762-23.59 23.189-38.295 29.752l-3.395 22.178c-.372 2.47-2.376 4.605-4.709 5.026l-25.397 4.579a4.366 4.366 0 0 1-1.175.067c-1.795-.144-3.187-1.45-3.451-3.389l-2.845-21.058c-14.604-1.265-27.574-6.969-37.707-16.025l-19.672 11.547c-.949.549-1.949.776-2.87.702-1.2-.097-2.269-.704-2.92-1.775L1.594 172.107c-1.131-1.892-.604-4.665 1.225-6.499l16.605-16.612c-1.852-6.927-2.81-14.39-2.702-22.33.103-7.918 1.238-15.753 3.274-23.381L3.75 92.611c-1.814-1.204-2.263-3.785-1.062-6.098l12.99-25.212c1.078-2.112 3.247-3.405 5.254-3.244l20.036 4.556c10.426-12.762 23.59-23.188 38.295-29.752l3.395-22.178c.372-2.47 2.397-4.604 4.729-5.024l25.376-4.58a4.428 4.428 0 0 1 1.172-.066c1.806.145 3.185 1.464 3.454 3.388l2.845 21.058c14.619 1.288 27.574 6.969 37.727 16.027l19.652-11.548c.949-.549 1.949-.776 2.87-.702 1.201.097 2.269.704 2.921 1.775l12.411 20.612c1.131 1.892.624 4.666-1.225 6.499l-16.605 16.612c1.852 6.927 2.81 14.39 2.702 22.33-.103 7.918-1.244 15.775-3.279 23.403zm-91.627 18.799c17.519-4.965 31.851-22.254 33.81-40.81 2.157-20.28-10.2-35.266-27.564-36.661-4.067-.326-8.411.092-12.904 1.363-17.519 4.964-31.851 22.254-33.81 40.81-2.16 20.288 10.186 35.274 27.541 36.669 4.074.328 8.424-.093 12.927-1.371" fill="#fff"/><path d="M83.805 223.731c-.139 0-.277-.005-.414-.017-2.287-.183-4.04-1.892-4.362-4.251l-2.738-20.27c-13.979-1.369-26.72-6.79-36.941-15.718l-19.047 11.179c-1.108.641-2.302.93-3.457.836-1.553-.125-2.9-.946-3.695-2.252L.737 172.624c-1.374-2.299-.796-5.545 1.373-7.722l16.2-16.207c-1.821-7.021-2.692-14.434-2.588-22.043.099-7.6 1.149-15.309 3.124-22.926L3.2 93.447c-2.259-1.5-2.846-4.608-1.4-7.395l12.99-25.208c1.235-2.421 3.792-3.979 6.223-3.783a.973.973 0 0 1 .142.021l19.433 4.419c10.556-12.778 23.594-22.903 37.77-29.329l3.313-21.641c.435-2.892 2.765-5.356 5.54-5.857l25.376-4.58a5.36 5.36 0 0 1 1.43-.079c2.281.183 4.035 1.889 4.364 4.245l2.739 20.275c13.997 1.391 26.745 6.812 36.96 15.719l19.027-11.182c1.109-.641 2.3-.93 3.457-.836 1.553.124 2.9.945 3.695 2.252l12.414 20.615c1.384 2.315.804 5.563-1.377 7.726L179.1 75.035c1.821 7.023 2.692 14.436 2.588 22.042-.099 7.601-1.151 15.317-3.128 22.948l15.649 10.257.004.003c2.256 1.497 2.843 4.605 1.396 7.393l-12.989 25.208c-1.235 2.421-3.793 3.979-6.224 3.783a.973.973 0 0 1-.142-.021l-19.434-4.419c-10.555 12.777-23.593 22.903-37.77 29.329l-3.313 21.641c-.436 2.896-2.757 5.361-5.52 5.858l-25.396 4.578a5.444 5.444 0 0 1-1.016.096zm-44.337-42.485a1 1 0 0 1 .667.254c10.18 9.098 23.018 14.552 37.127 15.774a1 1 0 0 1 .905.862l2.845 21.058c.197 1.448 1.17 2.417 2.54 2.526.292.021.599.005.909-.053l25.405-4.581c1.915-.344 3.59-2.146 3.897-4.19l3.396-22.181a1 1 0 0 1 .581-.762c14.263-6.367 27.379-16.558 37.929-29.472a1 1 0 0 1 .996-.342l19.961 4.54c1.631.094 3.35-1.007 4.217-2.707l12.992-25.215c.968-1.865.664-3.884-.723-4.805l-16.249-10.65a1.001 1.001 0 0 1-.418-1.094c2.054-7.698 3.146-15.49 3.245-23.159.104-7.626-.793-15.047-2.667-22.058a1 1 0 0 1 .259-.965l16.605-16.612c1.515-1.502 1.975-3.771 1.073-5.279l-12.41-20.609c-.462-.76-1.224-1.221-2.144-1.294-.745-.058-1.54.137-2.29.571L158.47 42.348a.998.998 0 0 1-1.172-.116c-10.174-9.076-23.02-14.531-37.149-15.776a1 1 0 0 1-.903-.862l-2.845-21.058c-.202-1.445-1.177-2.415-2.543-2.524a3.516 3.516 0 0 0-.908.052L87.565 6.643c-1.927.348-3.611 2.148-3.918 4.189l-3.395 22.181c-.052.336-.27.623-.581.762-14.262 6.365-27.378 16.556-37.928 29.471-.24.293-.626.425-.996.342L20.786 59.05c-1.626-.098-3.35 1.007-4.217 2.707L3.577 86.971c-.968 1.865-.663 3.886.726 4.807l16.242 10.671a1 1 0 0 1 .417 1.094c-2.051 7.685-3.141 15.469-3.24 23.136-.104 7.628.794 15.049 2.668 22.059a.998.998 0 0 1-.259.965L3.526 166.315c-1.507 1.512-1.969 3.782-1.074 5.279l12.41 20.609c.462.759 1.224 1.22 2.144 1.294.748.059 1.54-.138 2.289-.571l19.667-11.543a1 1 0 0 1 .506-.137zm52.31-28.85c-.924 0-1.841-.037-2.752-.11-8.413-.676-15.92-4.515-21.139-10.809-5.822-7.021-8.42-16.597-7.316-26.963 2.011-19.042 16.533-36.565 34.532-41.666 4.499-1.273 8.96-1.743 13.257-1.398 8.421.676 15.936 4.518 21.16 10.817 5.821 7.02 8.42 16.589 7.319 26.946-2.011 19.042-16.533 36.565-34.532 41.666-3.555 1.01-7.085 1.517-10.529 1.517zm13.83-79.054c-3.253 0-6.593.479-9.96 1.432-17.244 4.886-31.159 21.689-33.088 39.952-1.046 9.826 1.393 18.873 6.867 25.475 4.871 5.875 11.889 9.459 19.759 10.092 4.066.327 8.296-.123 12.575-1.337 17.244-4.887 31.16-21.689 33.088-39.953 1.044-9.817-1.396-18.858-6.869-25.458-4.876-5.88-11.901-9.467-19.78-10.101a32.757 32.757 0 0 0-2.592-.102z" fill="#111"/></svg></g><g transform="translate(579.0 1201.0) rotate(0.0 -235.5 188.0) scale(-1.018763856594387 1.0185395875998222)"><svg width="462.325" height="369.156" viewBox="0 0 462.325 369.156"><path d="M247.511 19.643c-1.274-2.62-3.135-4.706-5.403-6.148L226.06 3.289c2.267 1.441 4.129 3.527 5.403 6.148l14.693 30.038 16.048 10.207z" fill="#354F52"/><path d="M262.204 50.681a.997.997 0 0 1-.537-.156l-16.048-10.207a1 1 0 0 1-.362-.404L230.564 9.876c-1.169-2.405-2.912-4.39-5.041-5.743a.999.999 0 1 1 1.075-1.686l16.045 10.204c2.442 1.554 4.436 3.82 5.765 6.555L263.1 49.242a1 1 0 0 1-.896 1.439zM246.93 38.782l12.816 8.151-13.134-26.851-.001-.002c-1.167-2.401-2.91-4.387-5.04-5.742l-9.608-6.11c.139.252.272.51.399.771z" fill="#111"/><path d="m455.208 45.019-16.047-10.207c4.486 2.854 6.928 8.611 5.871 15.368l-43.304 276.853c-1.542 9.858-9.951 18.122-18.788 18.435L30.514 357.94c-2.778.098-5.268-.601-7.329-1.911l16.048 10.206c2.061 1.311 4.552 2.01 7.329 1.912l352.425-12.474c8.838-.312 17.246-8.576 18.788-18.435L461.08 60.387c1.057-6.757-1.385-12.515-5.872-15.368z" fill="#354F52"/><path d="M46.057 369.156c-2.683 0-5.217-.713-7.36-2.077l-16.044-10.203-.004-.003a.999.999 0 1 1 1.073-1.687c1.944 1.236 4.275 1.848 6.757 1.755l352.426-12.473c8.364-.296 16.365-8.188 17.835-17.59l43.304-276.853c.957-6.117-1.112-11.615-5.399-14.355l-.021-.014a.999.999 0 1 1 1.073-1.687l16.047 10.207c4.984 3.169 7.407 9.44 6.324 16.366l-43.304 276.852c-1.612 10.304-10.467 18.952-19.741 19.28L46.598 369.146c-.181.007-.361.01-.541.01zm-16.425-10.211 10.138 6.447c1.944 1.237 4.277 1.847 6.757 1.756l352.426-12.474c8.363-.295 16.364-8.186 17.835-17.59l43.304-276.852c.958-6.127-1.119-11.634-5.421-14.37l-10.117-6.435c1.544 3.098 2.094 6.892 1.466 10.907l-43.304 276.852c-1.611 10.302-10.466 18.951-19.74 19.28L30.55 358.94c-.308.01-.615.011-.918.005z" fill="#111"/><path d="M217.354 1.011c6.172-.218 11.435 2.926 14.109 8.426l14.693 30.038 185.674-6.572c8.837-.313 14.744 7.418 13.202 17.277l-43.304 276.852c-1.542 9.859-9.951 18.122-18.788 18.435L30.514 357.94c-8.837.313-14.764-7.443-13.222-17.302l49.51-316.529c1.542-9.859 9.975-18.123 18.812-18.436z" fill="#84A98C"/><path d="M30.005 358.949c-3.999 0-7.586-1.573-10.15-4.463-3.102-3.497-4.396-8.601-3.551-14.002l49.51-316.529C67.425 13.652 76.291 5.003 85.579 4.674L217.318.011C223.892-.22 229.513 3.139 232.362 9l14.407 29.453 185.025-6.549c4.209-.153 8.013 1.429 10.687 4.444 3.094 3.488 4.383 8.586 3.539 13.987l-43.304 276.852c-1.611 10.303-10.467 18.952-19.741 19.28L30.549 358.94c-.182.007-.364.009-.544.009zM217.353 1.01l.035 1L85.649 6.673c-8.377.296-16.389 8.188-17.86 17.591l-49.51 316.53c-.752 4.81.367 9.317 3.071 12.366 2.276 2.566 5.501 3.917 9.128 3.782l352.426-12.474c8.364-.296 16.365-8.187 17.835-17.59l43.304-276.852c.752-4.809-.363-9.311-3.059-12.351-2.271-2.56-5.491-3.906-9.121-3.772l-185.674 6.572c-.377.02-.76-.205-.934-.56L230.564 9.876c-2.494-5.13-7.393-8.073-13.175-7.866z" fill="#111"/><path d="M414.504 54.87 88.542 66.407c-7.156.253-13.982 6.943-15.235 14.953l-37.915 242.4c-1.253 8.01 3.545 14.287 10.7 14.034l325.963-11.537c7.156-.253 14.006-6.942 15.259-14.952l37.915-242.4c1.253-8.011-3.568-14.288-10.725-14.035" fill="#fff"/><path d="M45.679 338.802c-3.291 0-6.244-1.294-8.354-3.674-2.551-2.877-3.616-7.076-2.92-11.521l37.915-242.4c1.32-8.442 8.582-15.529 16.186-15.798l325.963-11.537c3.479-.126 6.612 1.183 8.824 3.677 2.552 2.878 3.618 7.074 2.924 11.511l-37.915 242.4c-1.32 8.441-8.592 15.527-16.211 15.797L46.128 338.794c-.15.005-.3.008-.449.008zM414.914 55.863c-.125 0-.249.002-.375.007L88.577 67.406c-6.695.237-13.102 6.566-14.281 14.108l-37.915 242.4c-.603 3.854.287 7.457 2.441 9.886 1.803 2.033 4.366 3.1 7.236 2.994l325.963-11.537c6.708-.237 13.126-6.566 14.306-14.108l37.915-242.4c.602-3.846-.29-7.445-2.445-9.875-1.73-1.949-4.163-3.011-6.883-3.011zm-.41-.993h.01z" fill="#111"/><g><path d="M408.855 66.981c8.837-.313 14.74 7.446 13.198 17.304l-36.373 232.54c-1.542 9.859-9.951 18.122-18.788 18.435L14.466 347.734c-8.837.313-14.764-7.443-13.222-17.302L34.47 118.011c1.542-9.859 9.975-18.123 18.812-18.436l141.225-4.998 21.486-16.293c4.011-3.046 8.557-4.779 12.951-4.935z" fill="#84A98C"/><path d="M13.957 348.743c-3.999 0-7.586-1.573-10.15-4.464-3.102-3.497-4.396-8.601-3.551-14.002l33.226-212.421c1.611-10.303 10.478-18.952 19.764-19.281l140.909-4.987 21.233-16.102c4.15-3.151 8.952-4.976 13.521-5.137l179.911-6.368.035 1-.035-1c4.219-.143 8 1.429 10.673 4.443 3.101 3.497 4.395 8.605 3.548 14.016l-36.373 232.54c-1.611 10.303-10.467 18.952-19.741 19.28L14.501 348.734c-.182.006-.363.009-.544.009zM409.36 67.972c-.156 0-.312.002-.47.008l-179.911 6.368c-4.16.147-8.557 1.827-12.381 4.731l-21.486 16.293a1.005 1.005 0 0 1-.569.203l-141.225 4.999c-8.377.296-16.389 8.188-17.859 17.591L2.232 330.586c-.752 4.81.367 9.317 3.071 12.367 2.276 2.566 5.505 3.921 9.128 3.782l352.426-12.473c8.364-.296 16.365-8.187 17.835-17.59l36.373-232.541c.753-4.819-.365-9.331-3.068-12.379-2.171-2.448-5.224-3.78-8.637-3.78z" fill="#111"/><path d="M432.218 79.094 416.17 68.888c4.494 2.858 6.941 8.634 5.883 15.398l-36.373 232.54c-1.542 9.858-9.951 18.122-18.787 18.435h-.001L14.466 347.734c-2.778.099-5.268-.601-7.329-1.912l16.048 10.207c2.061 1.31 4.552 2.009 7.329 1.912l352.425-12.474c8.838-.313 17.247-8.576 18.788-18.435L438.1 94.491c1.059-6.763-1.387-12.538-5.882-15.397z" fill="#354F52"/><path d="M30.013 358.95c-2.684 0-5.22-.713-7.365-2.077L6.616 346.677l-.016-.01a.999.999 0 1 1 1.073-1.687c1.944 1.236 4.276 1.85 6.757 1.756l352.426-12.474c8.364-.296 16.366-8.187 17.836-17.589l36.373-232.541c.96-6.141-1.121-11.658-5.432-14.399a.999.999 0 1 1 1.073-1.687l.017.011 16.031 10.195c4.992 3.176 7.419 9.458 6.334 16.396l-36.373 232.541c-1.611 10.302-10.466 18.951-19.74 19.28L30.55 358.941c-.179.006-.359.009-.537.009zm-16.428-10.211 10.137 6.447c1.944 1.236 4.281 1.849 6.758 1.756l352.425-12.474c8.364-.296 16.365-8.188 17.835-17.59l36.373-232.542c.96-6.139-1.121-11.657-5.432-14.399l-10.113-6.431c1.549 3.104 2.102 6.909 1.472 10.934l-36.373 232.54c-1.611 10.302-10.466 18.951-19.74 19.28L14.501 348.734c-.307.01-.613.011-.916.005z" fill="#111"/></g></svg></g><g transform="translate(2021.0 895.0) rotate(0.0 -515.5 384.5) scale(-1.0188391360718465 1.0198303288787038)"><svg width="1011.936" height="754.047" viewBox="0 0 1011.936 754.047"><path d="M517.665 33.408 6.793 250.166c-5.496 2.332-7.425 9.493-4.29 15.981L211.977 699.62c3.136 6.489 10.151 9.853 15.647 7.521l42.873-18.191L560.306 96.788 533.313 40.93c-3.136-6.489-10.133-9.862-15.648-7.522" fill="#354F52"/><path d="M223.94 708.876c-5.012 0-10.235-3.382-12.863-8.821L1.603 266.582c-1.812-3.751-2.103-7.893-.797-11.366 1.038-2.76 3.025-4.88 5.597-5.971L517.275 32.487l.391.921-.391-.921c5.98-2.537 13.579 1.055 16.939 8.008l26.993 55.858a1 1 0 0 1-.002.875L271.396 689.39a1 1 0 0 1-.508.481l-42.873 18.191a10.396 10.396 0 0 1-4.075.814zM521.383 33.665a8.46 8.46 0 0 0-3.327.664L7.184 251.086c-2.092.888-3.65 2.559-4.506 4.834-1.114 2.963-.85 6.532.726 9.792l209.474 433.473c2.902 6.006 9.343 9.163 14.356 7.036l42.53-18.045 289.43-591.391-26.781-55.42c-2.289-4.736-6.777-7.7-11.03-7.7z" fill="#111"/><path d="M1009.44 442.738 818.993 48.637 799.956 9.242c-3.135-6.487-10.14-9.832-15.636-7.5L560.306 96.788 92.325 295.348c-5.514 2.339-7.453 9.479-4.318 15.966l19.037 39.395 97.526 201.815 65.927 136.426 26.994 55.859c3.125 6.468 10.14 9.833 15.655 7.494l56.255-23.868 635.739-269.739c5.496-2.331 7.424-9.491 4.3-15.958z" fill="#fff"/><path d="M309.444 754.042c-5.015 0-10.231-3.371-12.853-8.797L87.107 311.75c-1.808-3.74-2.098-7.871-.796-11.332 1.04-2.766 3.037-4.893 5.624-5.99L783.929.822c5.98-2.537 13.573 1.045 16.927 7.985l209.484 433.496c1.806 3.738 2.094 7.871.79 11.34-1.038 2.761-3.027 4.883-5.599 5.975L313.537 753.224a10.434 10.434 0 0 1-4.093.818zM788.042 1.998a8.49 8.49 0 0 0-3.333.665L92.716 296.269c-2.108.894-3.675 2.572-4.533 4.853-1.11 2.952-.846 6.508.725 9.758l209.484 433.495c2.897 5.995 9.341 9.139 14.364 7.008l691.993-293.607c2.063-.876 3.665-2.594 4.508-4.837 1.113-2.959.851-6.518-.719-9.766L799.055 9.677c-2.283-4.724-6.763-7.679-11.013-7.679z" fill="#111"/><path d="M450.921 78.97c-4.329 1.837-5.857 7.451-3.396 12.544s7.973 7.722 12.302 5.886c4.33-1.837 5.84-7.445 3.378-12.538-2.461-5.094-7.955-7.729-12.284-5.892" fill="#fff"/><path d="M456.919 98.979c-4.021 0-8.198-2.693-10.294-7.03-1.444-2.988-1.674-6.294-.63-9.069.839-2.23 2.449-3.946 4.535-4.831 4.801-2.037 10.892.823 13.575 6.377 1.447 2.995 1.679 6.303.636 9.077-.836 2.223-2.443 3.934-4.524 4.817a8.41 8.41 0 0 1-3.298.659zm-5.998-20.009.391.921c-1.6.679-2.791 1.956-3.445 3.694-.852 2.266-.648 4.997.559 7.495 2.227 4.609 7.167 7.031 11.01 5.4 1.595-.677 2.783-1.949 3.433-3.679.851-2.264.646-4.999-.565-7.503-2.227-4.608-7.159-7.033-10.993-5.406z" fill="#111"/><path d="M479.964 66.647c-4.329 1.837-5.839 7.444-3.378 12.537s7.956 7.73 12.284 5.893c4.329-1.837 5.839-7.445 3.377-12.538s-7.954-7.729-12.283-5.892" fill="#fff"/><path d="M485.975 86.654c-4.016 0-8.192-2.696-10.289-7.035-1.447-2.995-1.679-6.303-.636-9.076.836-2.223 2.442-3.933 4.524-4.816 4.8-2.037 10.891.824 13.575 6.377 1.447 2.995 1.679 6.304.636 9.078-.836 2.223-2.442 3.933-4.523 4.816a8.412 8.412 0 0 1-3.287.656zm-3.082-19.593c-.871 0-1.729.163-2.538.506-1.595.677-2.782 1.949-3.433 3.679-.851 2.264-.646 4.998.565 7.502 2.228 4.609 7.159 7.034 10.993 5.408 1.595-.677 2.781-1.949 3.432-3.679.852-2.264.646-4.999-.564-7.504-1.757-3.635-5.198-5.912-8.455-5.912z" fill="#111"/><path d="M509.008 54.324c-4.33 1.837-5.84 7.444-3.379 12.537s7.956 7.73 12.285 5.893 5.856-7.452 3.395-12.545c-2.461-5.094-7.972-7.722-12.301-5.885" fill="#fff"/><path d="M515.018 74.331c-4.017 0-8.192-2.695-10.29-7.035-1.447-2.994-1.679-6.303-.636-9.076.836-2.223 2.443-3.934 4.525-4.817 4.811-2.041 10.908.816 13.592 6.37 1.444 2.988 1.674 6.295.63 9.07-.839 2.23-2.449 3.946-4.535 4.831a8.38 8.38 0 0 1-3.286.657zm-5.619-19.087c-1.596.677-2.783 1.949-3.434 3.68-.851 2.264-.646 4.998.564 7.502 2.227 4.609 7.159 7.034 10.994 5.407 1.6-.679 2.791-1.956 3.444-3.693.852-2.266.648-4.998-.559-7.496-2.226-4.609-7.164-7.031-11.009-5.4zm-.391-.92h.01z" fill="#111"/><path d="M722.453 47.678c-4.329 1.837-5.84 7.445-3.378 12.538 2.461 5.093 7.966 7.749 12.294 5.912s5.848-7.472 3.387-12.565c-2.462-5.093-7.975-7.721-12.303-5.885" fill="#354F52"/><path d="M728.478 67.705c-4.02 0-8.202-2.703-10.304-7.053-1.447-2.995-1.679-6.303-.635-9.077.836-2.223 2.442-3.934 4.524-4.817 4.812-2.041 10.91.816 13.594 6.371 1.448 2.995 1.677 6.31.63 9.095-.838 2.229-2.446 3.943-4.526 4.826a8.391 8.391 0 0 1-3.283.655zm-3.084-19.615c-.875 0-1.738.164-2.551.509-1.595.677-2.782 1.949-3.433 3.68-.851 2.264-.646 4.999.564 7.503 2.232 4.619 7.168 7.054 11.003 5.427 1.594-.677 2.782-1.952 3.436-3.689.855-2.275.651-5.016-.559-7.521-1.755-3.634-5.198-5.909-8.46-5.909z" fill="#111"/><path d="M751.495 35.356c-4.329 1.837-5.839 7.445-3.377 12.538 2.461 5.093 7.965 7.749 12.294 5.912 4.347-1.844 5.848-7.472 3.387-12.565-2.462-5.094-7.957-7.73-12.304-5.885" fill="#354F52"/><path d="M757.522 55.382c-4.02 0-8.202-2.703-10.304-7.053-1.447-2.995-1.679-6.304-.636-9.078.836-2.223 2.442-3.933 4.523-4.816 4.811-2.041 10.91.816 13.594 6.371 1.45 3 1.682 6.316.636 9.096-.837 2.226-2.447 3.94-4.532 4.825a8.382 8.382 0 0 1-3.281.655zm-5.636-19.106c-1.595.677-2.782 1.949-3.432 3.678-.852 2.264-.646 4.999.564 7.504 2.232 4.619 7.168 7.054 11.003 5.427 1.599-.679 2.79-1.954 3.441-3.688.854-2.271.648-5.012-.565-7.522-2.227-4.608-7.167-7.03-11.011-5.399z" fill="#111"/><path d="M780.557 23.025c-4.329 1.837-5.856 7.452-3.395 12.545s7.982 7.742 12.311 5.905 5.83-7.465 3.369-12.558-7.957-7.729-12.285-5.892" fill="#354F52"/><path d="M786.57 43.054c-4.024 0-8.208-2.701-10.309-7.049-1.444-2.988-1.674-6.295-.63-9.07.839-2.23 2.449-3.946 4.535-4.831 4.801-2.037 10.892.824 13.576 6.378 1.451 3.002 1.683 6.32.636 9.102-.835 2.222-2.439 3.931-4.515 4.811a8.365 8.365 0 0 1-3.293.659zm-3.084-19.615a6.48 6.48 0 0 0-2.539.506c-1.6.679-2.791 1.956-3.444 3.693-.852 2.266-.648 4.998.559 7.496 2.232 4.62 7.177 7.051 11.02 5.42 1.59-.675 2.774-1.945 3.424-3.674.855-2.273.649-5.017-.565-7.528-1.757-3.635-5.198-5.913-8.455-5.913zm-2.929-.414h.01z" fill="#111"/><path d="M818.993 48.637 173.286 322.604l196.115 405.83 635.739-269.738c5.496-2.332 7.424-9.492 4.299-15.959z" fill="#CAD2C5"/><path d="M369.401 729.435a1 1 0 0 1-.901-.565L172.385 323.04a1.002 1.002 0 0 1 .509-1.356L818.602 47.717a1 1 0 0 1 1.291.486l190.447 394.1c1.806 3.738 2.094 7.872.79 11.341-1.038 2.761-3.027 4.883-5.599 5.974l-635.74 269.738a1.01 1.01 0 0 1-.39.079zm-194.758-406.32 195.244 404.028 634.863-269.366c2.063-.876 3.664-2.593 4.508-4.837 1.113-2.959.851-6.519-.719-9.766L818.507 49.93z" fill="#111"/><path d="m173.286 322.604-66.241 28.105 190.447 394.1c3.125 6.467 10.14 9.833 15.655 7.493l56.255-23.868z" fill="#fff"/><g fill="#111"><path d="M309.443 754.042c-5.014 0-10.23-3.371-12.852-8.797l-190.447-394.1a1.002 1.002 0 0 1 .509-1.356l66.241-28.105a1 1 0 0 1 1.291.485L370.301 728a1.002 1.002 0 0 1-.509 1.356l-56.255 23.868a10.435 10.435 0 0 1-4.094.818zM108.402 351.22l189.99 393.155c2.897 5.995 9.341 9.139 14.364 7.008l55.288-23.458L172.8 323.897z"/><path d="M209.258 479.635c-2.981 1.265-4.028 5.147-2.332 8.655s5.5 5.332 8.48 4.068c2.982-1.265 4.029-5.147 2.333-8.656s-5.499-5.333-8.481-4.067"/><path d="M213.411 493.755c-2.89 0-5.886-1.926-7.386-5.03-1.034-2.14-1.196-4.513-.445-6.51.608-1.616 1.775-2.859 3.287-3.501 3.466-1.47 7.849.573 9.772 4.553 1.034 2.14 1.196 4.512.445 6.51-.608 1.616-1.776 2.86-3.288 3.502a6.085 6.085 0 0 1-2.385.476zm-2.125-13.526c-.563 0-1.116.105-1.638.326-1.018.432-1.777 1.249-2.196 2.364-.56 1.488-.423 3.287.374 4.936 1.467 3.035 4.692 4.642 7.189 3.582 1.018-.432 1.778-1.25 2.197-2.365.56-1.487.423-3.286-.374-4.936-1.159-2.4-3.421-3.907-5.552-3.907zm-2.028-.594h.01zm49.524 102.482c-2.981 1.265-4.028 5.147-2.332 8.655 1.706 3.529 5.5 5.332 8.48 4.068 2.982-1.265 4.039-5.126 2.333-8.656-1.695-3.508-5.499-5.332-8.481-4.067"/><path d="M262.935 596.238c-2.89 0-5.886-1.926-7.386-5.03-1.034-2.14-1.196-4.513-.445-6.51.608-1.616 1.775-2.859 3.287-3.501 3.466-1.47 7.849.572 9.772 4.553 1.036 2.144 1.2 4.516.451 6.508-.608 1.616-1.778 2.86-3.294 3.503a6.086 6.086 0 0 1-2.385.477zm-2.125-13.527c-.563 0-1.116.105-1.638.326-1.018.432-1.777 1.249-2.196 2.364-.56 1.488-.423 3.287.374 4.936 1.467 3.035 4.691 4.642 7.189 3.582 1.023-.434 1.785-1.252 2.204-2.366.557-1.482.419-3.28-.38-4.934-1.16-2.4-3.422-3.908-5.553-3.908zm-2.028-.594h.01z"/></g><path d="m410.279 278.514 112.024-47.531" fill="#fff"/><path d="M410.279 279.514a1 1 0 0 1-.391-1.921l112.024-47.531a1 1 0 1 1 .781 1.841L410.67 279.434c-.128.054-.26.08-.391.08z" fill="#111"/><path d="m231.528 354.356 147.336-62.513" fill="#fff"/><path d="M231.528 355.356a1 1 0 0 1-.391-1.921l147.336-62.513a1 1 0 1 1 .781 1.841l-147.336 62.513a.98.98 0 0 1-.39.08z" fill="#111"/><path d="m366.02 359.053 277.826-117.879" fill="#fff"/><path d="M366.021 360.053a1 1 0 0 1-.391-1.921l277.826-117.879a1 1 0 0 1 .781 1.841l-277.826 117.88a1 1 0 0 1-.39.079z" fill="#111"/><path d="m256.295 405.608 92.321-39.171" fill="#fff"/><path d="M256.296 406.609a1 1 0 0 1-.391-1.921l92.321-39.171a1 1 0 1 1 .781 1.841l-92.321 39.171c-.128.054-.26.08-.39.08z" fill="#111"/><path d="m434.747 391.628 166.555-70.668" fill="#fff"/><path d="M434.747 392.628a1 1 0 0 1-.391-1.921l166.555-70.668a1 1 0 1 1 .781 1.841l-166.555 70.668a.997.997 0 0 1-.39.08z" fill="#111"/><path d="m333.068 434.769 84.022-35.65" fill="#fff"/><path d="M333.068 435.769a1 1 0 0 1-.391-1.921l84.023-35.65a1 1 0 1 1 .781 1.841l-84.023 35.65a.98.98 0 0 1-.39.08z" fill="#111"/><path d="m357.834 486.02 126.268-53.574" fill="#fff"/><path d="M357.835 487.021a1 1 0 0 1-.391-1.921l126.268-53.574a1 1 0 1 1 .781 1.841l-126.268 53.574a.997.997 0 0 1-.39.08z" fill="#111"/><path d="m330.576 559.322 250.003-106.074" fill="#fff"/><path d="M330.576 560.322a1 1 0 0 1-.391-1.921l250.003-106.074a1 1 0 1 1 .781 1.841L330.966 560.242a.997.997 0 0 1-.39.08z" fill="#111"/><path d="m407.359 588.503 103.672-43.987" fill="#fff"/><path d="M407.359 589.503a1 1 0 0 1-.391-1.921l103.673-43.987a1 1 0 1 1 .781 1.841l-103.673 43.987a.98.98 0 0 1-.39.08z" fill="#111"/><path d="m432.115 639.733 180.314-76.505" fill="#fff"/><path d="M432.116 640.734a1 1 0 0 1-.391-1.921l180.313-76.505a1 1 0 1 1 .781 1.841l-180.313 76.505a.997.997 0 0 1-.39.08z" fill="#111"/></svg></g></svg>